<?xml version="1.0" encoding="utf-8"?>
<!-- Generator: Adobe Illustrator 22.0.1, SVG Export Plug-In . SVG Version: 6.00 Build 0)  -->
<svg version="1.1" id="Слой_1" xmlns="http://www.w3.org/2000/svg" xmlns:xlink="http://www.w3.org/1999/xlink" x="0px" y="0px"
	 viewBox="0 0 327.4 279.9" style="enable-background:new 0 0 327.4 279.9;" xml:space="preserve">
<style type="text/css">
	.st0{fill:#01B06D;}
	.st1{fill:#0C0F14;}
</style>
<path class="st0" d="M303.6,66.3L303.6,66.3c-1.8-2.8-3.7-5.6-5.7-8.3c-2.7-3.7-6.7-6-11.3-6.7s-9,0.5-12.7,3.2
	c-3.7,2.7-6,6.7-6.7,11.3c-0.7,4.5,0.5,9,3.2,12.7c1.5,2,2.9,4.1,4.3,6.2c10.6,16.6,16.2,36.1,16.2,56.3
	c0,58-47.2,105.3-105.3,105.3S80.4,199.1,80.4,141.1S127.6,35.8,185.6,35.8c15.7,0,30.8,3.4,44.9,10c8.5,4,18.8,0.4,22.8-8.2
	c2-4.1,2.2-8.8,0.6-13.1c-1.5-4.3-4.7-7.7-8.8-9.7C226.4,6,206.4,1.6,185.6,1.6c-37.3,0-72.3,14.5-98.6,40.9
	c-26.3,26.3-40.9,61.4-40.9,98.6s14.5,72.3,40.9,98.6c26.3,26.3,61.4,40.9,98.6,40.9s72.3-14.5,98.6-40.9
	c26.3-26.3,40.9-61.4,40.9-98.6C325.1,114.3,317.7,88.4,303.6,66.3z"/>
<path class="st1" d="M297.6,57.1c-7.7-7.7-20.3-7.7-28,0L169.4,157.3L36.5,24.4c-8.4-8.4-21.9-8.4-30.2,0v0
	c-8.4,8.4-8.4,21.9,0,30.2l145.6,145.6c2.4,2.4,5.2,4.1,8.2,5.1c7.2,3,15.7,1.5,21.6-4.3l116-116C305.4,77.3,305.4,64.8,297.6,57.1z
	"/>
</svg>
