<?xml version="1.0" encoding="utf-8"?>
<!-- Generator: Adobe Illustrator 22.0.1, SVG Export Plug-In . SVG Version: 6.00 Build 0)  -->
<svg version="1.1" id="Слой_1" xmlns="http://www.w3.org/2000/svg" xmlns:xlink="http://www.w3.org/1999/xlink" x="0px" y="0px"
	 viewBox="0 0 284 280.8" style="enable-background:new 0 0 284 280.8;" xml:space="preserve">
<style type="text/css">
	.st0{fill:#01B06D;}
</style>
<path class="st0" d="M257.5,64.8L257.5,64.8c-1.8-2.8-3.7-5.6-5.7-8.3c-2.7-3.7-6.7-6-11.3-6.7s-9,0.5-12.7,3.2
	c-3.7,2.7-6,6.7-6.7,11.3c-0.7,4.5,0.5,9,3.2,12.7c1.5,2,2.9,4.1,4.3,6.2c10.6,16.6,16.2,36.1,16.2,56.3
	c0,58-47.2,105.3-105.3,105.3S34.2,197.5,34.2,139.5S81.5,34.2,139.5,34.2c15.7,0,30.8,3.4,44.9,10c8.5,4,18.8,0.4,22.8-8.2
	c2-4.1,2.2-8.8,0.6-13.1c-1.5-4.3-4.7-7.7-8.8-9.7C180.3,4.5,160.3,0,139.5,0c-37.3,0-72.3,14.5-98.6,40.9
	C14.5,67.2,0,102.2,0,139.5s14.5,72.3,40.9,98.6c26.3,26.3,61.4,40.9,98.6,40.9s72.3-14.5,98.6-40.9c26.3-26.3,40.9-61.4,40.9-98.6
	C279,112.7,271.6,86.9,257.5,64.8z"/>
</svg>
