<?xml version="1.0" encoding="utf-8"?>
<!-- Generator: Adobe Illustrator 22.0.1, SVG Export Plug-In . SVG Version: 6.00 Build 0)  -->
<svg version="1.1" id="Слой_1" xmlns="http://www.w3.org/2000/svg" xmlns:xlink="http://www.w3.org/1999/xlink" x="0px" y="0px"
	 viewBox="0 0 26.5 26.5" style="enable-background:new 0 0 26.5 26.5;" xml:space="preserve">
<style type="text/css">
	.st0{fill:#01B06D;}
	.st1{fill:#0C0F14;}
</style>
<path class="st1" d="M15.4,13.2L26,2.6C26.6,2,26.6,1,26,0.4c-0.6-0.6-1.5-0.6-2.1,0L13.2,11.1L2.6,0.4C2-0.1,1-0.1,0.4,0.4
	C-0.1,1-0.1,2,0.4,2.6l10.7,10.7L0.4,23.9c-0.6,0.6-0.6,1.5,0,2.1s1.5,0.6,2.1,0l10.7-10.7L23.9,26c0.6,0.6,1.5,0.6,2.1,0
	c0.6-0.6,0.6-1.5,0-2.1L15.4,13.2z"/>
</svg>
