<?xml version="1.0" encoding="utf-8"?>
<!-- Generator: Adobe Illustrator 22.0.1, SVG Export Plug-In . SVG Version: 6.00 Build 0)  -->
<svg version="1.1" id="Слой_1" xmlns="http://www.w3.org/2000/svg" xmlns:xlink="http://www.w3.org/1999/xlink" x="0px" y="0px"
	 viewBox="0 0 167.4 45.7" style="enable-background:new 0 0 167.4 45.7;" xml:space="preserve">
<style type="text/css">
	.st0{
		fill: none;
		stroke: #44fffa;
		stroke-linecap: round;
		stroke-linejoin: round;
		stroke-width: 3px;
		-webkit-animation-fill-mode: backwards, backwards;
		animation-fill-mode: backwards, backwards;
		stroke-dashoffset: 85.9;
		-webkit-animation-name: kf_el_4TliBGCc2O_an_2jij9jekC, kf_el_4TliBGCc2O_an_l-l1lwdRGS;
		animation-name: kf_el_4TliBGCc2O_an_2jij9jekC, kf_el_4TliBGCc2O_an_l-l1lwdRGS;
		-webkit-animation-timing-function: cubic-bezier(0.42, 0, 0.58, 1), cubic-bezier(0, 0, 1, 1);
		animation-timing-function: cubic-bezier(0.42, 0, 0.58, 1), cubic-bezier(0, 0, 1, 1);
		stroke-dasharray: 85.9;

	}
	.st1{
		fill: none;
		stroke: #44fffa;
		stroke-linecap: round;
		stroke-linejoin: round;
		stroke-width: 3px;
		-webkit-animation-fill-mode: backwards, backwards;
		animation-fill-mode: backwards, backwards;
		stroke-dashoffset: 85.9;
		-webkit-animation-name: kf_el_4TliBGCc2O_an_2jij9jekC, kf_el_4TliBGCc2O_an_l-l1lwdRGS;
		animation-name: kf_el_4TliBGCc2O_an_2jij9jekC, kf_el_4TliBGCc2O_an_l-l1lwdRGS;
		-webkit-animation-timing-function: cubic-bezier(0.42, 0, 0.58, 1), cubic-bezier(0, 0, 1, 1);
		animation-timing-function: cubic-bezier(0.42, 0, 0.58, 1), cubic-bezier(0, 0, 1, 1);
		stroke-dasharray: 85.9;
	}
</style>
<g>
	<path class="st0" d="M165.6,18.9L165.6,18.9c-0.2-0.3-0.5-0.7-0.7-1c-0.3-0.4-0.8-0.7-1.4-0.8c-0.6-0.1-1.1,0.1-1.6,0.4
		c-0.4,0.3-0.7,0.8-0.8,1.4c-0.1,0.6,0.1,1.1,0.4,1.6c0.2,0.2,0.4,0.5,0.5,0.8c1.3,2,2,4.4,2,6.9c0,7.1-5.8,12.8-12.8,12.8
		c-7.1,0-12.8-5.8-12.8-12.8s5.8-12.8,12.8-12.8c1.9,0,3.8,0.4,5.5,1.2c1,0.5,2.3,0,2.8-1c0.2-0.5,0.3-1.1,0.1-1.6
		c-0.2-0.5-0.6-0.9-1.1-1.2c-2.3-1.1-4.7-1.6-7.3-1.6c-4.5,0-8.8,1.8-12,5c-3.2,3.2-5,7.5-5,12s1.8,8.8,5,12c3.2,3.2,7.5,5,12,5
		c4.5,0,8.8-1.8,12-5c3.2-3.2,5-7.5,5-12C168.3,24.7,167.3,21.6,165.6,18.9z"/>
	<path class="st1" d="M150.7,35.3L150.7,35.3c-1,1-2.5,1-3.5,0l-18-18c-1-1-1-2.5,0-3.5v0c1-1,2.5-1,3.5,0l18,18
		C151.7,32.8,151.7,34.3,150.7,35.3z"/>
	<path class="st1" d="M147.3,35.3L147.3,35.3c-0.9-0.9-0.9-2.5,0-3.4l14.2-14.2c0.9-0.9,2.5-0.9,3.4,0v0c0.9,0.9,0.9,2.5,0,3.4
		l-14.2,14.2C149.8,36.3,148.3,36.3,147.3,35.3z"/>
	<path class="st1" d="M21.3,13.9c1.9,0.9,2.9,2.1,2.9,3.5c0,0.6-0.2,1.2-0.6,1.7c-0.4,0.5-0.9,0.7-1.5,0.7c-0.5,0-0.8-0.1-1.1-0.2
		c-0.3-0.1-0.6-0.4-1.1-0.7c-0.2-0.2-0.6-0.5-1-0.8c-0.4-0.2-1.1-0.4-1.9-0.5c-0.8-0.1-1.5-0.2-2.2-0.2c-1.9,0-3.6,0.4-5,1.3
		c-1.5,0.9-2.6,2.1-3.4,3.6c-0.8,1.5-1.2,3.3-1.2,5.1c0,1.9,0.4,3.6,1.2,5.2c0.8,1.5,1.9,2.7,3.3,3.6c1.4,0.9,3,1.3,4.8,1.3
		c1.9,0,3.4-0.3,4.6-0.9c0.3-0.1,0.6-0.4,1-0.7c0.4-0.3,0.7-0.5,1-0.7c0.3-0.1,0.6-0.2,1-0.2c0.7,0,1.3,0.2,1.7,0.7
		c0.4,0.5,0.6,1,0.6,1.8c0,0.8-0.5,1.5-1.4,2.3c-1,0.7-2.3,1.4-3.9,1.8c-1.6,0.5-3.3,0.7-5.2,0.7c-2.8,0-5.2-0.6-7.3-1.9
		C4.4,39,2.8,37.2,1.7,35C0.5,32.7,0,30.2,0,27.4c0-2.8,0.6-5.3,1.8-7.6c1.2-2.3,2.9-4,5-5.3c2.1-1.3,4.6-1.9,7.4-1.9
		C17,12.5,19.4,13,21.3,13.9z"/>
	<path class="st1" d="M51.5,24.5v14.5c0,0.7-0.2,1.3-0.7,1.9c-0.5,0.5-1.1,0.8-1.9,0.8c-0.7,0-1.3-0.3-1.8-0.8
		c-0.5-0.5-0.7-1.1-0.7-1.9V24.5c0-4.7-2-7.1-6-7.1c-2.1,0-3.9,0.7-5.3,2c-1.4,1.4-2.1,3-2.1,5v14.5c0,0.7-0.2,1.3-0.7,1.9
		c-0.5,0.5-1.1,0.8-1.9,0.8c-0.8,0-1.4-0.2-1.9-0.7c-0.5-0.5-0.7-1.1-0.7-1.9V4c0-0.7,0.2-1.3,0.7-1.9c0.5-0.5,1.1-0.8,1.8-0.8
		c0.8,0,1.4,0.3,1.9,0.8c0.5,0.5,0.7,1.1,0.7,1.9v13.8c0.9-1.4,2.2-2.6,3.8-3.6c1.6-1,3.4-1.5,5.2-1.5
		C48.3,12.7,51.5,16.6,51.5,24.5z"/>
	<path class="st1" d="M80.1,28c-0.5,0.5-1.1,0.7-1.8,0.7H59.1c0.3,2.7,1.3,4.8,3,6.4c1.8,1.6,3.9,2.4,6.5,2.4c1.7,0,3.2-0.3,4.2-0.8
		c1.1-0.5,2.1-1.2,2.9-2c0.5-0.3,1.1-0.5,1.6-0.5c0.6,0,1.1,0.2,1.6,0.7c0.4,0.4,0.6,0.9,0.6,1.5c0,0.8-0.4,1.5-1.1,2.1
		c-1.1,1.1-2.5,1.9-4.2,2.7c-1.7,0.7-3.5,1.1-5.3,1.1c-2.9,0-5.5-0.6-7.8-1.9c-2.2-1.2-4-3-5.2-5.2c-1.2-2.2-1.8-4.7-1.8-7.5
		c0-3,0.6-5.7,1.9-8c1.3-2.3,2.9-4.1,5-5.3c2.1-1.2,4.3-1.9,6.6-1.9c2.3,0,4.5,0.6,6.5,1.8c2,1.2,3.7,2.9,4.9,5
		c1.2,2.1,1.9,4.5,1.9,7.1C80.8,27,80.6,27.5,80.1,28z M62.2,19c-1.5,1.1-2.5,2.9-2.9,5.3h16.1v-0.4c-0.2-1.9-1-3.5-2.6-4.7
		c-1.5-1.2-3.3-1.9-5.3-1.9C65.5,17.3,63.7,17.9,62.2,19z"/>
	<path class="st1" d="M104.8,13.9c1.9,0.9,2.9,2.1,2.9,3.5c0,0.6-0.2,1.2-0.6,1.7c-0.4,0.5-0.9,0.7-1.5,0.7c-0.5,0-0.8-0.1-1.1-0.2
		c-0.3-0.1-0.6-0.4-1.1-0.7c-0.2-0.2-0.6-0.5-1-0.8c-0.4-0.2-1.1-0.4-1.9-0.5c-0.8-0.1-1.5-0.2-2.2-0.2c-1.9,0-3.6,0.4-5,1.3
		c-1.5,0.9-2.6,2.1-3.4,3.6c-0.8,1.5-1.2,3.3-1.2,5.1c0,1.9,0.4,3.6,1.2,5.2c0.8,1.5,1.9,2.7,3.3,3.6c1.4,0.9,3,1.3,4.8,1.3
		c1.9,0,3.4-0.3,4.6-0.9c0.3-0.1,0.6-0.4,1-0.7c0.4-0.3,0.7-0.5,1-0.7c0.3-0.1,0.6-0.2,1-0.2c0.7,0,1.3,0.2,1.7,0.7
		c0.4,0.5,0.6,1,0.6,1.8c0,0.8-0.5,1.5-1.4,2.3c-1,0.7-2.3,1.4-3.9,1.8c-1.6,0.5-3.3,0.7-5.2,0.7c-2.8,0-5.2-0.6-7.3-1.9
		C88,39,86.4,37.2,85.2,35c-1.1-2.3-1.7-4.8-1.7-7.6c0-2.8,0.6-5.3,1.8-7.6c1.2-2.3,2.9-4,5-5.3c2.1-1.3,4.6-1.9,7.4-1.9
		C100.5,12.5,102.9,13,104.8,13.9z"/>
	<path class="st1" d="M134.3,39.1c0,0.7-0.3,1.3-0.8,1.8c-0.6,0.5-1.2,0.7-1.8,0.7c-0.8,0-1.4-0.3-1.9-0.9L119,29.4l-3.3,2.9v6.8
		c0,0.7-0.2,1.3-0.7,1.9c-0.5,0.5-1.1,0.8-1.8,0.8c-0.8,0-1.4-0.3-1.9-0.8c-0.5-0.5-0.7-1.1-0.7-1.9V4c0-0.7,0.2-1.3,0.7-1.9
		c0.5-0.5,1.1-0.8,1.9-0.8c0.7,0,1.3,0.3,1.8,0.8c0.5,0.5,0.7,1.1,0.7,1.9v22.1l13.3-12.3c0.6-0.5,1.3-0.8,1.9-0.8
		c0.6,0,1.2,0.3,1.7,0.8c0.5,0.5,0.8,1.1,0.8,1.7c0,0.7-0.3,1.4-1,2l-9.4,8.4l10.5,11.3C134,37.7,134.3,38.4,134.3,39.1z"/>
</g>
</svg>
