<?xml version="1.0" encoding="utf-8"?>
<!-- Generator: Adobe Illustrator 22.0.1, SVG Export Plug-In . SVG Version: 6.00 Build 0)  -->
<svg version="1.1" id="Layer_1" xmlns="http://www.w3.org/2000/svg" xmlns:xlink="http://www.w3.org/1999/xlink" x="0px" y="0px"
	 viewBox="0 0 2100 1684.8" style="enable-background:new 0 0 2100 1684.8;" xml:space="preserve">
<style type="text/css">
	.st0{fill:#FFFFFF;}
</style>
<g>
	<path class="st0" d="M2038.7,0H61.3C27.5,0,0,27.5,0,61.3v1194.8v4v128.7c0,33.9,27.5,61.3,61.3,61.3h746.3
		c-1.6,26-4.7,61.6-8.6,95.4c-10.6,91.5-18.8,99.5-20.3,100.2c-7.5,3.3-30.5,6.8-50.7,9.9c-36.2,5.6-41.2,6.8-41.2,10.2v5.2
		c0,1.3,0,2.4,6.8,3.2c0,1.7,0,4.3,0,6.1c0,3.9,115.6,4.6,220.2,4.6c52.9,0,103-0.2,134-0.2c30.9,0,81.1,0.2,134,0.2
		c104.6,0,220.2-0.7,220.2-4.6c0-1.8,0-4.3,0-6.1c6.8-0.9,6.8-1.9,6.8-3.2v-5.2c0-3.4-5-4.7-41.2-10.2c-20.2-3.1-43.2-6.6-50.7-9.9
		c-1.5-0.7-9.8-8.7-20.3-100.2c-3.9-33.8-7-69.4-8.6-95.4h750.7c33.9,0,61.3-27.5,61.3-61.3v-128.7v-4V61.3
		C2100,27.5,2072.5,0,2038.7,0z M1399,1678.2c-4.5,0.8-20.5,2.1-72.9,2.8c-35.1,0.5-82.3,0.8-144.3,0.8c-32.1,0-62.6-0.1-89.5-0.1
		c-17.1,0-32.3-0.1-44.5-0.1c-12.2,0-27.3,0-44.5,0.1c-26.9,0.1-57.4,0.1-89.5,0.1c-62,0-109.3-0.2-144.3-0.8
		c-52.3-0.8-68.3-2-72.9-2.8v-3.7c9.4,0.9,27.9,1.6,64.4,2.2c36.2,0.6,85.8,0.8,151.8,0.8c32.6,0,63.5-0.1,90.7-0.1
		c17.1,0,32.2-0.1,44.3-0.1c12.1,0,27.2,0,44.4,0.1c27.2,0.1,58.1,0.1,90.7,0.1c66,0,115.6-0.3,151.8-0.8
		c36.4-0.6,54.9-1.3,64.4-2.2V1678.2z M1292.6,1545.9c11.4,98.4,19.9,102.1,22.7,103.4c8,3.5,30.2,6.9,51.7,10.2
		c15.3,2.3,34.2,5.2,37.8,7.1v3.2c-9.6,2.5-84.2,3.7-221.9,3.7c-32.6,0-63.5-0.1-90.7-0.1c-17.1,0-32.3-0.1-44.4-0.1
		c-12.1,0-27.2,0-44.4,0.1c-27.2,0.1-58.1,0.1-90.7,0.1c-137.7,0-212.3-1.3-221.9-3.7v-3.2c3.6-1.8,22.5-4.7,37.8-7.1
		c21.5-3.3,43.7-6.7,51.7-10.2c2.8-1.2,11.4-4.9,22.7-103.4c3.9-33.9,7-69.7,8.6-95.8H1284C1285.6,1476.2,1288.7,1512,1292.6,1545.9
		z M2096,1388.8c0,31.6-25.7,57.3-57.3,57.3H61.3c-31.6,0-57.3-25.7-57.3-57.3v-128.7h2092V1388.8z M4,1256.1V61.3
		C4,29.7,29.7,4,61.3,4h1977.4c31.6,0,57.3,25.7,57.3,57.3v1194.8H4z"/>
	<path class="st0" d="M2010,84H90c-3.3,0-6,2.7-6,6v1080c0,3.3,2.7,6,6,6h1920c3.3,0,6-2.7,6-6V90C2016,86.7,2013.3,84,2010,84z
		 M2010,1170H90V90h1920V1170z"/>
	<path class="st0" d="M1050,52.2c4.4,0,8-3.6,8-8c0-4.4-3.6-8-8-8c-4.4,0-8,3.6-8,8C1042,48.6,1045.6,52.2,1050,52.2z M1050,40.2
		c2.2,0,4,1.8,4,4c0,2.2-1.8,4-4,4c-2.2,0-4-1.8-4-4C1046,42,1047.8,40.2,1050,40.2z"/>
</g>
</svg>
