<?xml version="1.0" encoding="utf-8"?>
<!-- Generator: Adobe Illustrator 22.0.1, SVG Export Plug-In . SVG Version: 6.00 Build 0)  -->
<svg version="1.1" id="Слой_1" xmlns="http://www.w3.org/2000/svg" xmlns:xlink="http://www.w3.org/1999/xlink" x="0px" y="0px"
	 viewBox="0 0 20 28.5" style="enable-background:new 0 0 20 28.5;" xml:space="preserve">
<style type="text/css">
	.st0{fill:#01B06D;}
	.st1{fill:#0C0F14;}
</style>
<path class="st1" d="M15.8,10.3V5.4c0-3-2.6-5.4-5.8-5.4S4.2,2.4,4.2,5.4v4.9C1.6,12.2,0,15.2,0,18.5c0,5.5,4.5,10,10,10
	s10-4.5,10-10C20,15.2,18.4,12.2,15.8,10.3z M10,26.3c-4.3,0-7.9-3.5-7.9-7.9c0-2.8,1.4-5.3,3.8-6.7c0.4-0.2,0.8-0.4,1.3-0.6L7.4,11
	c0.1,0,0.2-0.1,0.4-0.1c0.1,0,0.3-0.1,0.5-0.1c0.1,0,0.2,0,0.3-0.1c0.2,0,0.3-0.1,0.5-0.1l0.2,0c0.2,0,0.5,0,0.7,0s0.5,0,0.7,0
	l0.2,0c0.2,0,0.3,0,0.5,0.1c0.1,0,0.2,0,0.3,0.1c0.2,0,0.3,0.1,0.4,0.1c0.1,0,0.2,0.1,0.4,0.1l0.2,0.1c0.4,0.2,0.9,0.4,1.3,0.6
	c2.4,1.4,3.8,4,3.8,6.7C17.9,22.8,14.3,26.3,10,26.3z M13.6,9.1C13.6,9.1,13.6,9.1,13.6,9.1C13.5,9.1,13.4,9,13.2,9
	c-0.1,0-0.2-0.1-0.4-0.1c-0.2-0.1-0.4-0.1-0.7-0.2l-0.3-0.1c-0.3-0.1-0.5-0.1-0.8-0.1l-0.2,0c-0.3,0-0.6,0-0.9,0s-0.6,0-1,0.1
	l-0.1,0c-0.3,0-0.5,0.1-0.8,0.1L7.8,8.7C7.6,8.8,7.4,8.8,7.2,8.9C7.1,8.9,7,8.9,6.8,9C6.6,9,6.5,9.1,6.4,9.1c0,0,0,0,0,0V5.4
	C6.4,3.6,8,2.1,10,2.1s3.6,1.5,3.6,3.3V9.1z"/>
<path class="st1" d="M10,18.9L10,18.9c-0.6,0-1.1-0.5-1.1-1v-2.9c0-0.6,0.5-1,1-1h0c0.6,0,1,0.5,1,1v2.9C11,18.4,10.6,18.9,10,18.9z
	"/>
</svg>
