<?xml version="1.0" encoding="utf-8"?>
<!-- Generator: Adobe Illustrator 22.0.1, SVG Export Plug-In . SVG Version: 6.00 Build 0)  -->
<svg version="1.1" id="Слой_1" xmlns="http://www.w3.org/2000/svg" xmlns:xlink="http://www.w3.org/1999/xlink" x="0px" y="0px"
	 viewBox="0 0 62 43.2" style="enable-background:new 0 0 62 43.2;" xml:space="preserve">
<style type="text/css">
	.st0{fill:#01B06D;}
	.st1{fill:#0C0F14;}
</style>
<path class="st1" d="M40.5,24.2c-0.5-0.5-1.3-0.5-1.8,0L31.9,31L23,22.1c-0.5-0.5-1.4-0.5-1.9,0c-0.5,0.5-0.5,1.4,0,1.9l9.7,9.7
	c0.4,0.4,1,0.5,1.4,0.3c0.2-0.1,0.3-0.2,0.5-0.3l7.7-7.7C41,25.6,41,24.8,40.5,24.2z"/>
<g>
	<g>
		<g>
			<path class="st1" d="M49.2,17.1C49,7.7,41.3,0,31.8,0c-4.2,0-8.3,1.5-11.4,4.3c-2.8,2.5-4.8,5.8-5.5,9.5c-0.1,0-0.1,0-0.2,0
				C6.6,13.8,0,20.4,0,28.5s6.6,14.7,14.7,14.7H49c7.2,0,13-5.8,13-13C62,23,56.3,17.2,49.2,17.1z M49,40.5H14.7
				c-6.6,0-12-5.4-12-12s5.4-12,12-12c0.4,0,0.7,0,1.1,0.1c0.7,0.1,1.3-0.4,1.4-1.1c0.5-3.5,2.2-6.7,4.9-9c2.7-2.4,6.1-3.7,9.7-3.7
				c8.1,0,14.7,6.6,14.7,14.7c0,0.3,0,0.6,0,0.9l0,0.1c0,0.4,0.1,0.8,0.4,1c0.3,0.3,0.7,0.4,1.1,0.4c0.4,0,0.7-0.1,1.1-0.1
				c5.7,0,10.4,4.7,10.4,10.4S54.7,40.5,49,40.5z"/>
		</g>
	</g>
</g>
</svg>
