<?xml version="1.0" encoding="utf-8"?>
<!-- Generator: Adobe Illustrator 22.0.1, SVG Export Plug-In . SVG Version: 6.00 Build 0)  -->
<svg version="1.1" id="Слой_1" xmlns="http://www.w3.org/2000/svg" xmlns:xlink="http://www.w3.org/1999/xlink" x="0px" y="0px"
	 viewBox="0 0 30.8 23.9" style="enable-background:new 0 0 30.8 23.9;" xml:space="preserve">
<style type="text/css">
	.st0{fill:none;stroke:#0C0F14;stroke-width:2;stroke-linecap:round;stroke-miterlimit:10;}
	.st1{fill:#FFFFFF;stroke:#0C0F14;stroke-width:2;stroke-linecap:round;stroke-miterlimit:10;}
	.st2{fill:#FFFFFF;stroke:#0C0F14;stroke-width:2;stroke-miterlimit:10;}
</style>
<g>
	<g>
		<g>
			<path class="st0" d="M24.3,20.4H7.3c-3.3,0-6-2.7-6-6s2.7-6,6-6c0.2,0,0.3,0,0.5,0c0.3,0,0.6-0.2,0.7-0.5
				c0.2-1.7,1.1-3.3,2.4-4.5c1.3-1.2,3-1.8,4.8-1.8c4-0.1,7.3,3.2,7.3,7.2c0,0.1,0,0.3,0,0.4v0c0,0.2,0,0.4,0.2,0.5
				c0.1,0.1,0.3,0.2,0.5,0.2c0.2,0,0.3,0,0.5,0c2.8,0,5.2,2.3,5.2,5.2S27.2,20.4,24.3,20.4z"/>
		</g>
	</g>
</g>
<line class="st1" x1="19.7" y1="12.5" x2="15.8" y2="16.4"/>
<line class="st1" x1="15.8" y1="16.4" x2="11.2" y2="11.8"/>
</svg>
