<?xml version="1.0" encoding="utf-8"?>
<!-- Generator: Adobe Illustrator 22.0.1, SVG Export Plug-In . SVG Version: 6.00 Build 0)  -->
<svg version="1.1" id="Слой_1" xmlns="http://www.w3.org/2000/svg" xmlns:xlink="http://www.w3.org/1999/xlink" x="0px" y="0px"
	 viewBox="0 0 65 65" style="enable-background:new 0 0 65 65;" xml:space="preserve">
<style type="text/css">
	.st0{fill:#01B06D;}
	.st1{fill:#0C0F14;}
	.st2{fill:#FFFFFF;stroke:#0C0F14;stroke-width:3;stroke-miterlimit:10;}
</style>
<path class="st1" d="M46.5,39.7c-2.8,0-5.3,1.2-7.1,3.4L26,35.6c0.3-0.9,0.5-1.9,0.5-2.9c0-1-0.2-1.9-0.5-2.9l13.4-7.5
	c1.7,2.2,4.3,3.4,7.1,3.4c5,0,9-4,9-9s-4-9-9-9s-9,4-9,9c0,1,0.2,2,0.5,2.9l-13.4,7.5c-1.7-2.2-4.3-3.4-7.1-3.4c-5,0-9,4-9,9
	s4.1,9,9,9c2.8,0,5.4-1.3,7.1-3.4l13.4,7.5c-0.3,0.9-0.5,1.9-0.5,2.9c0,5,4,9,9,9s9-4,9-9S51.5,39.7,46.5,39.7z M52.4,48.7
	c0,3.3-2.7,5.9-5.9,5.9s-5.9-2.7-5.9-5.9s2.7-5.9,5.9-5.9S52.4,45.4,52.4,48.7z M40.5,16.8c0-3.3,2.7-5.9,5.9-5.9s5.9,2.7,5.9,5.9
	s-2.7,5.9-5.9,5.9S40.5,20.1,40.5,16.8z M23.4,32.7c0,3.3-2.7,5.9-5.9,5.9s-5.9-2.7-5.9-5.9c0-3.3,2.7-5.9,5.9-5.9
	S23.4,29.5,23.4,32.7z"/>
</svg>
