<?xml version="1.0" encoding="utf-8"?>
<!-- Generator: Adobe Illustrator 22.0.1, SVG Export Plug-In . SVG Version: 6.00 Build 0)  -->
<svg version="1.1" id="Слой_1" xmlns="http://www.w3.org/2000/svg" xmlns:xlink="http://www.w3.org/1999/xlink" x="0px" y="0px"
	 viewBox="0 0 24.1 25.2" style="enable-background:new 0 0 24.1 25.2;" xml:space="preserve">
<style type="text/css">
	.st0{fill:#01B06D;}
	.st1{fill:#0C0F14;}
</style>
<path class="st1" d="M24.1,24.1l0-0.6c-0.1-3-1.4-5.9-3.5-8c-1.2-1.2-2.7-2.2-4.3-2.8c1.8-1.3,2.8-3.4,2.8-5.6c0-3.9-3.2-7-7-7
	S5,3.2,5,7c0,2.2,1.1,4.3,2.8,5.6c-1.6,0.6-3.1,1.5-4.3,2.8c-2.2,2.1-3.4,5-3.5,8L0,24c0,0,0,0.1,0,0.1c0,0.6,0.5,1.1,1.1,1.1
	c0.6,0,1.1-0.5,1.1-1.1c0,0,0,0,0-0.1l0-0.6c0.2-5.3,4.6-9.5,9.9-9.5s9.7,4.2,9.9,9.5l0,0.5c0,0,0,0.1,0,0.1c0,0.6,0.5,1.1,1.1,1.1
	C23.6,25.2,24.1,24.7,24.1,24.1C24.1,24.1,24.1,24.1,24.1,24.1L24.1,24.1z M12.1,11.9c-2.7,0-4.9-2.2-4.9-4.9s2.2-4.9,4.9-4.9
	C14.8,2.1,17,4.3,17,7S14.8,11.9,12.1,11.9z"/>
</svg>
