<?xml version="1.0" encoding="utf-8"?>
<!-- Generator: Adobe Illustrator 22.0.1, SVG Export Plug-In . SVG Version: 6.00 Build 0)  -->
<svg version="1.1" id="Слой_1" xmlns="http://www.w3.org/2000/svg" xmlns:xlink="http://www.w3.org/1999/xlink" x="0px" y="0px"
	 viewBox="0 0 30.6 19.5" style="enable-background:new 0 0 30.6 19.5;" xml:space="preserve">
<style type="text/css">
	.st0{fill:#01B06D;}
	.st1{fill:#0C0F14;}
</style>
<g>
	<g>
		<path d="M30.4,9.1C30.1,8.8,23.6,0,15.3,0S0.5,8.8,0.2,9.1c-0.3,0.4-0.3,0.8,0,1.2c0.3,0.4,6.8,9.1,15.1,9.1s14.8-8.8,15.1-9.1
			C30.6,10,30.6,9.5,30.4,9.1z M15.3,17.5c-6.1,0-11.4-5.8-13-7.7C3.9,7.8,9.1,2,15.3,2c6.1,0,11.4,5.8,13,7.7
			C26.7,11.6,21.4,17.5,15.3,17.5z"/>
	</g>
</g>
<g>
	<g>
		<path d="M15.3,3.7c-3.3,0-6,2.7-6,6s2.7,6,6,6s6-2.7,6-6S18.6,3.7,15.3,3.7z M15.3,13.8c-2.2,0-4-1.8-4-4s1.8-4,4-4s4,1.8,4,4
			S17.5,13.8,15.3,13.8z"/>
	</g>
</g>
</svg>
