<?xml version="1.0" encoding="utf-8"?>
<!-- Generator: Adobe Illustrator 22.0.1, SVG Export Plug-In . SVG Version: 6.00 Build 0)  -->
<svg version="1.1"
	 id="Слой_1" xmlns:cc="http://creativecommons.org/ns#" xmlns:dc="http://purl.org/dc/elements/1.1/" xmlns:rdf="http://www.w3.org/1999/02/22-rdf-syntax-ns#"
	 xmlns="http://www.w3.org/2000/svg" xmlns:xlink="http://www.w3.org/1999/xlink" x="0px" y="0px" viewBox="0 0 56.3 55"
	 style="enable-background:new 0 0 56.3 55;" xml:space="preserve">
<style type="text/css">
	.st0{fill:#FFFFFF;}
	.st1{fill:url(#SVGID_1_);}
	.st2{fill:url(#SVGID_2_);}
</style>
<path class="st0" d="M18.7,42.2l0.6,0.4c2.7,1.6,5.9,2.5,9,2.5h0c9.8,0,17.8-8,17.8-17.8c0-4.7-1.8-9.2-5.2-12.6
	c-3.4-3.4-7.8-5.2-12.6-5.2c-9.8,0-17.8,8-17.8,17.8c0,3.4,0.9,6.6,2.7,9.5l0.4,0.7L11.9,44L18.7,42.2z M6.8,49l3-11.1
	C8,34.7,7,31.1,7,27.3C7,15.5,16.6,5.9,28.4,5.9c5.7,0,11.1,2.2,15.1,6.3c4,4,6.3,9.4,6.3,15.1c0,11.8-9.6,21.4-21.4,21.4
	c0,0,0,0,0,0h0c-3.6,0-7.1-0.9-10.2-2.6L6.8,49z"/>
<linearGradient id="SVGID_1_" gradientUnits="userSpaceOnUse" x1="-29.4015" y1="155.3516" x2="-28.4015" y2="155.3516" gradientTransform="matrix(0 -41.6418 -41.6418 0 6497.3755 -1176.0276)">
	<stop  offset="0" style="stop-color:#20B038"/>
	<stop  offset="1" style="stop-color:#60D66A"/>
</linearGradient>
<path class="st1" d="M7.7,27.3c0,3.6,0.9,7.2,2.8,10.3L7.5,48.3l10.9-2.9c3,1.6,6.4,2.5,9.9,2.5h0c11.4,0,20.6-9.3,20.6-20.6
	c0-5.5-2.1-10.7-6-14.6c-3.9-3.9-9.1-6-14.6-6.1C17,6.7,7.7,15.9,7.7,27.3 M28.3,47.9L28.3,47.9L28.3,47.9
	C28.3,47.9,28.3,47.9,28.3,47.9"/>
<linearGradient id="SVGID_2_" gradientUnits="userSpaceOnUse" x1="-29.3183" y1="155.3741" x2="-28.3183" y2="155.3741" gradientTransform="matrix(0 -43.1345 -43.1345 0 6730.2383 -1215.5787)">
	<stop  offset="0" style="stop-color:#F9F9F9"/>
	<stop  offset="1" style="stop-color:#FFFFFF"/>
</linearGradient>
<path class="st2" d="M7,27.3c0,3.8,1,7.4,2.9,10.7l-3,11.1l11.3-3c3.1,1.7,6.6,2.6,10.2,2.6h0c11.8,0,21.4-9.6,21.4-21.4
	c0-5.7-2.2-11.1-6.3-15.1c-4-4-9.4-6.3-15.1-6.3C16.6,5.9,7,15.5,7,27.3 M13.7,37.4l-0.4-0.7c-1.8-2.8-2.7-6.1-2.7-9.5
	c0-9.8,8-17.8,17.8-17.8c4.7,0,9.2,1.9,12.6,5.2c3.4,3.4,5.2,7.8,5.2,12.6c0,9.8-8,17.8-17.8,17.8h0c-3.2,0-6.3-0.9-9-2.5l-0.6-0.4
	L11.9,44L13.7,37.4z M28.4,48.7L28.4,48.7L28.4,48.7C28.4,48.7,28.4,48.7,28.4,48.7"/>
<path class="st0" d="M23,18.4c-0.4-0.9-0.8-0.9-1.2-0.9c-0.3,0-0.7,0-1,0c-0.4,0-0.9,0.1-1.4,0.7c-0.5,0.5-1.9,1.8-1.9,4.5
	c0,2.6,1.9,5.2,2.2,5.5c0.3,0.4,3.7,5.9,9.1,8.1c4.5,1.8,5.4,1.4,6.4,1.3c1-0.1,3.2-1.3,3.6-2.5c0.4-1.2,0.4-2.3,0.3-2.5
	c-0.1-0.2-0.5-0.4-1-0.6c-0.5-0.3-3.2-1.6-3.7-1.7c-0.5-0.2-0.8-0.3-1.2,0.3c-0.4,0.5-1.4,1.7-1.7,2.1c-0.3,0.4-0.6,0.4-1.2,0.1
	c-0.5-0.3-2.3-0.8-4.3-2.7c-1.6-1.4-2.7-3.2-3-3.7c-0.3-0.5,0-0.8,0.2-1.1c0.2-0.2,0.5-0.6,0.8-0.9c0.3-0.3,0.4-0.5,0.5-0.9
	c0.2-0.4,0.1-0.7,0-0.9C24.5,22.1,23.5,19.4,23,18.4"/>
</svg>
