<?xml version="1.0" encoding="utf-8"?>
<!-- Generator: Adobe Illustrator 22.0.1, SVG Export Plug-In . SVG Version: 6.00 Build 0)  -->
<svg version="1.1" id="Слой_1" xmlns="http://www.w3.org/2000/svg" xmlns:xlink="http://www.w3.org/1999/xlink" x="0px" y="0px"
	 viewBox="0 0 16.8 10.9" style="enable-background:new 0 0 16.8 10.9;" xml:space="preserve">
<style type="text/css">
	.st0{fill:#0C0F14;}
</style>
<path class="st0" d="M14.4,0.5L9.6,6.1C9.5,6.2,9.4,6.4,9.2,6.5l-0.9,1L6.1,4.8l0,0L2.4,0.5C1.9-0.1,1-0.2,0.5,0.3
	c-0.6,0.5-0.6,1.3-0.1,1.9l7,8.2c0.4,0.4,0.9,0.6,1.4,0.4c0,0,0,0,0,0c0,0,0.1,0,0.1,0c0,0,0,0,0,0c0,0,0.1,0,0.1,0c0,0,0,0,0,0
	c0,0,0.1,0,0.1,0c0,0,0,0,0,0c0,0,0,0,0.1,0c0,0,0,0,0.1,0c0,0,0,0,0,0c0,0,0,0,0,0c0,0,0,0,0.1,0c0,0,0,0,0-0.1c0,0,0,0,0,0
	l7.1-8.2c0.5-0.6,0.4-1.4-0.1-1.9C15.8-0.2,14.9-0.1,14.4,0.5z"/>
</svg>
