<?xml version="1.0" encoding="utf-8"?>
<!-- Generator: Adobe Illustrator 22.0.1, SVG Export Plug-In . SVG Version: 6.00 Build 0)  -->
<svg version="1.1" id="Слой_1" xmlns="http://www.w3.org/2000/svg" xmlns:xlink="http://www.w3.org/1999/xlink" x="0px" y="0px"
	 viewBox="0 0 26.2 23.2" style="enable-background:new 0 0 26.2 23.2;" xml:space="preserve">
<style type="text/css">
	.st0{fill:#01B06D;}
	.st1{fill:#0C0F14;}
</style>
<g>
	<path class="st1" d="M1.7,3l23,0.2c0.8,0,1.5-0.7,1.5-1.5c0-0.8-0.7-1.5-1.5-1.5L1.8,0C0.9,0,0.2,0.7,0.2,1.5C0.2,2.3,0.9,3,1.7,3z
		"/>
	<path class="st1" d="M24.6,10.2L1.6,10c-0.8,0-1.5,0.7-1.5,1.5v0c0,0.8,0.7,1.5,1.5,1.5l23,0.2c0.8,0,1.5-0.7,1.5-1.5
		C26.1,10.9,25.5,10.2,24.6,10.2z"/>
	<path class="st1" d="M24.5,20.2L1.5,20C0.7,20,0,20.7,0,21.5C0,22.3,0.7,23,1.5,23l23,0.2c0.8,0,1.5-0.7,1.5-1.5
		C26,20.9,25.3,20.2,24.5,20.2z"/>
</g>
</svg>
