<?xml version="1.0" encoding="utf-8"?>
<!-- Generator: Adobe Illustrator 22.0.1, SVG Export Plug-In . SVG Version: 6.00 Build 0)  -->
<svg version="1.1" id="Слой_1" xmlns="http://www.w3.org/2000/svg" xmlns:xlink="http://www.w3.org/1999/xlink" x="0px" y="0px"
	 viewBox="0 0 293 293" style="enable-background:new 0 0 293 293;" xml:space="preserve">
<style type="text/css">
	.st0{fill:#0C0F14;}
</style>
<path class="st0" d="M279.9,24.9l-11.7-11.7c-17.6-17.6-46-17.6-63.6,0L26.4,191.4c-1.2,1.2-2.1,2.7-2.6,4.4L0.4,280.4
	c-1,3.5,0,7.2,2.6,9.7c2.5,2.5,6.3,3.5,9.7,2.6l84.6-23.4c1.7-0.5,3.2-1.3,4.4-2.6L279.9,88.5C297.4,70.9,297.4,42.5,279.9,24.9z
	 M24.4,268.7l14.4-52l37.6,37.6L24.4,268.7z M95.2,244.9l-47-47L194,52l47,47L95.2,244.9z M265.7,74.3l-10.6,10.6l-47-47l10.6-10.6
	c9.7-9.7,25.6-9.7,35.3,0L265.7,39C275.5,48.8,275.5,64.6,265.7,74.3z"/>
</svg>
