<?xml version="1.0" encoding="utf-8"?>
<!-- Generator: Adobe Illustrator 22.0.1, SVG Export Plug-In . SVG Version: 6.00 Build 0)  -->
<svg version="1.1" id="Слой_1" xmlns="http://www.w3.org/2000/svg" xmlns:xlink="http://www.w3.org/1999/xlink" x="0px" y="0px"
	 viewBox="0 0 26.9 21.2" style="enable-background:new 0 0 26.9 21.2;" xml:space="preserve">
<style type="text/css">
	.st0{fill:#01B06D;}
	.st1{fill:#0C0F14;}
</style>
<path d="M26.2,0.7C25.7,0.2,25.1,0,24.4,0H2.5C1.8,0,1.2,0.2,0.7,0.7C0.2,1.2,0,1.8,0,2.5v16.2c0,0.7,0.2,1.3,0.7,1.8
	c0.5,0.5,1.1,0.7,1.8,0.7h21.9c0.7,0,1.3-0.2,1.8-0.7c0.5-0.5,0.7-1.1,0.7-1.8V2.5C26.9,1.8,26.7,1.2,26.2,0.7z M24.6,2.1
	C24.6,2.2,24.6,2.2,24.6,2.1c0,0.1,0.1,0.2,0.1,0.2c0,0,0,0.1,0,0.1c0,0.1,0,0.2,0,0.2V3c0,0.6-0.2,1.2-0.7,1.9
	c-0.5,0.7-0.9,1.3-1.5,1.7c-1.8,1.4-3.8,3-6,4.7l0,0c0,0-0.1,0.1-0.3,0.2l-0.2,0.2c-0.3,0.3-0.5,0.4-0.7,0.6
	c-0.1,0.1-0.4,0.3-0.7,0.5c-0.3,0.2-0.5,0.3-0.7,0.4c-0.2,0.1-0.4,0.1-0.6,0.1h0c-0.2,0-0.4,0-0.6-0.1c-0.2-0.1-0.5-0.2-0.7-0.4
	c-0.3-0.2-0.5-0.3-0.7-0.5c-0.2-0.1-0.4-0.3-0.7-0.6c-0.3-0.2-0.5-0.4-0.5-0.4c-2.2-1.7-4.1-3.3-6-4.7C2.8,5.5,2.1,4.1,2.1,2.5
	c0-0.1,0-0.2,0.1-0.3v0c0.1-0.1,0.2-0.1,0.3-0.1h21.9C24.5,2.2,24.6,2.2,24.6,2.1z M2.1,7.5C2.4,7.8,2.7,8.1,3,8.3
	c2.7,2,4.8,3.7,6.3,5c0.5,0.4,0.9,0.8,1.2,1c0.3,0.2,0.8,0.5,1.3,0.7c0.6,0.3,1.1,0.4,1.6,0.4h0c0.5,0,1-0.1,1.6-0.4
	c0.5-0.2,1-0.5,1.3-0.7c0.4-0.3,0.8-0.6,1.2-1c1.6-1.3,3.7-3,6.3-5c0.3-0.2,0.6-0.5,0.9-0.8v11.1h0v0.1c0,0.1,0,0.2-0.1,0.3
	c-0.1,0.1-0.2,0.1-0.3,0.1H2.5c-0.1,0-0.2,0-0.3-0.1c-0.1-0.1-0.1-0.2-0.1-0.3V7.5z"/>
</svg>
