<?xml version="1.0" encoding="utf-8"?>
<!-- Generator: Adobe Illustrator 22.0.1, SVG Export Plug-In . SVG Version: 6.00 Build 0)  -->
<svg version="1.1" id="Слой_1" xmlns="http://www.w3.org/2000/svg" xmlns:xlink="http://www.w3.org/1999/xlink" x="0px" y="0px"
	 viewBox="0 0 52 56.1" style="enable-background:new 0 0 52 56.1;" xml:space="preserve">
<style type="text/css">
	.st0{fill:#01B06D;}
	.st1{fill:#0C0F14;}
</style>
<g>
	<path class="st1" d="M50.5,45.3H24.7c-0.1,0-0.1,0-0.2,0C23.7,41.1,20,38,15.6,38c-4.4,0-8.1,3.1-8.9,7.3H1.5C0.7,45.3,0,46,0,46.8
		c0,0.8,0.7,1.5,1.5,1.5h5.2c0.6,4.4,4.4,7.8,8.9,7.8c4.6,0,8.3-3.4,9-7.8c0,0,0.1,0,0.1,0h25.8c0.8,0,1.5-0.7,1.5-1.5
		C52,46,51.3,45.3,50.5,45.3z M15.6,53.1c-3.3,0-6-2.7-6-6s2.7-6,6-6s6,2.7,6,6S19,53.1,15.6,53.1z"/>
	<path class="st1" d="M50.5,26.3H45c-0.8-4.1-4.5-7.3-8.9-7.3c-4.4,0-8.1,3.1-8.9,7.3H1.5C0.7,26.3,0,27,0,27.8
		c0,0.8,0.7,1.5,1.5,1.5h25.7c0.6,4.4,4.4,7.8,8.9,7.8c4.6,0,8.3-3.4,8.9-7.8h5.4c0.8,0,1.5-0.7,1.5-1.5C52,27,51.3,26.3,50.5,26.3z
		 M36.1,34.1c-3.3,0-6-2.7-6-6s2.7-6,6-6s6,2.7,6,6S39.5,34.1,36.1,34.1z"/>
	<path class="st1" d="M1.5,10.3h5.2c0.6,4.4,4.4,7.8,8.9,7.8c4.6,0,8.3-3.4,8.9-7.8h25.9c0.8,0,1.5-0.7,1.5-1.5
		c0-0.8-0.7-1.5-1.5-1.5h-26C23.7,3.1,20,0,15.6,0c-4.4,0-8.1,3.1-8.9,7.3H1.5C0.7,7.3,0,8,0,8.8C0,9.6,0.7,10.3,1.5,10.3z M15.6,3
		c3.3,0,6,2.7,6,6s-2.7,6-6,6s-6-2.7-6-6S12.3,3,15.6,3z"/>
</g>
</svg>
