<?xml version="1.0" encoding="utf-8"?>
<!-- Generator: Adobe Illustrator 22.0.1, SVG Export Plug-In . SVG Version: 6.00 Build 0)  -->
<svg version="1.1" id="Слой_1" xmlns="http://www.w3.org/2000/svg" xmlns:xlink="http://www.w3.org/1999/xlink" x="0px" y="0px"
	 viewBox="0 0 47.1 49.9" style="enable-background:new 0 0 47.1 49.9;" xml:space="preserve">
<style type="text/css">
	.st0{fill:#01B06D;}
	.st1{fill:#0C0F14;}
</style>
<path class="st1" d="M38.1,31.9c-2.8,0-5.3,1.2-7.1,3.4l-13.4-7.5c0.3-0.9,0.5-1.9,0.5-2.9c0-1-0.2-1.9-0.5-2.9L31,14.6
	c1.7,2.2,4.3,3.4,7.1,3.4c5,0,9-4,9-9s-4-9-9-9s-9,4-9,9c0,1,0.2,2,0.5,2.9l-13.4,7.5c-1.7-2.2-4.3-3.4-7.1-3.4c-5,0-9,4-9,9
	s4.1,9,9,9c2.8,0,5.4-1.3,7.1-3.4L29.5,38C29.2,39,29,39.9,29,40.9c0,5,4,9,9,9s9-4,9-9S43,31.9,38.1,31.9z M44,40.9
	c0,3.3-2.7,5.9-5.9,5.9c-3.3,0-5.9-2.7-5.9-5.9c0-3.3,2.7-5.9,5.9-5.9C41.3,35,44,37.6,44,40.9z M32.1,9c0-3.3,2.7-5.9,5.9-5.9
	C41.3,3.1,44,5.8,44,9S41.3,15,38.1,15C34.8,15,32.1,12.3,32.1,9z M15,25c0,3.3-2.7,5.9-5.9,5.9S3.1,28.2,3.1,25S5.8,19,9,19
	S15,21.7,15,25z"/>
</svg>
