<?xml version="1.0" encoding="utf-8"?>
<!-- Generator: Adobe Illustrator 22.0.1, SVG Export Plug-In . SVG Version: 6.00 Build 0)  -->
<svg version="1.1"
	 id="Слой_1" xmlns:cc="http://creativecommons.org/ns#" xmlns:dc="http://purl.org/dc/elements/1.1/" xmlns:rdf="http://www.w3.org/1999/02/22-rdf-syntax-ns#"
	 xmlns="http://www.w3.org/2000/svg" xmlns:xlink="http://www.w3.org/1999/xlink" x="0px" y="0px" viewBox="0 0 56.3 55"
	 style="enable-background:new 0 0 56.3 55;" xml:space="preserve">
<style type="text/css">
	.st0{fill:url(#SVGID_1_);}
	.st1{fill:#FFFFFF;}
</style>
<linearGradient id="SVGID_1_" gradientUnits="userSpaceOnUse" x1="-130.8028" y1="3.0245" x2="-129.8028" y2="3.0245" gradientTransform="matrix(0 -41.6418 41.6418 0 -97.7453 -5398.5659)">
	<stop  offset="0" style="stop-color:#20B038"/>
	<stop  offset="1" style="stop-color:#60D66A"/>
</linearGradient>
<path class="st0" d="M7.7,27.3c0,3.6,0.9,7.2,2.8,10.3l-3,10.7l10.9-2.9c3,1.6,6.4,2.5,9.9,2.5l0,0c11.4,0,20.6-9.3,20.6-20.6
	c0-5.5-2.1-10.7-6-14.6s-9.1-6-14.6-6.1C17,6.7,7.7,15.9,7.7,27.3 M28.3,47.9L28.3,47.9L28.3,47.9L28.3,47.9"/>
<path class="st1" d="M23,18.4c-0.4-0.9-0.8-0.9-1.2-0.9c-0.3,0-0.7,0-1,0c-0.4,0-0.9,0.1-1.4,0.7c-0.5,0.5-1.9,1.8-1.9,4.5
	c0,2.6,1.9,5.2,2.2,5.5c0.3,0.4,3.7,5.9,9.1,8.1c4.5,1.8,5.4,1.4,6.4,1.3c1-0.1,3.2-1.3,3.6-2.5c0.4-1.2,0.4-2.3,0.3-2.5
	c-0.1-0.2-0.5-0.4-1-0.6c-0.5-0.3-3.2-1.6-3.7-1.7c-0.5-0.2-0.8-0.3-1.2,0.3c-0.4,0.5-1.4,1.7-1.7,2.1c-0.3,0.4-0.6,0.4-1.2,0.1
	C29.8,32.5,28,32,26,30.1c-1.6-1.4-2.7-3.2-3-3.7s0-0.8,0.2-1.1c0.2-0.2,0.5-0.6,0.8-0.9s0.4-0.5,0.5-0.9c0.2-0.4,0.1-0.7,0-0.9
	C24.5,22.1,23.5,19.4,23,18.4"/>
</svg>
