<svg id="search_info" xmlns="http://www.w3.org/2000/svg" viewBox="0 0 974.04 433.39"><defs><style>.cls-1{fill:#01b06d;}.cls-2{fill:#ccefe2;}.cls-3{fill:#ffddd9;}.cls-4{fill:#1d2025;}.cls-5{fill:#ff978a;}.cls-6{fill:#a4b5be;}.cls-7{fill:#cdd9dd;}.cls-8{fill:#fff;}.cls-9{fill:#ffb1a6;}.cls-10{fill:#625e7a;}</style></defs><title>404</title><path class="cls-1" d="M333.86,443.63v76.84H252.8l-.52-76.84h-150V388.36L203.33,155.73l70.53,26.32L188.07,381.52h65.26l8.95-84.21h71.58v84.21h40v62.11Z" transform="translate(-102.28 -94.76)"/><path class="cls-1" d="M1036.32,444.12V521h-81l-.53-76.85h-150V388.86l101-232.63,70.53,26.31L890.53,382h65.26l9-84.21h71.58V382h40v62.1Z" transform="translate(-102.28 -94.76)"/><path class="cls-1" d="M771.52,336c-10.51-53.17-64-106.71-121.58-100.41,0,0-7.51,18.56-32.92,27.19,0,0-28,10.71-45-9.61,0,0,2.17-9.18,2.35-12-44.23,7.26-67.5,32.66-92.92,56.19l5.36,17.13-64.52-6.46S381.55,467.39,535.46,495.25c44.37,28.82,91,46.76,141,19.18C738.07,480.4,785.78,408.05,771.52,336Z" transform="translate(-102.28 -94.76)"/><path class="cls-2" d="M649.94,235.54s-.18.45-.57,1.22c1.14-.07,2.27-.14,3.41-.16,1.79,0,3.59.06,5.38.11,0,.41,0,.81,0,1.21,0,1.7.09,3.4.14,5.1,0,.63.14,1.25.14,1.87,0,2.41.07,4.82,0,7.22h-.29c-2.51-.12-5-.29-7.52-.42a38.41,38.41,0,0,0-6.61.16L643,252c0-2,0-4.06.06-6.09-.74.85-1.57,1.72-2.46,2.6,0,1.23,0,2.45,0,3.67l-.46,0c-1.25,0-2.51.06-3.76.08a57.39,57.39,0,0,1-4.71,3.43h0c1.46,0,2.93.14,4.39.1,1.22,0,2.45-.14,3.67-.19,0,1.15.09,2.3.13,3.46a3.3,3.3,0,0,1-.05.7,13.54,13.54,0,0,0,.07,5.23c.07.34.13.68.19,1a3.17,3.17,0,0,1,0,.82,1.22,1.22,0,0,0,0,.26l-2.49.08c-2.65.06-5.3.12-8,.2-1.54.05-3.08.18-4.61.2,0-.09,0-.18,0-.27a15.09,15.09,0,0,0,.08-2.93c-.06-.77-.12-1.55-.11-2.33l.06-2.57c-1,.49-2,1-3.12,1.43,0,1.92.07,3.84.11,5.76,0,.26,0,.52,0,.78l-.93-.05-2.22.21a16.8,16.8,0,0,0-1.74-.17c-2.29-.05-4.58,0-6.88,0h-.12c0-.42,0-.86.08-1.35s-.09-.9-.14-1.45c-.91.17-1.89.34-2.92.48.06.31.11.62.16.93a2.79,2.79,0,0,1,0,.82,2.49,2.49,0,0,0-.07.53c-2.47,0-4.95-.07-7.43-.08-2.15,0-4.29.05-6.44.06h-1.16v0a15.53,15.53,0,0,0,.09-2.46c-1-.19-2.08-.43-3.13-.72l.06,2.54c0,.17,0,.34,0,.5-3.86-.35-7.73-.2-11.59-.19-1.07,0-2.13,0-3.2.05,0-.3,0-.62.06-1-.06-.58-.13-1.37-.22-2.22a14.64,14.64,0,0,0,.17-1.74c0-2.13,0-4.27,0-6.4a34.58,34.58,0,0,1-2.38-2.56s2.17-9.18,2.35-12c-.77.12-1.51.27-2.26.4,0,1.56,0,3.12,0,4.68,0,2,0,4,0,6l-.45,0c-3.14.09-6.28.12-9.42.19l-5.38.15c0-.25.05-.5.06-.75,0-.78,0-1.55,0-2.33l.06-4.26c-.9.28-1.8.56-2.68.86,0,2.18.06,4.37,0,6.55l-.43,0a15,15,0,0,0-2.92-.08,22.71,22.71,0,0,1-2.33.11c-2.12,0-4.23-.08-6.35-.14l-.51,0c0-.49,0-1,0-1.45-.82.37-1.62.76-2.42,1.16v.08h-.15c-1.67.82-3.3,1.66-4.9,2.54,1.41,0,2.82,0,4.23,0a6.08,6.08,0,0,0,0,.61c0,1.21.1,2.43.14,3.65a3.31,3.31,0,0,1-.06.7,13.54,13.54,0,0,0,.08,5.23q.11.51.18,1a2.78,2.78,0,0,1,0,.82,2.46,2.46,0,0,0-.06.53c-2.48,0-4.95-.07-7.43-.08-2.15,0-4.29.05-6.44.06h-1.16v0a15.09,15.09,0,0,0,.08-2.93,22.58,22.58,0,0,1-.11-2.33c0-.28,0-.56,0-.84-1,.69-2.05,1.39-3.05,2.1,0,1.12.05,2.24.07,3.36,0,.17,0,.34,0,.5-1.67-.15-3.35-.23-5-.24-1.14.87-2.27,1.76-3.39,2.65,1.17-.07,2.34-.15,3.51-.17,1.65,0,3.29.05,4.94.1,0,.4,0,.79,0,1.19,0,1.18-.12,2.37-.15,3.56,0,.81,0,1.62,0,2.42,0,1.46-.14,2.93-.1,4.38,0,1.28.15,2.56.2,3.84-2.34-.12-4.68-.28-7-.4a38.52,38.52,0,0,0-6.62.16l-.8.09c0-.74-.05-1.48-.07-2.22-.06-2.57-.12-5.14-.2-7.72-.82.71-1.64,1.42-2.45,2.14,0,.43,0,.87,0,1.3a62.41,62.41,0,0,1,.1,6.7c-.19,0-.37,0-.56,0-2.88.09-5.76.12-8.64.18q-1.76,1.62-3.49,3.26c.42,0,.84.05,1.27.06.8,0,1.61,0,2.42,0,1.46,0,2.92.14,4.38.11s3.07-.21,4.6-.23c0,1.21,0,2.43,0,3.65.05,1.93.26,3.86.29,5.79,0,1.66,0,3.33-.1,5l-3.32.1c-2.65.06-5.31.12-8,.21-1.38,0-2.75.14-4.13.18a.33.33,0,0,1,0-.1c.12-2.51.29-5,.42-7.52a41.33,41.33,0,0,0,0-5.22l-3.49,3.27c.06,1.38.11,2.76.14,4.15,0,1-.11,2-.11,2.95,0,.79,0,1.59.05,2.38L484,303.1l-.69.07.88,2.82a1.92,1.92,0,0,1,.59,0,2.12,2.12,0,0,0,.65.07v.35c0,1.29.07,2.58.11,3.88l1.28,4.08-1.11-.11c0,2.27.07,4.54,0,6.81l-.43,0a14.32,14.32,0,0,0-2.93-.08,22.5,22.5,0,0,1-2.32.1q-3.18,0-6.35-.14a4.38,4.38,0,0,1-.51,0c0-2.57.07-5.14.09-7.71V313l-2.45-.24c0,.62,0,1.25,0,1.87q0,3,0,6.08c-.34,0-.68-.06-1-.07-.78,0-1.56,0-2.34,0l-6.27-.09-5.28,0-.32,0c0-.1,0-.2,0-.29,0-.78,0-1.56,0-2.34,0-2.09.07-4.18.09-6.27v-.39l-2.86-.29c0,.18,0,.36,0,.54,0,.63.14,1.25.14,1.88,0,2.4.07,4.81,0,7.22h-.29c-2.51-.13-5-.3-7.52-.43a38.41,38.41,0,0,0-6.61.16c-.36.05-.71.08-1.06.11q0-3.6.08-7.22c0-1.26,0-2.53,0-3.79l-2.38-.24c0,1.82-.05,3.63-.06,5.45,0,2,0,4,0,6l-.46,0c-3.14.09-6.27.12-9.41.19-1.78,0-3.55.1-5.33.15-2.1,14-4.15,37.53,0,63.06,0-1.3,0-2.6.05-3.9q0-2.64,0-5.28c0-.18,0-.36,0-.54.29,0,.59,0,.89,0,1.22-.08,2.43-.19,3.65-.25,1.07-.06,2.15,0,3.21-.11,2.51-.23,5-.1,7.52-.09,0,.89-.07,1.78-.08,2.67,0,2.2-.06,4.41-.08,6.62,0,2,0,4,0,6l-.46,0c-3.14.09-6.27.11-9.41.18l-4.31.13c.21,1,.42,2.06.65,3.09.73,0,1.47.08,2.2.1s1.62,0,2.42,0c1.46,0,2.93.15,4.39.11,1.22,0,2.45-.14,3.67-.2,0,1.16.09,2.31.13,3.47a2.76,2.76,0,0,1-.06.7,13.49,13.49,0,0,0,.08,5.22c.07.34.13.69.19,1a3.19,3.19,0,0,1,0,.82,1.15,1.15,0,0,0,0,.26l-2.49.07c-2.47.07-4.94.12-7.42.2.26.83.51,1.66.78,2.49.79,0,1.58,0,2.36-.08a65.59,65.59,0,0,1,7-.1c0,.12,0,.24,0,.36a7.5,7.5,0,0,0,0,1.34c.07,1.22.18,2.44.25,3.65s0,2.16.1,3.22a62.37,62.37,0,0,1,.1,6.7c-.19,0-.37,0-.56,0l-3.31.07c.53,1.14,1.07,2.28,1.64,3.41.73,0,1.47-.09,2.21-.1,0,1.22,0,2.44,0,3.65,0,.26,0,.51,0,.77q1.31,2.38,2.73,4.73c0-2.13,0-4.27-.05-6.4,0-.92,0-1.83-.05-2.75,1.18-.09,2.35-.23,3.53-.29,2-.09,4-.16,6-.19,1,0,2,.11,2.95.1l1.9,0a2.43,2.43,0,0,0,0,.27c.09,1.21.23,2.43.29,3.65.09,2,.16,4,.2,6,0,1-.11,2-.11,3,0,.7,0,1.41,0,2.11a105.57,105.57,0,0,0-11.39-.24c.6.89,1.23,1.77,1.87,2.64,1.39-.08,2.79-.18,4.19-.2,1.79,0,3.59.06,5.38.11,0,.41,0,.81,0,1.21,0,1.7.09,3.4.14,5.1,0,.63.14,1.25.14,1.88,0,1.29,0,2.59,0,3.89.84.89,1.71,1.76,2.59,2.63,0-.66,0-1.33,0-2,0-2.09.07-4.18.09-6.27,0-1.76,0-3.52,0-5.29,0-.29,0-.59,0-.89v-.17c.62,0,1.25,0,1.88.06,2.2,0,4.41.06,6.61.08l6.69,0,.11.12c0,.82-.07,1.63-.08,2.45,0,2.21-.06,4.41-.08,6.62,0,2,0,4.05,0,6.08-.34,0-.68-.06-1-.07-.78,0-1.56,0-2.34,0l-6.27-.09-5,0c1,1,2.06,2,3.13,2.93l1.71-.05c.62,0,1.25-.13,1.87-.13,2.35,0,4.7-.07,7.05,0a4.1,4.1,0,0,0,0,.61c0,1.21.09,2.43.13,3.65a3.44,3.44,0,0,1,0,.71,13.33,13.33,0,0,0-.15,3.73c1.08.77,2.16,1.54,3.28,2.29-.06-.55-.12-1.22-.19-2a14.61,14.61,0,0,0,.16-1.74c.06-2.29,0-4.59,0-6.88v-.09c1.13.12,2.26.22,3.39.35a14.4,14.4,0,0,0,1.58.25c2.17,0,4.35-.08,6.53-.12l.73,0c-.1,1-.19,2-.3,3a14.23,14.23,0,0,0-.25,1.57c0,2.18.08,4.36.12,6.54,0,.26,0,.52,0,.78l-.93-.05c-.58.06-1.37.12-2.21.21a17.07,17.07,0,0,0-1.74-.17c-1.5,0-3,0-4.49,0,1.77,1.13,3.57,2.23,5.44,3.31a14.55,14.55,0,0,0,1.94-.26l1-.18a3.17,3.17,0,0,1,.82,0,1.36,1.36,0,0,0,.2,0v.36c0,.72-.05,1.44-.09,2.16,1.06.56,2.13,1.11,3.22,1.65q-.08-2.19-.12-4.38h0a7.5,7.5,0,0,0,1.34,0c1.22-.07,2.43-.19,3.65-.25,1.07,0,2.15,0,3.22-.1a68.12,68.12,0,0,1,7-.1c0,.12,0,.25,0,.37a7.5,7.5,0,0,0,0,1.34c.07,1.21.19,2.43.25,3.65.05,1.07,0,2.15.1,3.21s.12,2,.13,3l2.46.86c-.06-2.5-.11-5-.19-7.5-.05-1.55-.19-3.09-.2-4.64v-.25c1.41,0,2.82.05,4.23,0,1.93-.05,3.86-.26,5.79-.29,1.65,0,3.29.05,4.94.1,0,.4,0,.79,0,1.19,0,1.18-.12,2.37-.15,3.56,0,.81,0,1.62,0,2.42,0,1.46-.14,2.93-.1,4.38,0,1.28.15,2.56.2,3.84-2.34-.12-4.68-.28-7-.4h-.06c4.05,1.22,8.29,2.33,12.68,3.33l3.26-.1c.63,0,1.25-.13,1.87-.13,2.66,0,5.31-.08,8,0,0,1.46,0,2.92,0,4.38a1.27,1.27,0,0,1,0,.2l2.74,1.7,0-2.81c0-1.05,0-2.1,0-3.15l3,.31a12.35,12.35,0,0,0,1.58.25c2.18,0,4.36-.08,6.53-.12h.35c.09,1.16.22,2.32.28,3.48.09,2,.16,4,.19,6,0,1-.11,2-.1,2.95v.05l3.09,1.71c.12-2.3.27-4.6.39-6.91a38.55,38.55,0,0,0-.16-6.62c0-.24,0-.48-.07-.72h.06c1.19,0,2.38.12,3.57.15.8,0,1.61,0,2.42,0,1.46,0,2.92.14,4.38.11s3.07-.21,4.61-.23c0,1.21,0,2.43,0,3.65,0,1.93.25,3.86.28,5.79,0,1.66,0,3.33-.1,5l-3.32.1c-2.65.07-5.3.12-8,.21-1,0-1.91.08-2.87.13,1.5.8,3,1.58,4.49,2.34.69,0,1.37,0,2.05-.08,2.51-.23,5-.11,7.52-.09,0,.89-.07,1.78-.09,2.67,0,.67,0,1.34,0,2q1.2.54,2.4,1c0-1.43,0-2.87,0-4.3,0-.48,0-.95,0-1.42,1.33,0,2.67,0,4,0,1.93-.05,3.86-.26,5.79-.29s3.58.06,5.38.12c0,.4,0,.8,0,1.21,0,1.7.08,3.4.14,5.1,0,.62.14,1.24.13,1.87,0,1.16,0,2.31,0,3.47l2.6.78.09-6c0-1.76,0-3.52,0-5.28,0-.3,0-.6,0-.9v-.17l1.87.06c2.21,0,4.41.06,6.62.08l6.69,0,.1.12c0,.82-.06,1.64-.08,2.46,0,2.2-.06,4.41-.07,6.61,0,2,0,4.06,0,6.08-.33,0-.67-.06-1-.07-.55,0-1.1,0-1.65,0a103.22,103.22,0,0,0,42.13-.53c-1.07,0-2.14.09-3.2.22L643,526q0-3.62.08-7.23c0-2.14,0-4.29-.06-6.43,0-.48,0-.95,0-1.42,1.34,0,2.67,0,4,0,1.93-.05,3.86-.26,5.79-.29s3.59.06,5.38.12c0,.4,0,.8,0,1.21,0,1.7.09,3.4.14,5.1,0,.62.14,1.24.14,1.87,0,1.17,0,2.35,0,3.53.88-.31,1.76-.64,2.63-1,0-1.43,0-2.86.06-4.3,0-1.76,0-3.52,0-5.28,0-.3,0-.6,0-.9a.91.91,0,0,1,0-.17c.63,0,1.25.05,1.88.06,2.2,0,4.41.06,6.61.08l6.69,0,.11.12c0,.82-.07,1.64-.08,2.46,0,.28,0,.57,0,.86l.06,0,2.29-1.29c0-.26,0-.52,0-.78v-.49h.19c.71,0,1.43-.05,2.14-.08q2.52-1.49,5-3.06c-.15,0-.31,0-.46,0-2.25-.06-4.5,0-6.74,0a117.55,117.55,0,0,0,.23-12c0-1.05,0-2.1-.05-3.15l3,.31a12.35,12.35,0,0,0,1.58.25c2.17,0,4.35-.08,6.53-.12h.34c.09,1.16.23,2.32.28,3.48q.15,3,.2,6c0,.72,0,1.45-.08,2.18,1.12-.76,2.23-1.53,3.34-2.31l.12-2.07a38.55,38.55,0,0,0-.16-6.62c0-.24-.05-.48-.08-.72h.07c1.19,0,2.38.12,3.57.15.8,0,1.61,0,2.42,0,1.46,0,2.92.14,4.38.11.59,0,1.17-.05,1.76-.09q2.75-2.26,5.4-4.63c0-.45,0-.9,0-1.35-.06-2.65-.12-5.3-.2-7.95-.05-1.55-.19-3.09-.2-4.64v-.25c1.41,0,2.82.05,4.23,0,1.93-.05,3.86-.26,5.79-.29,1.65,0,3.3.05,4.94.1v.13q1.54-1.67,3-3.37a14.9,14.9,0,0,0,0-1.89,22.52,22.52,0,0,1-.11-2.32q0-3.18.14-6.36c0-.2,0-.4.05-.6h.62l5.1-.15c.63,0,1.25-.13,1.87-.13h1.74c.66-.87,1.31-1.75,2-2.63l-5.43-.08-5.29,0h-.32a2.64,2.64,0,0,0,0-.29c0-.77,0-1.55,0-2.33,0-2.09.06-4.18.09-6.27,0-1.76,0-3.52,0-5.29,0-.29,0-.59,0-.89,0-.06,0-.11,0-.17.63,0,1.25,0,1.88.06,2.21,0,4.41.06,6.62.08l6.69,0,.1.12c0,.82-.06,1.63-.08,2.45,0,2.21-.06,4.41-.08,6.62v0q1.26-1.85,2.46-3.72c0-1.39,0-2.77,0-4.16,0-.16,0-.32,0-.49h.2c.93,0,1.86-.07,2.79-.11.62-1,1.23-2.06,1.82-3.09l-4.67,0a112.09,112.09,0,0,0,.23-12c0-1.05,0-2.1-.05-3.15l3,.31a14.79,14.79,0,0,0,1.58.25c2.18,0,4.36-.08,6.54-.12H759c0,.38.06.77.1,1.15q1.7-3.62,3.21-7.32-.06-3.25-.13-6.51c0-1.86-.1-3.72-.15-5.58h0a8.56,8.56,0,0,0,1.34,0c1.14-.07,2.29-.17,3.44-.24.27-.84.53-1.69.79-2.54l-1,0c-1.54.05-3.08.18-4.62.2,0-.09,0-.19,0-.28a15.07,15.07,0,0,0,.08-2.93c-.06-.77-.12-1.54-.11-2.32,0-2.12.08-4.23.14-6.35,0,0,0-.11,0-.16h.61c1.19,0,2.38.11,3.57.15.81,0,1.61,0,2.42,0l2,.07c.25-1.14.49-2.3.71-3.45l-3.65.06c-1.8.05-3.59.11-5.39.15,0-.24,0-.49.06-.74,0-.78,0-1.56,0-2.33l.09-6.28c0-1.76,0-3.52,0-5.28,0-.18,0-.36,0-.54.3,0,.6,0,.9,0,1.21-.08,2.43-.19,3.65-.25s2.15,0,3.21-.11,2.2-.12,3.29-.12c.07-.82.13-1.64.19-2.46-2.38.06-4.77.11-7.15.19-1.38,0-2.76.14-4.14.18v-.1c.12-2.5.29-5,.42-7.51a38.52,38.52,0,0,0-.16-6.62c0-.24-.05-.48-.07-.72h.06c1.19,0,2.38.12,3.57.16.81,0,1.61,0,2.42,0,1.46,0,2.92.15,4.38.11l.9,0c0-1.17-.09-2.34-.17-3.5l-6.07.11c-1.78,0-3.55.1-5.33.15,0-.06,0-.13,0-.19-.09-3.13-.12-6.27-.19-9.41,0-1.86-.1-3.72-.15-5.59h0a7.5,7.5,0,0,0,1.34,0c1.21-.07,2.43-.18,3.65-.24s2.15,0,3.21-.11c.56,0,1.12-.07,1.68-.09-.13-.75-.26-1.49-.41-2.23a1.42,1.42,0,0,0,0-.2l-4.9.13c-1.54.05-3.08.18-4.62.2,0-.1,0-.19,0-.28a15.07,15.07,0,0,0,.08-2.93c-.06-.77-.12-1.55-.11-2.32q0-3.18.14-6.35c0-.06,0-.11,0-.16h.61c1.19,0,2.38.12,3.57.15.75,0,1.5,0,2.24,0-.35-1.11-.71-2.21-1.09-3.31l-5.08.14c0-.25,0-.5.06-.74,0-.78,0-1.56,0-2.34l.09-6.27c0-.95,0-1.9,0-2.86q-1.46-3.09-3.09-6.14c0,.17,0,.34,0,.51l-1.36-.08-2.22.21a14.61,14.61,0,0,0-1.74-.16c-2.24-.06-4.49,0-6.74,0a112.09,112.09,0,0,0,.23-12c0-1,0-2.1-.05-3.15l3,.31h0c-.7-1-1.41-2-2.13-2.95l-.73,0-.22,0c0-.43,0-.85,0-1.28-.83-1.09-1.67-2.16-2.52-3.23,0,1.43,0,2.86,0,4.29-.37,0-.74-.07-1.11-.08-.78,0-1.55,0-2.33,0l-6.27-.08-5.29,0h-.3c-.09-3-.12-6.09-.19-9.14,0-2-.12-4.08-.16-6.11.77,0,1.55.06,2.32.07l3.47,0c-.81-.81-1.62-1.61-2.45-2.4l-2.26,0h-1.16v0a15.09,15.09,0,0,0,.08-2.93.86.86,0,0,1,0-.16c-1-.93-2.09-1.84-3.16-2.74,0,1.73.07,3.46.1,5.19,0,.17,0,.34,0,.5-3.86-.35-7.73-.2-11.59-.19-1.07,0-2.14,0-3.2.05,0-.3,0-.62.05-1-.06-.58-.12-1.37-.21-2.22a17.07,17.07,0,0,0,.17-1.74c.05-2.17,0-4.35,0-6.52h.26c1.22-.09,2.44-.24,3.66-.29.87,0,1.74-.06,2.61-.09q-2.46-1.76-5-3.37l-.45,0-1.06.11c0-.36,0-.73,0-1.09-.8-.5-1.6-1-2.41-1.46,0,.91,0,1.82,0,2.73l-.46,0c-3.13.09-6.27.12-9.41.19l-5.38.15c0-.25,0-.5,0-.75,0-.78,0-1.55,0-2.33,0-2.09.06-4.18.08-6.27,0-.4,0-.8,0-1.2-1-.39-1.94-.76-2.91-1.11,0,.72,0,1.45.06,2.17s.13,1.25.13,1.87c0,2.57.08,5.13,0,7.69l-.43,0a15.07,15.07,0,0,0-2.93-.08,22.52,22.52,0,0,1-2.32.11q-3.18,0-6.35-.14l-.51,0c0-2.57.07-5.14.09-7.71,0-2.15,0-4.29-.06-6.44v-.49h.19l2-.08A88.48,88.48,0,0,0,649.94,235.54ZM758.84,306a2,2,0,0,0,.64.07c0,.12,0,.23,0,.35,0,1.7.08,3.4.14,5.09,0,.63.13,1.25.13,1.88,0,2.56.08,5.12,0,7.69l-.43,0a14.24,14.24,0,0,0-2.92-.08,22.7,22.7,0,0,1-2.33.1q-3.16,0-6.35-.14a4.38,4.38,0,0,1-.51,0c0-2.57.08-5.14.09-7.71,0-2.14,0-4.29,0-6.44,0-.16,0-.32,0-.48h.2c1.21,0,2.43-.09,3.65-.14a4.14,4.14,0,0,1,.7.06,13.54,13.54,0,0,0,5.23-.07l1-.19A3.17,3.17,0,0,1,758.84,306ZM726.2,425.23c.09,1.21.24,2.43.29,3.65.1,2,.17,4,.2,6,0,1-.11,2-.1,3,0,.7,0,1.41,0,2.11a112.28,112.28,0,0,0-12-.23c-1,0-2,0-2.93.05.36-3.88.22-7.76.2-11.64,0-.92,0-1.83,0-2.75,1.18-.09,2.36-.23,3.54-.29,2-.09,4-.16,6-.19,1,0,2,.11,3,.1l1.89,0A2.43,2.43,0,0,0,726.2,425.23Zm.5,18.23c0,1.7.08,3.4.14,5.1,0,.63.13,1.25.13,1.88,0,2.4.07,4.81,0,7.21a2.8,2.8,0,0,1-.29,0c-2.5-.12-5-.29-7.51-.42a38.52,38.52,0,0,0-6.62.16l-1.06.11c0-2.41.07-4.81.08-7.22,0-2.15,0-4.29-.06-6.44,0-.47,0-.94,0-1.42,1.34,0,2.68,0,4,0,1.93-.06,3.86-.26,5.79-.29s3.59.06,5.38.11Zm-89.2,65c-2.65.07-5.3.12-8,.21-1.38,0-2.76.14-4.14.18v-.1c.12-2.51.3-5,.42-7.52a36.63,36.63,0,0,0-.16-6.62c0-.24,0-.48-.07-.72h.07c1.19,0,2.37.12,3.56.15.81,0,1.62,0,2.42,0,1.46,0,2.93.14,4.39.11s3.06-.21,4.6-.23c0,1.21,0,2.43,0,3.65.05,1.93.25,3.86.29,5.79,0,1.66,0,3.33-.11,5ZM503.07,457.71c-3.13.09-6.27.12-9.41.19l-5.38.15c0-.25,0-.5.05-.75,0-.77,0-1.55,0-2.33,0-2.09.06-4.18.08-6.27,0-1.76,0-3.52,0-5.29,0-.17,0-.35,0-.53.3,0,.6,0,.89,0,1.22-.08,2.43-.19,3.65-.25,1.07-.05,2.15,0,3.22-.1,2.5-.24,5-.11,7.51-.1,0,.89-.06,1.78-.08,2.67,0,2.21-.06,4.41-.08,6.62,0,2,0,4,0,6C503.38,457.69,503.23,457.71,503.07,457.71Zm-20.75.35a22.52,22.52,0,0,1-2.32.11q-3.18,0-6.35-.14l-.51,0c0-2.57.07-5.14.09-7.71,0-2.15-.05-4.29-.06-6.44v-.49h.19c1.22,0,2.44-.1,3.65-.14a3.35,3.35,0,0,1,.71.06,13.49,13.49,0,0,0,5.22-.08c.34-.07.68-.13,1-.18a2.73,2.73,0,0,1,.81,0,2.12,2.12,0,0,0,.65.07v.34q.06,2.55.15,5.1c0,.63.13,1.25.13,1.88,0,2.56.08,5.12,0,7.68l-.43,0A15.07,15.07,0,0,0,482.32,458.06Zm-26.79-36.19c-.08-3.05-.11-6.1-.18-9.15-.05-2-.12-4.07-.17-6.11l2.33.08c2.2,0,4.41.06,6.61.08l6.28,0a2.26,2.26,0,0,1,0,.26,7.5,7.5,0,0,0,0,1.34c.07,1.22.18,2.44.25,3.65s0,2.16.1,3.22a64.48,64.48,0,0,1,.1,6.81c-.37,0-.74-.07-1.11-.08-.78,0-1.56,0-2.34,0l-6.27-.09-5.28,0Zm-18.34-21a14.61,14.61,0,0,0,.16-1.74c0-2.17,0-4.35,0-6.52h.27c1.22-.09,2.43-.24,3.65-.3,2-.09,4-.16,6-.19,1,0,2,.11,2.95.1.78,0,1.56,0,2.35,0-.12,1.13-.23,2.27-.36,3.4a12.31,12.31,0,0,0-.24,1.58c0,2.18.08,4.36.12,6.53,0,.17,0,.34,0,.51-3.85-.35-7.72-.21-11.59-.2l-3.2.06c0-.31,0-.62.06-1C437.34,402.48,437.27,401.7,437.19,400.85Zm-17.37-47.23c-.1-3.13-.12-6.27-.19-9.41-.05-1.86-.11-3.72-.16-5.59h0a7.5,7.5,0,0,0,1.34,0c1.22-.07,2.43-.18,3.65-.24,1.07-.06,2.15,0,3.21-.11a68.32,68.32,0,0,1,7-.1c0,.13,0,.25,0,.37a7.5,7.5,0,0,0,0,1.34c.07,1.22.18,2.43.25,3.65s0,2.15.1,3.22a62.23,62.23,0,0,1,.1,6.69c-.19,0-.37,0-.56,0-3.14.1-6.27.12-9.41.19-1.78,0-3.55.1-5.32.15A1.21,1.21,0,0,1,419.82,353.62ZM506,306.81c0-.47,0-.94,0-1.41,1.34,0,2.68,0,4,0,1.93,0,3.86-.26,5.79-.29s3.59.06,5.38.12l0,1.21c0,1.7.08,3.4.14,5.09,0,.63.13,1.25.13,1.88,0,2.4.07,4.81,0,7.22h-.29c-2.5-.13-5-.3-7.51-.43a38.52,38.52,0,0,0-6.62.16c-.35.05-.71.08-1.06.11,0-2.4.07-4.81.08-7.22C506,311.11,506,309,506,306.81Zm137.2-24.3c-.07-2.65-.12-5.3-.21-7.95,0-1.55-.18-3.09-.2-4.64,0-.08,0-.16,0-.25,1.41,0,2.82.05,4.23,0,1.93-.05,3.86-.26,5.79-.29,1.64,0,3.29.05,4.94.1,0,.4,0,.79,0,1.19,0,1.18-.12,2.37-.15,3.56,0,.81,0,1.62,0,2.42,0,1.46-.15,2.93-.11,4.38,0,1.28.15,2.56.21,3.84-2.34-.12-4.68-.28-7-.4a38.41,38.41,0,0,0-6.61.16l-.81.09Zm40.46-26.8c2.17,0,4.35-.08,6.53-.12l.73,0c-.1,1-.19,2-.3,3a14.23,14.23,0,0,0-.25,1.57c0,2.18.08,4.36.12,6.54,0,.26,0,.52,0,.78l-.92-.05c-.59.06-1.38.12-2.22.21a17.07,17.07,0,0,0-1.74-.17c-2.3-.05-4.59,0-6.89,0h-.12c0-.42.06-.86.08-1.35s-.12-1.37-.21-2.22a14.61,14.61,0,0,0,.16-1.74c.06-2.29,0-4.59,0-6.88v-.09c1.13.12,2.26.22,3.39.35A14.4,14.4,0,0,0,683.62,255.71ZM759,339.19c0,1.19-.11,2.38-.15,3.56,0,.81,0,1.62,0,2.43,0,1.46-.15,2.92-.11,4.38s.19,2.87.23,4.31a15.27,15.27,0,0,0-2.62,0c-.78.06-1.55.12-2.33.11q-3.16,0-6.35-.15h-.22c0-.92-.06-1.84-.08-2.75-.07-2.65-.13-5.31-.21-8,0-1.32-.13-2.64-.17-4a2.64,2.64,0,0,0,.4,0c1.21,0,2.43-.09,3.65-.13a3.31,3.31,0,0,1,.7.06A13.54,13.54,0,0,0,757,339l1-.19a3.17,3.17,0,0,1,.82,0,1.23,1.23,0,0,0,.19,0Zm-14.15,21.32c0,1.93.25,3.86.28,5.79,0,1.77-.06,3.53-.11,5.3-2.76,0-5.53-.08-8.29-.09-2.15,0-4.29,0-6.44.05h-.67c.13-2.47.29-4.94.42-7.4a38.52,38.52,0,0,0-.16-6.62c0-.39-.08-.78-.12-1.18h.15c1.7,0,3.4-.08,5.1-.14.63,0,1.25-.14,1.87-.13,2.66,0,5.31-.09,8,0C744.87,357.59,744.84,359.05,744.88,360.51ZM759,407.7c0,1.19-.11,2.38-.15,3.57,0,.8,0,1.61,0,2.42,0,1.46-.15,2.92-.11,4.38s.19,2.88.23,4.32a14.32,14.32,0,0,0-2.62-.05,22.71,22.71,0,0,1-2.33.11q-3.16,0-6.35-.14l-.22,0c0-.92-.06-1.83-.08-2.75-.07-2.65-.13-5.3-.21-8,0-1.32-.13-2.64-.17-4l.4,0c1.21,0,2.43-.1,3.65-.14a3.31,3.31,0,0,1,.7.06,13.54,13.54,0,0,0,5.23-.08l1-.18a3.18,3.18,0,0,1,.82,0,1.25,1.25,0,0,0,.19,0Zm-53,32.2c-2.65.07-5.31.13-8,.21-1.38.05-2.75.15-4.13.18v-.1c.12-2.5.29-5,.42-7.51a38.52,38.52,0,0,0-.16-6.62c0-.24-.05-.48-.08-.72h.07c1.19,0,2.38.11,3.57.15.8,0,1.61,0,2.42,0,1.46,0,2.92.15,4.38.11s3.07-.2,4.6-.23c0,1.22,0,2.44,0,3.65.06,1.94.26,3.86.29,5.8,0,1.66-.05,3.32-.1,5Zm-15.5,36.32c0,1.18-.12,2.37-.15,3.56,0,.81,0,1.62,0,2.42,0,1.46-.14,2.93-.1,4.38s.18,2.88.22,4.32a14.32,14.32,0,0,0-2.62,0c-.77.06-1.55.11-2.32.1-2.12,0-4.24-.08-6.35-.14l-.23,0c0-.91-.05-1.83-.08-2.75-.06-2.65-.12-5.3-.21-7.95,0-1.32-.13-2.64-.17-4h.4c1.22,0,2.44-.09,3.65-.14a4.17,4.17,0,0,1,.71.06,13.3,13.3,0,0,0,5.22-.08c.34-.07.68-.12,1-.18a3.11,3.11,0,0,1,.81,0,1.36,1.36,0,0,0,.2,0Zm-68.26,21.17q.13,3,.2,6c0,1-.12,2-.11,2.95,0,.79,0,1.59,0,2.38l-1.37-.08-2.22.21a14.42,14.42,0,0,0-1.74-.16c-2.24-.06-4.49,0-6.74,0a114.76,114.76,0,0,0,.24-12c0-1.05,0-2.1-.06-3.15l3,.31a12.48,12.48,0,0,0,1.57.25c2.18,0,4.36-.08,6.54-.12H622C622.07,495.07,622.2,496.23,622.26,497.39Zm-68.77-21.17c0,1.18-.11,2.37-.15,3.56,0,.81,0,1.62,0,2.42,0,1.46-.15,2.93-.11,4.38s.19,2.88.23,4.32a14.32,14.32,0,0,0-2.62,0c-.78.06-1.55.11-2.33.1-2.12,0-4.23-.08-6.35-.14l-.23,0c0-.91,0-1.83-.07-2.75-.07-2.65-.13-5.3-.21-7.95,0-1.32-.14-2.64-.18-4h.4c1.22,0,2.44-.09,3.66-.14a4.14,4.14,0,0,1,.7.06,13.35,13.35,0,0,0,5.23-.08l1-.18a3.17,3.17,0,0,1,.82,0,1.11,1.11,0,0,0,.19,0Zm-79.95-48.1c0-1.05,0-2.1-.05-3.15l3,.31a14.4,14.4,0,0,0,1.58.25c2.17,0,4.35-.08,6.53-.12H485c.09,1.16.23,2.32.28,3.48.1,2,.16,4,.2,6,0,1-.11,2-.11,3,0,.79,0,1.58.05,2.38l-1.37-.08c-.58.06-1.37.12-2.21.21a17.07,17.07,0,0,0-1.74-.17c-2.25-.05-4.5,0-6.74,0A117.55,117.55,0,0,0,473.54,428.12ZM455.1,404.36v-.05a14.32,14.32,0,0,0,.08-2.93,22.38,22.38,0,0,1-.1-2.32c0-2.12.07-4.23.14-6.35,0-.2,0-.4,0-.61h.62c1.7,0,3.4-.08,5.1-.14.62,0,1.25-.13,1.87-.13,2.35,0,4.7-.07,7.05,0a4,4,0,0,0,0,.6c0,1.22.09,2.44.13,3.66a3.3,3.3,0,0,1,0,.7A13.49,13.49,0,0,0,470,402c.07.34.13.69.19,1a3.19,3.19,0,0,1,0,.82,2,2,0,0,0-.06.53c-2.48,0-5-.07-7.44-.08-2.14,0-4.29,0-6.43.05Zm.76-46.81c-.05-.39-.09-.78-.13-1.18h.16c1.7,0,3.4-.08,5.1-.14.62,0,1.25-.14,1.87-.13,2.65,0,5.31-.09,8,0,0,1.45,0,2.91,0,4.37.05,1.93.26,3.86.29,5.79,0,1.77-.06,3.53-.11,5.3-2.77,0-5.53-.08-8.3-.09-2.14,0-4.29,0-6.43.05h-.67c.12-2.47.29-4.94.41-7.4A37.54,37.54,0,0,0,455.86,357.55Zm17.05-25.21a14.61,14.61,0,0,0,.16-1.74c.06-2.3,0-4.59,0-6.89v-.08c1.13.12,2.26.22,3.39.35a12.31,12.31,0,0,0,1.58.24c2.17,0,4.35-.08,6.53-.12l.73,0c-.1,1-.19,2-.3,3a14.62,14.62,0,0,0-.25,1.57c0,2.18.08,4.36.12,6.54,0,.26,0,.52,0,.79l-.93-.06-2.21.21a14.61,14.61,0,0,0-1.74-.16c-2.3-.06-4.59,0-6.89,0H473c0-.41.06-.85.08-1.35S473,333.18,472.91,332.34Zm33.25-8.27c1.22-.09,2.44-.23,3.66-.29q3-.13,6-.2c1,0,2,.11,3,.11l2.35-.05c-.12,1.14-.22,2.27-.35,3.41a14.62,14.62,0,0,0-.25,1.57c0,2.18.08,4.36.12,6.54,0,.17,0,.34,0,.51-3.86-.35-7.73-.21-11.59-.2-1.07,0-2.14,0-3.2.06,0-.31,0-.63.05-1-.06-.58-.12-1.37-.21-2.21a17.07,17.07,0,0,0,.17-1.74c.05-2.18,0-4.35,0-6.53Zm35.7-41.56c-.07-2.65-.13-5.3-.21-7.95,0-1.32-.14-2.64-.18-4h.4c1.22,0,2.44-.09,3.66-.14a4.14,4.14,0,0,1,.7.06,13.54,13.54,0,0,0,5.23-.08l1-.18a3.17,3.17,0,0,1,.82,0,1.11,1.11,0,0,0,.19,0v.36c0,1.18-.11,2.37-.15,3.56,0,.81,0,1.62,0,2.42,0,1.46-.15,2.93-.11,4.38s.19,2.88.23,4.32a14.32,14.32,0,0,0-2.62,0c-.78.06-1.55.11-2.33.1-2.12,0-4.23-.08-6.35-.14l-.23,0C541.91,284.35,541.88,283.43,541.86,282.51Zm-.44-18.69a17.07,17.07,0,0,0,.17-1.74c0-2.29,0-4.59,0-6.88v-.09c1.13.12,2.26.22,3.39.35a14.4,14.4,0,0,0,1.58.25c2.18,0,4.36-.08,6.53-.12l.74,0c-.11,1-.2,2-.31,3a14.23,14.23,0,0,0-.25,1.57c0,2.18.08,4.36.13,6.54,0,.26,0,.52,0,.78l-.93-.05-2.22.21a17.07,17.07,0,0,0-1.74-.17c-2.29-.05-4.59,0-6.88,0h-.13c0-.42.06-.86.08-1.35S541.51,264.67,541.42,263.82Zm101.94,27.27c0-.91,0-1.83-.05-2.75,1.18-.09,2.35-.23,3.53-.28,2-.1,4-.16,6-.2,1,0,2,.11,2.95.11l1.9,0a2.43,2.43,0,0,0,0,.27c.09,1.22.23,2.43.29,3.65q.13,3,.2,6c0,1-.11,2-.11,2.95,0,.7,0,1.41,0,2.11a117.69,117.69,0,0,0-12-.23c-1,0-2,0-2.92.05C643.52,298.86,643.37,295,643.36,291.09Zm47.16-20.41c0,1.18-.12,2.37-.15,3.56,0,.81,0,1.62,0,2.42,0,1.46-.14,2.93-.1,4.38s.18,2.88.22,4.32a14.32,14.32,0,0,0-2.62,0c-.77.06-1.55.11-2.32.1-2.12,0-4.24-.08-6.35-.14l-.23,0c0-.91-.05-1.83-.08-2.75-.06-2.65-.12-5.3-.21-7.95,0-1.32-.13-2.64-.17-4h.4c1.22,0,2.44-.09,3.65-.14a4.17,4.17,0,0,1,.71.06,13.49,13.49,0,0,0,5.22-.08c.34-.07.68-.12,1-.18a3.11,3.11,0,0,1,.81,0,1.36,1.36,0,0,0,.2,0Zm53.94,67.59c0,.09,0,.18,0,.27a7.5,7.5,0,0,0,0,1.34c.08,1.22.19,2.43.25,3.65s0,2.15.1,3.22a61.72,61.72,0,0,1,.1,6.8c-.37,0-.74-.07-1.11-.08-.78,0-1.55,0-2.33,0l-6.27-.09-5.29,0h-.3c-.09-3.05-.12-6.1-.19-9.15,0-2-.12-4.07-.16-6.11.77,0,1.55.06,2.32.07,2.21,0,4.41.07,6.62.08Zm.41,35.73a.52.52,0,0,0,.1.11c0,.82-.06,1.64-.08,2.46,0,2.2-.06,4.41-.08,6.62,0,2,0,4.05,0,6.08-.34,0-.67-.07-1-.08-.78,0-1.55,0-2.33,0l-6.27-.09-5.29,0h-.32a2.83,2.83,0,0,0,0-.29c0-.78,0-1.56,0-2.33,0-2.09.06-4.18.09-6.28,0-1.76,0-3.52,0-5.28,0-.3,0-.6,0-.9,0-.05,0-.11,0-.16l1.88.06c2.21,0,4.41.06,6.62.07ZM640.1,457.71c-3.14.09-6.27.12-9.41.19-1.8,0-3.59.1-5.39.15,0-.25.05-.5.06-.75,0-.77,0-1.55,0-2.33,0-2.09.07-4.18.09-6.27,0-1.76,0-3.52,0-5.29,0-.17,0-.35,0-.53.29,0,.59,0,.89,0,1.22-.08,2.43-.19,3.65-.25s2.15,0,3.21-.1c2.51-.24,5-.11,7.52-.1,0,.89-.07,1.78-.08,2.67,0,2.21-.06,4.41-.08,6.62,0,2,0,4,0,6ZM622,476.22c0,1.18-.12,2.37-.15,3.56,0,.81,0,1.62,0,2.42,0,1.46-.15,2.93-.11,4.38s.19,2.88.23,4.32a14.32,14.32,0,0,0-2.62,0c-.77.06-1.55.11-2.32.1-2.12,0-4.24-.08-6.36-.14l-.22,0c0-.91-.06-1.83-.08-2.75-.07-2.65-.12-5.3-.21-7.95,0-1.32-.13-2.64-.17-4h.4c1.22,0,2.43-.09,3.65-.14a4.25,4.25,0,0,1,.71.06A13.3,13.3,0,0,0,620,476l1-.18a3.17,3.17,0,0,1,.82,0,1.37,1.37,0,0,0,.19,0C622,476,622,476.1,622,476.22Zm-69.49-3.3-2.22.21a17.07,17.07,0,0,0-1.74-.17c-2.29,0-4.59,0-6.88,0h-.13c0-.42.06-.86.08-1.35s-.12-1.37-.21-2.22a17.07,17.07,0,0,0,.17-1.74c0-2.29,0-4.59,0-6.88v-.09c1.13.12,2.26.22,3.39.35a14.4,14.4,0,0,0,1.58.25c2.18,0,4.36-.08,6.53-.12l.74,0c-.11,1-.2,2-.31,3a14.23,14.23,0,0,0-.25,1.57c0,2.18.08,4.36.13,6.54,0,.26,0,.52,0,.78ZM503.07,422c-3.13.09-6.27.12-9.41.19l-5.32.14c0-.06,0-.12,0-.19-.09-3.13-.12-6.27-.19-9.41,0-1.86-.11-3.72-.15-5.58h0a8.56,8.56,0,0,0,1.34,0c1.22-.08,2.43-.19,3.65-.25,1.07-.06,2.15,0,3.22-.1a65.4,65.4,0,0,1,7-.1c0,.12,0,.24,0,.36a7.5,7.5,0,0,0,0,1.34c.07,1.22.19,2.44.25,3.65s0,2.16.1,3.22a62.37,62.37,0,0,1,.1,6.7C503.44,422,503.26,422,503.07,422Zm-29.73-2.45c-.06-2.65-.12-5.3-.21-8,0-1.32-.13-2.64-.17-4l.4,0c1.22,0,2.44-.1,3.65-.14a3.35,3.35,0,0,1,.71.06,13.49,13.49,0,0,0,5.22-.08c.34-.07.68-.13,1-.18a3.12,3.12,0,0,1,.81,0l.2,0v.35c0,1.19-.12,2.38-.15,3.57,0,.8,0,1.61,0,2.42,0,1.46-.14,2.92-.1,4.38s.18,2.88.22,4.32a14.32,14.32,0,0,0-2.62-.05,22.52,22.52,0,0,1-2.32.11q-3.18,0-6.35-.14l-.23,0C473.39,421.37,473.36,420.46,473.34,419.54Zm-.17-44.21v-.49h.19c1.22,0,2.44-.1,3.65-.14a3.35,3.35,0,0,1,.71.06,13.49,13.49,0,0,0,5.22-.08c.34-.07.68-.13,1-.18a3.12,3.12,0,0,1,.81,0,2.14,2.14,0,0,0,.65.08V375q.06,2.55.15,5.1c0,.62.13,1.25.13,1.87,0,2.56.08,5.13,0,7.69l-.43,0a15.07,15.07,0,0,0-2.93-.08c-.77.06-1.55.12-2.32.11q-3.18,0-6.35-.15a4.38,4.38,0,0,1-.51,0c0-2.56.07-5.13.09-7.7C473.24,379.62,473.18,377.47,473.17,375.33Zm.17-24.3c-.06-2.65-.12-5.31-.21-8,0-1.32-.13-2.64-.17-4a2.67,2.67,0,0,0,.4,0c1.22,0,2.44-.09,3.65-.13a3.35,3.35,0,0,1,.71.06,13.49,13.49,0,0,0,5.22-.08l1-.19a3.11,3.11,0,0,1,.81,0,1.36,1.36,0,0,0,.2,0v.36c0,1.19-.12,2.38-.15,3.56,0,.81,0,1.62,0,2.43,0,1.46-.14,2.92-.1,4.38s.18,2.87.22,4.31a15.27,15.27,0,0,0-2.62,0c-.77.06-1.55.12-2.32.11q-3.18,0-6.35-.15h-.23C473.39,352.86,473.36,351.94,473.34,351Zm32.79,0c-.06-2.65-.12-5.31-.2-8-.05-1.55-.19-3.09-.2-4.64v-.24c1.41,0,2.82,0,4.23,0,1.93-.05,3.86-.25,5.79-.29,1.65,0,3.29.05,4.94.1,0,.4,0,.79,0,1.19,0,1.19-.12,2.38-.15,3.56,0,.81,0,1.62,0,2.43,0,1.46-.14,2.92-.1,4.38,0,1.28.15,2.55.2,3.83l-7-.39a36.61,36.61,0,0,0-6.62.16l-.8.08C506.18,352.5,506.15,351.76,506.13,351ZM643,306.81c0-.47,0-.94,0-1.41,1.34,0,2.67,0,4,0,1.93,0,3.86-.26,5.79-.29s3.59.06,5.38.12c0,.4,0,.8,0,1.21,0,1.7.09,3.4.14,5.09,0,.63.14,1.25.14,1.88,0,2.4.07,4.81,0,7.22h-.29c-2.51-.13-5-.3-7.52-.43a38.41,38.41,0,0,0-6.61.16c-.36.05-.71.08-1.06.11q0-3.6.08-7.22C643.06,311.11,643,309,643,306.81Zm83.25,32.38c0,1.19-.11,2.38-.15,3.56,0,.81,0,1.62,0,2.43,0,1.46-.14,2.92-.1,4.38,0,1.28.15,2.55.2,3.83l-7-.39a36.61,36.61,0,0,0-6.62.16l-.8.08c0-.74,0-1.48-.07-2.21-.06-2.65-.12-5.31-.2-8-.05-1.55-.19-3.09-.2-4.64v-.24c1.41,0,2.82,0,4.23,0,1.93-.05,3.86-.25,5.79-.29,1.65,0,3.3.05,4.94.1C726.24,338.4,726.25,338.79,726.24,339.19ZM726.7,375c0,1.7.08,3.4.14,5.1,0,.62.13,1.25.13,1.87,0,2.41.07,4.81,0,7.22h-.29c-2.5-.12-5-.29-7.51-.42a38.52,38.52,0,0,0-6.62.16l-1.06.11c0-2.41.07-4.82.08-7.22,0-2.15,0-4.3-.06-6.44,0-.47,0-.95,0-1.42,1.34,0,2.68,0,4,0,1.93-.05,3.86-.25,5.79-.28s3.59.06,5.38.11ZM708.61,389.2c-3.13.09-6.27.11-9.41.18l-5.38.15c0-.24,0-.49,0-.74,0-.78,0-1.56,0-2.33,0-2.09.06-4.18.08-6.28,0-1.76,0-3.52,0-5.28,0-.18,0-.36,0-.54.3,0,.6,0,.89,0,1.22-.08,2.43-.19,3.65-.25s2.15,0,3.22-.11c2.5-.23,5-.1,7.51-.09,0,.89-.06,1.78-.08,2.67,0,2.2-.06,4.41-.08,6.62,0,2,0,4,0,6Zm-18.09,18.5c0,1.19-.12,2.38-.15,3.57,0,.8,0,1.61,0,2.42,0,1.46-.14,2.92-.1,4.38s.18,2.88.22,4.32a14.32,14.32,0,0,0-2.62-.05,22.52,22.52,0,0,1-2.32.11q-3.18,0-6.35-.14l-.23,0c0-.92-.05-1.83-.08-2.75-.06-2.65-.12-5.3-.21-8,0-1.32-.13-2.64-.17-4l.4,0c1.22,0,2.44-.1,3.65-.14a3.35,3.35,0,0,1,.71.06,13.49,13.49,0,0,0,5.22-.08c.34-.07.68-.13,1-.18a3.12,3.12,0,0,1,.81,0l.2,0ZM621,472.92l-2.22.21a16.8,16.8,0,0,0-1.74-.17c-2.29,0-4.58,0-6.88,0h-.12c0-.42,0-.86.08-1.35s-.13-1.37-.22-2.22a14.64,14.64,0,0,0,.17-1.74c0-2.29,0-4.59,0-6.88v-.09c1.13.12,2.27.22,3.4.35a14.62,14.62,0,0,0,1.57.25c2.18,0,4.36-.08,6.54-.12l.73,0c-.1,1-.19,2-.31,3a12.16,12.16,0,0,0-.24,1.57c0,2.18.08,4.36.12,6.54,0,.26,0,.52,0,.78Zm-97-51.05c-.08-3.05-.11-6.1-.18-9.15,0-2-.12-4.07-.17-6.11l2.33.08c2.21,0,4.41.06,6.62.08l6.28,0c0,.09,0,.17,0,.26a7.5,7.5,0,0,0,0,1.34c.08,1.22.19,2.44.25,3.65s0,2.16.1,3.22a61.9,61.9,0,0,1,.1,6.81c-.37,0-.74-.07-1.11-.08-.78,0-1.55,0-2.33,0l-6.27-.09-5.29,0Zm-17.71-62.26c0-.92,0-1.84-.05-2.76,1.18-.09,2.36-.22,3.54-.28,2-.09,4-.16,6-.19,1,0,2,.11,3,.1.64,0,1.27,0,1.9,0a2.43,2.43,0,0,0,0,.27c.09,1.22.24,2.44.29,3.66q.15,3,.2,6c0,1-.11,2-.1,2.95,0,.71,0,1.41,0,2.12a115,115,0,0,0-12-.24l-2.93.05C506.49,367.37,506.35,363.49,506.33,359.61Zm35.36-52.8c0-.16,0-.32,0-.48h.19c1.22,0,2.44-.09,3.66-.14a4.14,4.14,0,0,1,.7.06,13.54,13.54,0,0,0,5.23-.07l1-.19a3.17,3.17,0,0,1,.82,0,2,2,0,0,0,.64.07c0,.12,0,.23,0,.35,0,1.7.08,3.4.14,5.09,0,.63.13,1.25.13,1.88,0,2.56.08,5.12,0,7.69l-.43,0a14.24,14.24,0,0,0-2.92-.08,22.7,22.7,0,0,1-2.33.1c-2.12,0-4.23-.07-6.35-.14a4.38,4.38,0,0,1-.51,0c0-2.57.08-5.14.09-7.71C541.75,311.11,541.7,309,541.69,306.81Zm101.5,17.26c1.22-.09,2.43-.23,3.65-.29q3-.13,6-.2c1,0,2,.11,2.95.11l2.35-.05c-.12,1.14-.23,2.27-.35,3.41a12.48,12.48,0,0,0-.25,1.57c0,2.18.08,4.36.12,6.54,0,.17,0,.34,0,.51-3.85-.35-7.72-.21-11.59-.2-1.06,0-2.13,0-3.2.06,0-.31,0-.63.06-1-.06-.58-.13-1.37-.21-2.21a14.61,14.61,0,0,0,.16-1.74c.05-2.18,0-4.35,0-6.53ZM640.1,422c-3.14.09-6.27.12-9.41.19l-5.32.14a1.15,1.15,0,0,1,0-.19c-.1-3.13-.12-6.27-.19-9.41,0-1.86-.11-3.72-.16-5.58h0a8.56,8.56,0,0,0,1.34,0c1.22-.08,2.43-.19,3.65-.25s2.15,0,3.21-.1a65.59,65.59,0,0,1,7-.1c0,.12,0,.24,0,.36a7.5,7.5,0,0,0,0,1.34c.07,1.22.18,2.44.25,3.65s0,2.16.1,3.22a62.37,62.37,0,0,1,.1,6.7C640.47,422,640.29,422,640.1,422ZM506,375.33c0-.47,0-.95,0-1.42,1.34,0,2.68,0,4,0,1.93-.05,3.86-.25,5.79-.28s3.59.06,5.38.11l0,1.21c0,1.7.08,3.4.14,5.1,0,.62.13,1.25.13,1.87,0,2.41.07,4.81,0,7.22h-.29c-2.5-.12-5-.29-7.51-.42a38.52,38.52,0,0,0-6.62.16l-1.06.11c0-2.41.07-4.82.08-7.22C506,379.62,506,377.47,506,375.33Zm104-43a14.64,14.64,0,0,0,.17-1.74c0-2.3,0-4.59,0-6.89v-.08c1.13.12,2.27.22,3.4.35a12.43,12.43,0,0,0,1.57.24c2.18,0,4.36-.08,6.54-.12l.73,0c-.1,1-.19,2-.31,3a12.43,12.43,0,0,0-.24,1.57c0,2.18.08,4.36.12,6.54,0,.26,0,.52,0,.79l-.93-.06-2.22.21a14.42,14.42,0,0,0-1.74-.16c-2.29-.06-4.58,0-6.88,0h-.12c0-.41,0-.85.08-1.35S610,333.18,609.93,332.34ZM643.16,351c-.07-2.65-.12-5.31-.21-8,0-1.55-.18-3.09-.2-4.64,0-.08,0-.16,0-.24,1.41,0,2.82,0,4.23,0,1.93-.05,3.86-.25,5.79-.29,1.64,0,3.29.05,4.94.1,0,.4,0,.79,0,1.19,0,1.19-.12,2.38-.15,3.56,0,.81,0,1.62,0,2.43,0,1.46-.15,2.92-.11,4.38,0,1.28.15,2.55.21,3.83-2.34-.12-4.68-.27-7-.39a36.5,36.5,0,0,0-6.61.16l-.81.08Zm47.36-11.84c0,1.19-.12,2.38-.15,3.56,0,.81,0,1.62,0,2.43,0,1.46-.14,2.92-.1,4.38s.18,2.87.22,4.31a15.27,15.27,0,0,0-2.62,0c-.77.06-1.55.12-2.32.11q-3.18,0-6.35-.15H679c0-.92-.05-1.84-.08-2.75-.06-2.65-.12-5.31-.21-8,0-1.32-.13-2.64-.17-4a2.67,2.67,0,0,0,.4,0c1.22,0,2.44-.09,3.65-.13a3.35,3.35,0,0,1,.71.06,13.49,13.49,0,0,0,5.22-.08l1-.19a3.11,3.11,0,0,1,.81,0,1.36,1.36,0,0,0,.2,0Zm-137,68.51c0,1.19-.11,2.38-.15,3.57,0,.8,0,1.61,0,2.42,0,1.46-.15,2.92-.11,4.38s.19,2.88.23,4.32a14.32,14.32,0,0,0-2.62-.05,22.71,22.71,0,0,1-2.33.11c-2.12,0-4.23-.08-6.35-.14l-.23,0c0-.92,0-1.83-.07-2.75-.07-2.65-.13-5.3-.21-8,0-1.32-.14-2.64-.18-4l.4,0c1.22,0,2.44-.1,3.66-.14a3.31,3.31,0,0,1,.7.06,13.54,13.54,0,0,0,5.23-.08l1-.18a3.18,3.18,0,0,1,.82,0,1.08,1.08,0,0,0,.19,0Zm-29.44-18.91c0-.78,0-1.56,0-2.33,0-2.09.06-4.18.09-6.28,0-1.76,0-3.52,0-5.28,0-.3,0-.6,0-.9,0-.05,0-.11,0-.16l1.88.06c2.21,0,4.41.06,6.62.07l6.69,0a.52.52,0,0,0,.1.11c0,.82-.06,1.64-.08,2.46,0,2.2-.06,4.41-.08,6.62,0,2,0,4.05,0,6.08-.34,0-.67-.07-1-.08-.78,0-1.55,0-2.33,0l-6.27-.09-5.29,0H524A2.83,2.83,0,0,0,524.05,388.79ZM541.86,351c-.07-2.65-.13-5.31-.21-8,0-1.32-.14-2.64-.18-4a2.71,2.71,0,0,0,.4,0c1.22,0,2.44-.09,3.66-.13a3.31,3.31,0,0,1,.7.06,13.54,13.54,0,0,0,5.23-.08l1-.19a3.17,3.17,0,0,1,.82,0,1.11,1.11,0,0,0,.19,0v.36c0,1.19-.11,2.38-.15,3.56,0,.81,0,1.62,0,2.43,0,1.46-.15,2.92-.11,4.38s.19,2.87.23,4.31a15.27,15.27,0,0,0-2.62,0c-.78.06-1.55.12-2.33.11-2.12,0-4.23-.08-6.35-.15h-.23C541.91,352.86,541.88,351.94,541.86,351Zm68.51,0c-.07-2.65-.12-5.31-.21-8,0-1.32-.13-2.64-.17-4a2.64,2.64,0,0,0,.4,0c1.22,0,2.43-.09,3.65-.13a3.41,3.41,0,0,1,.71.06A13.49,13.49,0,0,0,620,339l1-.19a3.17,3.17,0,0,1,.82,0,1.37,1.37,0,0,0,.19,0c0,.12,0,.24,0,.36,0,1.19-.12,2.38-.15,3.56,0,.81,0,1.62,0,2.43,0,1.46-.15,2.92-.11,4.38s.19,2.87.23,4.31a15.27,15.27,0,0,0-2.62,0c-.77.06-1.55.12-2.32.11q-3.18,0-6.36-.15h-.22C610.42,352.86,610.39,351.94,610.37,351Zm33,8.58c0-.92,0-1.84-.05-2.76,1.18-.09,2.35-.22,3.53-.28,2-.09,4-.16,6-.19,1,0,2,.11,2.95.1.63,0,1.26,0,1.9,0a2.43,2.43,0,0,0,0,.27c.09,1.22.23,2.44.29,3.66q.13,3,.2,6c0,1-.11,2-.11,2.95,0,.71,0,1.41,0,2.12a114.9,114.9,0,0,0-12-.24l-2.92.05C643.52,367.37,643.37,363.49,643.36,359.61Zm33-3.47c0,1.45,0,2.91,0,4.37,0,1.93.26,3.86.29,5.79,0,1.77-.06,3.53-.11,5.3-2.77,0-5.53-.08-8.3-.09-2.14,0-4.29,0-6.43.05h-.67c.12-2.47.29-4.94.42-7.4a38.52,38.52,0,0,0-.16-6.62c0-.39-.09-.78-.13-1.18h.16c1.7,0,3.4-.08,5.1-.14.62,0,1.25-.14,1.87-.13C671.05,356.1,673.71,356,676.37,356.14Zm-1.1,33.05c-.78,0-1.56,0-2.34,0l-6.27-.09c-1.76,0-3.52,0-5.28,0h-.32c0-.1,0-.19,0-.29,0-.78,0-1.56,0-2.33,0-2.09.07-4.18.09-6.28,0-1.76,0-3.52,0-5.28,0-.3,0-.6,0-.9a.86.86,0,0,1,0-.16l1.88.06c2.2,0,4.41.06,6.61.07l6.69,0a1.14,1.14,0,0,0,.11.11c0,.82-.07,1.64-.08,2.46,0,2.2-.06,4.41-.08,6.62q0,3,0,6.08C675.94,389.24,675.6,389.2,675.27,389.19ZM643,375.33c0-.47,0-.95,0-1.42,1.34,0,2.67,0,4,0,1.93-.05,3.86-.25,5.79-.28s3.59.06,5.38.11c0,.4,0,.81,0,1.21,0,1.7.09,3.4.14,5.1,0,.62.14,1.25.14,1.87,0,2.41.07,4.81,0,7.22h-.29c-2.51-.12-5-.29-7.52-.42a38.41,38.41,0,0,0-6.61.16L643,389q0-3.62.08-7.22C643.06,379.62,643,377.47,643,375.33Zm-2.33,1.24c0,2.2-.06,4.41-.08,6.62,0,2,0,4,0,6l-.46,0c-3.14.09-6.27.11-9.41.18-1.8.05-3.59.11-5.39.15,0-.24.05-.49.06-.74,0-.78,0-1.56,0-2.33,0-2.09.07-4.18.09-6.28q0-2.64,0-5.28c0-.18,0-.36,0-.54.29,0,.59,0,.89,0,1.22-.08,2.43-.19,3.65-.25s2.15,0,3.21-.11c2.51-.23,5-.1,7.52-.09C640.71,374.79,640.67,375.68,640.66,376.57ZM622,407.7c0,1.19-.12,2.38-.15,3.57,0,.8,0,1.61,0,2.42,0,1.46-.15,2.92-.11,4.38s.19,2.88.23,4.32a14.32,14.32,0,0,0-2.62-.05,22.52,22.52,0,0,1-2.32.11q-3.18,0-6.36-.14l-.22,0c0-.92-.06-1.83-.08-2.75-.07-2.65-.12-5.3-.21-8,0-1.32-.13-2.64-.17-4l.4,0c1.22,0,2.43-.1,3.65-.14a3.41,3.41,0,0,1,.71.06,13.49,13.49,0,0,0,5.22-.08l1-.18a3.18,3.18,0,0,1,.82,0l.19,0C622,407.47,622,407.58,622,407.7Zm-.2-33.17a2.08,2.08,0,0,0,.64.08c0,.11,0,.23,0,.34,0,1.7.08,3.4.14,5.1,0,.62.14,1.25.13,1.87,0,2.56.08,5.13,0,7.69l-.43,0a15.09,15.09,0,0,0-2.93-.08c-.77.06-1.55.12-2.32.11q-3.18,0-6.36-.15a4.38,4.38,0,0,1-.5,0c0-2.56.07-5.13.08-7.7,0-2.15,0-4.3,0-6.44,0-.16,0-.33,0-.49h.2c1.22,0,2.43-.1,3.65-.14a3.41,3.41,0,0,1,.71.06,13.49,13.49,0,0,0,5.22-.08l1-.18A3.18,3.18,0,0,1,621.81,374.53ZM621,404.4l-2.22.22a14.44,14.44,0,0,0-1.74-.17c-2.29-.05-4.58,0-6.88,0h-.12c0-.42,0-.86.08-1.35s-.13-1.37-.22-2.22a14.64,14.64,0,0,0,.17-1.74c0-2.29,0-4.59,0-6.88v-.09c1.13.12,2.27.22,3.4.35a14.62,14.62,0,0,0,1.57.25c2.18,0,4.36-.08,6.54-.13l.73,0c-.1,1-.19,2-.31,3a12.31,12.31,0,0,0-.24,1.58c0,2.18.08,4.36.12,6.53,0,.27,0,.53,0,.79ZM607.84,374a.52.52,0,0,0,.1.11c0,.82-.06,1.64-.08,2.46q-.06,3.3-.07,6.62c0,2,0,4.05,0,6.08-.33,0-.67-.07-1-.08-.77,0-1.55,0-2.33,0l-6.27-.09c-1.76,0-3.52,0-5.28,0h-.32a2.83,2.83,0,0,1,0-.29c0-.78,0-1.56,0-2.33l.09-6.28c0-1.76,0-3.52,0-5.28,0-.3,0-.6,0-.9v-.16l1.87.06c2.21,0,4.41.06,6.62.07Zm-18.17.95c0,1.7.08,3.4.14,5.1,0,.62.14,1.25.13,1.87,0,2.41.08,4.81,0,7.22h-.29c-2.51-.12-5-.29-7.52-.42a38.52,38.52,0,0,0-6.62.16l-1.06.11c0-2.41.07-4.82.08-7.22,0-2.15,0-4.3,0-6.44,0-.47,0-.95,0-1.42,1.33,0,2.67,0,4,0,1.93-.05,3.86-.25,5.79-.28s3.58.06,5.38.11C589.66,374.14,589.66,374.55,589.67,375Zm-17.54-14.44c0,1.93.25,3.86.28,5.79,0,1.67,0,3.33-.1,5l-3.32.09c-2.65.07-5.3.12-8,.21-1.38,0-2.76.14-4.14.18v-.1c.12-2.5.29-5,.42-7.51a38.52,38.52,0,0,0-.16-6.62c0-.24,0-.48-.07-.72h.06c1.19,0,2.38.12,3.57.16.8,0,1.61,0,2.42,0,1.46,0,2.92.15,4.38.11s3.07-.21,4.61-.23C572.11,358.08,572.09,359.29,572.13,360.51ZM552.52,404.4l-2.22.22a14.64,14.64,0,0,0-1.74-.17c-2.29-.05-4.59,0-6.88,0h-.13c0-.42.06-.86.08-1.35s-.12-1.37-.21-2.22a17.07,17.07,0,0,0,.17-1.74c0-2.29,0-4.59,0-6.88v-.09c1.13.12,2.26.22,3.39.35a14.4,14.4,0,0,0,1.58.25c2.18,0,4.36-.08,6.53-.13l.74,0c-.11,1-.2,2-.31,3a14.4,14.4,0,0,0-.25,1.58c0,2.18.08,4.36.13,6.53,0,.27,0,.53,0,.79Zm1.67-14.79-.43,0a15,15,0,0,0-2.92-.08c-.78.06-1.55.12-2.33.11-2.12,0-4.23-.08-6.35-.15a4.38,4.38,0,0,1-.51,0c0-2.56.08-5.13.09-7.7,0-2.15,0-4.3,0-6.44,0-.16,0-.33,0-.49h.19c1.22,0,2.44-.1,3.66-.14a3.31,3.31,0,0,1,.7.06,13.54,13.54,0,0,0,5.23-.08l1-.18a3.18,3.18,0,0,1,.82,0,2,2,0,0,0,.64.08c0,.11,0,.23,0,.34,0,1.7.08,3.4.14,5.1,0,.62.13,1.25.13,1.87C554.22,384.48,554.3,387.05,554.19,389.61Zm-.44-29.24c.09,2,.16,4,.19,6,0,1-.11,2-.1,2.95,0,.8,0,1.59,0,2.38l-1.36-.08-2.22.22a14.64,14.64,0,0,0-1.74-.17c-2.25-.05-4.49,0-6.74,0a112.14,112.14,0,0,0,.23-12c0-1.05,0-2.1,0-3.15,1,.1,2,.19,3,.31a14.4,14.4,0,0,0,1.58.25c2.18,0,4.36-.09,6.53-.13h.35C553.56,358,553.69,359.2,553.75,360.37Zm3.1,28.42c0-.78,0-1.56,0-2.33,0-2.09.06-4.18.09-6.28,0-1.76,0-3.52,0-5.28,0-.18,0-.36,0-.54.3,0,.6,0,.89,0,1.22-.08,2.44-.19,3.66-.25s2.15,0,3.21-.11c2.51-.23,5-.1,7.52-.09,0,.89-.07,1.78-.09,2.67q-.06,3.3-.07,6.62c0,2,0,4,0,6l-.45,0c-3.14.09-6.28.11-9.42.18-1.79.05-3.58.11-5.38.15C556.81,389.29,556.84,389,556.85,388.79Zm17.36,12.06a14.64,14.64,0,0,0,.17-1.74c0-2.17,0-4.35,0-6.52h.27c1.22-.09,2.43-.24,3.65-.3,2-.09,4-.16,6-.19,1,0,2,.11,3,.1.78,0,1.56,0,2.34,0-.12,1.13-.22,2.27-.35,3.4a14.4,14.4,0,0,0-.25,1.58c0,2.18.08,4.36.13,6.53,0,.17,0,.34,0,.51-3.86-.35-7.73-.21-11.59-.2-1.07,0-2.13,0-3.2.06,0-.31,0-.62.06-1C574.37,402.48,574.3,401.7,574.21,400.85Zm17.92,3.51v-.05a15.07,15.07,0,0,0,.08-2.93c-.06-.77-.12-1.54-.11-2.32,0-2.12.08-4.23.15-6.35,0-.2,0-.4,0-.61h.62c1.7,0,3.4-.08,5.1-.14.63,0,1.25-.13,1.88-.13,2.35,0,4.7-.07,7.05,0q0,.3,0,.6c0,1.22.1,2.44.14,3.66a3.31,3.31,0,0,1-.06.7,13.49,13.49,0,0,0,.08,5.22c.07.34.13.69.18,1a2.8,2.8,0,0,1,0,.82,2.49,2.49,0,0,0-.07.53c-2.47,0-4.95-.07-7.43-.08-2.15,0-4.29,0-6.44.05Zm32.81.23c0-.09,0-.19,0-.28a15.07,15.07,0,0,0,.08-2.93c-.06-.77-.12-1.54-.11-2.32,0-2.12.08-4.23.15-6.35,0,0,0-.11,0-.16h.62c1.19,0,2.37.11,3.56.15.81,0,1.62,0,2.42,0,1.46,0,2.93.15,4.39.11,1.22,0,2.45-.14,3.67-.2,0,1.16.09,2.31.13,3.47a3.3,3.3,0,0,1-.05.7,13.49,13.49,0,0,0,.07,5.22c.07.34.13.69.19,1a3.19,3.19,0,0,1,0,.82,1.15,1.15,0,0,0,0,.26l-2.49.07-8,.21C628,404.44,626.47,404.57,624.94,404.59Zm17.79-3.74a14.61,14.61,0,0,0,.16-1.74c.05-2.17,0-4.35,0-6.52h.27c1.22-.09,2.43-.24,3.65-.3,2-.09,4-.16,6-.19,1,0,2,.11,2.95.1.78,0,1.56,0,2.35,0-.12,1.13-.23,2.27-.35,3.4a12.35,12.35,0,0,0-.25,1.58c0,2.18.08,4.36.12,6.53,0,.17,0,.34,0,.51-3.85-.35-7.72-.21-11.59-.2l-3.2.06c0-.31,0-.62.06-1C642.88,402.48,642.81,401.7,642.73,400.85Zm17.92,3.51v-.05a14.32,14.32,0,0,0,.08-2.93c-.06-.77-.11-1.54-.1-2.32,0-2.12.07-4.23.14-6.35,0-.2,0-.4,0-.61h.62c1.7,0,3.4-.08,5.1-.14.62,0,1.25-.13,1.87-.13,2.35,0,4.7-.07,7.05,0a4,4,0,0,0,0,.6c0,1.22.09,2.44.14,3.66a4.14,4.14,0,0,1-.06.7,13.49,13.49,0,0,0,.07,5.22c.07.34.13.69.19,1a3.19,3.19,0,0,1,0,.82,2,2,0,0,0-.06.53c-2.48,0-5-.07-7.44-.08-2.14,0-4.29,0-6.43.05Zm29.93-77.31a14.62,14.62,0,0,0-.25,1.57c0,2.18.08,4.36.12,6.54,0,.26,0,.52,0,.79l-.92-.06-2.22.21a14.61,14.61,0,0,0-1.74-.16c-2.3-.06-4.59,0-6.89,0h-.12c0-.41.06-.85.08-1.35s-.12-1.37-.21-2.21a14.61,14.61,0,0,0,.16-1.74c.06-2.3,0-4.59,0-6.89v-.08c1.13.12,2.26.22,3.39.35a12.31,12.31,0,0,0,1.58.24c2.17,0,4.35-.08,6.53-.12l.73,0C690.78,325.07,690.69,326.06,690.58,327.05Zm-14.64,11.22a2.44,2.44,0,0,1,0,.27,7.5,7.5,0,0,0,0,1.34c.07,1.22.18,2.43.25,3.65s0,2.15.1,3.22a64.29,64.29,0,0,1,.1,6.8c-.37,0-.74-.07-1.11-.08-.78,0-1.56,0-2.34,0l-6.27-.09-5.28,0h-.31c-.08-3.05-.11-6.1-.18-9.15,0-2-.12-4.07-.17-6.11.78,0,1.55.06,2.33.07,2.2,0,4.41.07,6.61.08Zm-35.3,22.24c.05,1.93.25,3.86.29,5.79,0,1.67,0,3.33-.11,5l-3.32.09c-2.65.07-5.3.12-8,.21-1.38,0-2.76.14-4.14.18v-.1c.12-2.5.3-5,.42-7.51a36.61,36.61,0,0,0-.16-6.62c0-.24,0-.48-.07-.72h.07c1.19,0,2.37.12,3.56.16.81,0,1.62,0,2.42,0,1.46,0,2.93.15,4.39.11s3.06-.21,4.6-.23C640.63,358.08,640.61,359.29,640.64,360.51Zm-18.38-.14q.13,3,.2,6c0,1-.12,2-.11,2.95,0,.8,0,1.59,0,2.38l-1.37-.08-2.22.22a14.44,14.44,0,0,0-1.74-.17c-2.24-.05-4.49,0-6.74,0a114.81,114.81,0,0,0,.24-12c0-1.05,0-2.1-.06-3.15,1,.1,2,.19,3,.31a14.62,14.62,0,0,0,1.57.25c2.18,0,4.36-.09,6.54-.13H622C622.07,358,622.2,359.2,622.26,360.37Zm-14.41-4.23c0,1.45,0,2.91,0,4.37,0,1.93.25,3.86.28,5.79,0,1.77,0,3.53-.11,5.3-2.76,0-5.52-.08-8.29-.09-2.15,0-4.29,0-6.44.05h-.66c.12-2.47.29-4.94.41-7.4a36.61,36.61,0,0,0-.16-6.62c0-.39-.08-.78-.12-1.18h.15c1.7,0,3.4-.08,5.1-.14.63,0,1.25-.14,1.88-.13C602.54,356.1,605.2,356,607.85,356.14Zm-18.68.3a2.43,2.43,0,0,1,0,.27c.09,1.22.24,2.44.3,3.66.09,2,.16,4,.19,6,0,1-.11,2-.1,2.95,0,.71,0,1.41,0,2.12a115,115,0,0,0-12-.24l-2.92.05c.35-3.87.21-7.75.2-11.63,0-.92,0-1.84-.05-2.76,1.18-.09,2.35-.22,3.53-.28,2-.09,4-.16,6-.19,1,0,2,.11,3,.1C587.91,356.48,588.54,356.45,589.17,356.44Zm-17.46-18.27c0,.13,0,.25,0,.37a10,10,0,0,0,0,1.34c.08,1.22.19,2.43.25,3.65s0,2.15.11,3.22a62.22,62.22,0,0,1,.09,6.69l-.55,0c-3.14.1-6.28.12-9.42.19l-5.32.15c0-.06,0-.13,0-.19-.09-3.13-.12-6.27-.19-9.41,0-1.86-.1-3.72-.15-5.59h0a7.39,7.39,0,0,0,1.33,0c1.22-.07,2.44-.18,3.66-.24s2.15,0,3.21-.11A68.16,68.16,0,0,1,571.71,338.17Zm-30.29-5.83a17.07,17.07,0,0,0,.17-1.74c0-2.3,0-4.59,0-6.89v-.08c1.13.12,2.26.22,3.39.35a12.31,12.31,0,0,0,1.58.24c2.18,0,4.36-.08,6.53-.12l.74,0c-.11,1-.2,2-.31,3a14.62,14.62,0,0,0-.25,1.57c0,2.18.08,4.36.13,6.54,0,.26,0,.52,0,.79l-.93-.06-2.22.21a14.61,14.61,0,0,0-1.74-.16c-2.29-.06-4.59,0-6.88,0h-.13c0-.41.06-.85.08-1.35S541.51,333.18,541.42,332.34Zm-2.08,23.8c0,1.45,0,2.91,0,4.37.06,1.93.26,3.86.29,5.79,0,1.77-.06,3.53-.11,5.3-2.76,0-5.53-.08-8.29-.09-2.15,0-4.29,0-6.44.05h-.67c.13-2.47.29-4.94.42-7.4a38.52,38.52,0,0,0-.16-6.62c0-.39-.08-.78-.12-1.18h.15c1.7,0,3.4-.08,5.1-.14.63,0,1.25-.14,1.87-.13C534,356.1,536.68,356,539.34,356.14Zm-15.72,48.22v-.05a15.07,15.07,0,0,0,.08-2.93,22.38,22.38,0,0,1-.11-2.32c0-2.12.08-4.23.14-6.35,0-.2,0-.4,0-.61h.62c1.7,0,3.4-.08,5.1-.14.63,0,1.25-.13,1.87-.13,2.35,0,4.71-.07,7.06,0q0,.3,0,.6c0,1.22.1,2.44.14,3.66a3.31,3.31,0,0,1-.06.7,13.49,13.49,0,0,0,.08,5.22c.07.34.13.69.18,1a2.8,2.8,0,0,1,0,.82,2.46,2.46,0,0,0-.06.53c-2.48,0-4.95-.07-7.43-.08-2.15,0-4.29,0-6.44.05Zm32.8.23c0-.09,0-.19,0-.28a15.07,15.07,0,0,0,.08-2.93,22.38,22.38,0,0,1-.11-2.32c0-2.12.08-4.23.14-6.35,0,0,0-.11,0-.16h.61c1.19,0,2.38.11,3.57.15.8,0,1.61,0,2.42,0,1.46,0,2.92.15,4.38.11,1.23,0,2.45-.14,3.68-.2,0,1.16.09,2.31.13,3.47a3.31,3.31,0,0,1-.06.7,13.49,13.49,0,0,0,.08,5.22c.07.34.13.69.18,1a3.19,3.19,0,0,1,0,.82,1.15,1.15,0,0,0,0,.26l-2.49.07-8,.21C559.5,404.44,558,404.57,556.42,404.59Zm18.23,15c-.07-2.65-.13-5.3-.21-8-.05-1.54-.18-3.09-.2-4.63v-.25c1.41,0,2.83,0,4.24,0,1.93-.05,3.86-.25,5.79-.28,1.64,0,3.29,0,4.93.1,0,.39,0,.79,0,1.18,0,1.19-.11,2.38-.15,3.57,0,.8,0,1.61,0,2.42,0,1.46-.15,2.92-.11,4.38,0,1.28.15,2.56.21,3.83-2.35-.12-4.69-.27-7-.39a38.52,38.52,0,0,0-6.62.16l-.8.08Zm17.91,2.33c-.09-3.05-.12-6.1-.18-9.15,0-2-.13-4.07-.17-6.11l2.32.08c2.21,0,4.41.06,6.62.08l6.28,0a2.26,2.26,0,0,0,0,.26,7.5,7.5,0,0,0,0,1.34c.07,1.22.18,2.44.24,3.65s0,2.16.11,3.22a64.47,64.47,0,0,1,.09,6.81c-.37,0-.74-.07-1.11-.08-.77,0-1.55,0-2.33,0l-6.27-.09-5.28,0Zm29.7,7c.09,2,.16,4,.2,6,0,1-.12,2-.11,3,0,.79,0,1.58,0,2.38l-1.37-.08-2.22.21a16.8,16.8,0,0,0-1.74-.17c-2.24-.05-4.49,0-6.74,0a114.76,114.76,0,0,0,.24-12c0-1.05,0-2.1-.06-3.15l3,.31a14.62,14.62,0,0,0,1.57.25c2.18,0,4.36-.08,6.54-.12H622C622.07,426.56,622.2,427.72,622.26,428.88Zm20.9-9.34c-.07-2.65-.12-5.3-.21-8,0-1.54-.18-3.09-.2-4.63,0-.08,0-.17,0-.25,1.41,0,2.82,0,4.23,0,1.93-.05,3.86-.25,5.79-.28,1.64,0,3.29,0,4.94.1,0,.39,0,.79,0,1.18,0,1.19-.12,2.38-.15,3.57,0,.8,0,1.61,0,2.42,0,1.46-.15,2.92-.11,4.38,0,1.28.15,2.56.21,3.83-2.34-.12-4.68-.27-7-.39a38.41,38.41,0,0,0-6.61.16l-.81.08Zm17.91,2.33c-.08-3.05-.11-6.1-.18-9.15,0-2-.12-4.07-.17-6.11l2.33.08c2.2,0,4.41.06,6.61.08l6.28,0a2.26,2.26,0,0,1,0,.26,7.5,7.5,0,0,0,0,1.34c.07,1.22.18,2.44.25,3.65s0,2.16.1,3.22a64.48,64.48,0,0,1,.1,6.81c-.37,0-.74-.07-1.11-.08-.78,0-1.56,0-2.34,0l-6.27-.09-5.28,0Zm28.48-17.47-2.22.22a14.64,14.64,0,0,0-1.74-.17c-2.3-.05-4.59,0-6.89,0h-.12c0-.42.06-.86.08-1.35s-.12-1.37-.21-2.22a14.61,14.61,0,0,0,.16-1.74c.06-2.29,0-4.59,0-6.88v-.09c1.13.12,2.26.22,3.39.35a14.4,14.4,0,0,0,1.58.25c2.17,0,4.35-.08,6.53-.13l.73,0c-.1,1-.19,2-.3,3a14.4,14.4,0,0,0-.25,1.58c0,2.18.08,4.36.12,6.53,0,.27,0,.53,0,.79Zm1.67-14.79-.43,0a15.07,15.07,0,0,0-2.93-.08c-.77.06-1.55.12-2.32.11q-3.18,0-6.35-.15a4.38,4.38,0,0,1-.51,0c0-2.56.07-5.13.09-7.7,0-2.15,0-4.3-.06-6.44v-.49h.19c1.22,0,2.44-.1,3.65-.14a3.35,3.35,0,0,1,.71.06,13.49,13.49,0,0,0,5.22-.08c.34-.07.68-.13,1-.18a3.12,3.12,0,0,1,.81,0,2.14,2.14,0,0,0,.65.08V375q.06,2.55.15,5.1c0,.62.13,1.25.13,1.87C691.25,384.48,691.33,387.05,691.22,389.61Zm-.45-29.24q.15,3,.2,6c0,1-.11,2-.1,2.95,0,.8,0,1.59,0,2.38l-1.36-.08-2.22.22a14.64,14.64,0,0,0-1.74-.17c-2.25-.05-4.5,0-6.74,0a117.61,117.61,0,0,0,.23-12c0-1.05,0-2.1-.05-3.15,1,.1,2,.19,3,.31a14.4,14.4,0,0,0,1.58.25c2.17,0,4.35-.09,6.53-.13h.34C690.58,358,690.72,359.2,690.77,360.37Zm-15.2-32.81a4.17,4.17,0,0,1-.06.71,13.49,13.49,0,0,0,.07,5.22c.07.34.13.68.19,1a3.17,3.17,0,0,1,0,.82,2,2,0,0,0-.06.54l-7.44-.09c-2.14,0-4.29.05-6.43.06h-1.16v-.05a14.32,14.32,0,0,0,.08-2.93c-.06-.77-.11-1.55-.1-2.32q0-3.18.14-6.35c0-.21,0-.41,0-.61h.62l5.1-.14c.62,0,1.25-.14,1.87-.14,2.35,0,4.7-.07,7.05,0a4.1,4.1,0,0,0,0,.61C675.46,325.13,675.52,326.34,675.57,327.56Zm-35.34,10.61c0,.13,0,.25,0,.37a7.5,7.5,0,0,0,0,1.34c.07,1.22.18,2.43.25,3.65s0,2.15.1,3.22a62.23,62.23,0,0,1,.1,6.69c-.19,0-.37,0-.56,0-3.14.1-6.27.12-9.41.19-1.78,0-3.55.1-5.32.15a1.21,1.21,0,0,1,0-.19c-.1-3.13-.12-6.27-.19-9.41,0-1.86-.11-3.72-.16-5.59h0a7.5,7.5,0,0,0,1.34,0c1.22-.07,2.43-.18,3.65-.24s2.15,0,3.21-.11A68.32,68.32,0,0,1,640.23,338.17Zm-32.8.1a2.44,2.44,0,0,0,0,.27,7.5,7.5,0,0,0,0,1.34c.07,1.22.18,2.43.24,3.65s0,2.15.11,3.22a64.28,64.28,0,0,1,.09,6.8c-.37,0-.74-.07-1.11-.08-.77,0-1.55,0-2.33,0l-6.27-.09-5.28,0h-.31c-.09-3.05-.12-6.1-.18-9.15,0-2-.13-4.07-.17-6.11.77,0,1.55.06,2.32.07,2.21,0,4.41.07,6.62.08Zm-18.22.92c0,1.19-.11,2.38-.15,3.56,0,.81,0,1.62,0,2.43,0,1.46-.15,2.92-.11,4.38,0,1.28.15,2.55.21,3.83-2.35-.12-4.69-.27-7-.39a36.61,36.61,0,0,0-6.62.16l-.8.08-.06-2.21c-.07-2.65-.13-5.31-.21-8-.05-1.55-.18-3.09-.2-4.64v-.24c1.41,0,2.83,0,4.24,0,1.93-.05,3.86-.25,5.79-.29,1.64,0,3.29.05,4.93.1C589.21,338.4,589.22,338.79,589.21,339.19Zm-18-15.09c0,1.15.09,2.31.13,3.46a3.35,3.35,0,0,1-.06.71,13.49,13.49,0,0,0,.08,5.22q.1.51.18,1a3.18,3.18,0,0,1,0,.82,1.24,1.24,0,0,0,0,.27l-2.49.07c-2.65.07-5.3.12-8,.21-1.54.05-3.08.18-4.62.2,0-.1,0-.19,0-.28a15.07,15.07,0,0,0,.08-2.93,22.52,22.52,0,0,1-.11-2.32q0-3.18.14-6.35c0-.06,0-.11,0-.16h.61c1.19,0,2.38.12,3.57.15.8,0,1.61,0,2.42,0,1.46,0,2.92.15,4.38.11C568.75,324.26,570,324.16,571.2,324.1Zm-32.28,14.17c0,.09,0,.18,0,.27a7.5,7.5,0,0,0,0,1.34c.08,1.22.19,2.43.25,3.65s0,2.15.1,3.22a61.72,61.72,0,0,1,.1,6.8c-.37,0-.74-.07-1.11-.08-.78,0-1.55,0-2.33,0l-6.27-.09-5.29,0H524c-.08-3.05-.11-6.1-.18-9.15,0-2-.12-4.07-.17-6.11.78,0,1.55.06,2.33.07,2.21,0,4.41.07,6.62.08Zm-35.29,38.3c0,2.2-.06,4.41-.08,6.62,0,2,0,4,0,6l-.46,0c-3.13.09-6.27.11-9.41.18l-5.38.15c0-.24,0-.49.05-.74,0-.78,0-1.56,0-2.33,0-2.09.06-4.18.08-6.28,0-1.76,0-3.52,0-5.28,0-.18,0-.36,0-.54.3,0,.6,0,.89,0,1.22-.08,2.43-.19,3.65-.25,1.07-.06,2.15,0,3.22-.11,2.5-.23,5-.1,7.51-.09C503.68,374.79,503.65,375.68,503.63,376.57Zm-30.72,24.28a14.61,14.61,0,0,0,.16-1.74c.06-2.29,0-4.59,0-6.88v-.09c1.13.12,2.26.22,3.39.35a14.4,14.4,0,0,0,1.58.25c2.17,0,4.35-.08,6.53-.13l.73,0c-.1,1-.19,2-.3,3a14.4,14.4,0,0,0-.25,1.58c0,2.18.08,4.36.12,6.53,0,.27,0,.53,0,.79l-.93-.06-2.21.22a14.64,14.64,0,0,0-1.74-.17c-2.3-.05-4.59,0-6.89,0H473c0-.42.06-.86.08-1.35S473,401.7,472.91,400.85Zm15,3.74c0-.09,0-.19,0-.28a13.65,13.65,0,0,0,.08-2.93c-.06-.77-.11-1.54-.1-2.32,0-2.12.08-4.23.14-6.35,0,0,0-.11,0-.16h.62c1.19,0,2.38.11,3.57.15.8,0,1.61,0,2.42,0,1.46,0,2.92.15,4.38.11,1.23,0,2.45-.14,3.68-.2,0,1.16.09,2.31.13,3.47a4.14,4.14,0,0,1-.06.7,13.49,13.49,0,0,0,.08,5.22c.07.34.12.69.18,1a2.8,2.8,0,0,1,0,.82c0,.09,0,.17,0,.26l-2.48.07c-2.65.07-5.31.13-8,.21C491,404.44,489.45,404.57,487.91,404.59Zm17.79-3.74a17.07,17.07,0,0,0,.17-1.74c.05-2.17,0-4.35,0-6.52h.26c1.22-.09,2.44-.24,3.66-.3,2-.09,4-.16,6-.19,1,0,2,.11,3,.1.79,0,1.57,0,2.35,0-.12,1.13-.22,2.27-.35,3.4a14.4,14.4,0,0,0-.25,1.58c0,2.18.08,4.36.12,6.53,0,.17,0,.34,0,.51-3.86-.35-7.73-.21-11.59-.2-1.07,0-2.14,0-3.2.06,0-.31,0-.62.05-1C505.85,402.48,505.79,401.7,505.7,400.85Zm48.05,28c.09,2,.16,4,.19,6,0,1-.11,2-.1,3,0,.79,0,1.58,0,2.38l-1.36-.08-2.22.21a17.07,17.07,0,0,0-1.74-.17c-2.25-.05-4.49,0-6.74,0a112.09,112.09,0,0,0,.23-12c0-1.05,0-2.1,0-3.15l3,.31a14.4,14.4,0,0,0,1.58.25c2.18,0,4.36-.08,6.53-.12h.35C553.56,426.56,553.69,427.72,553.75,428.88Zm3.09-6.75c-.09-3.13-.12-6.27-.19-9.41,0-1.86-.1-3.72-.15-5.58h0a8.44,8.44,0,0,0,1.33,0c1.22-.08,2.44-.19,3.66-.25s2.15,0,3.21-.1a65.44,65.44,0,0,1,7-.1c0,.12,0,.24,0,.36a10,10,0,0,0,0,1.34c.08,1.22.19,2.44.25,3.65s0,2.16.11,3.22a62.37,62.37,0,0,1,.09,6.7l-.55,0c-3.14.09-6.28.12-9.42.19l-5.32.14C556.85,422.26,556.84,422.2,556.84,422.13Zm18,6c0-.92,0-1.83-.05-2.75,1.18-.09,2.35-.23,3.53-.29,2-.09,4-.16,6-.19,1,0,2,.11,3,.1l1.89,0a2.43,2.43,0,0,1,0,.27c.09,1.21.24,2.43.3,3.65.09,2,.16,4,.19,6,0,1-.11,2-.1,3,0,.7,0,1.41,0,2.11a112.28,112.28,0,0,0-12-.23c-1,0-2,0-2.92.05C575,435.88,574.86,432,574.85,428.12Zm18-2.06c0-.39-.08-.78-.12-1.17h.15c1.7,0,3.4-.08,5.1-.14.63,0,1.25-.13,1.88-.13,2.65,0,5.31-.09,8,0,0,1.46,0,2.92,0,4.37,0,1.94.25,3.86.28,5.8,0,1.76,0,3.53-.11,5.29-2.76,0-5.52-.08-8.29-.09-2.15,0-4.29,0-6.44.06h-.66c.12-2.47.29-4.93.41-7.4A36.61,36.61,0,0,0,592.88,426.06Zm29.83,32.06-.43,0a15.09,15.09,0,0,0-2.93-.08,22.52,22.52,0,0,1-2.32.11q-3.18,0-6.36-.14l-.5,0c0-2.57.07-5.14.08-7.71,0-2.15,0-4.29,0-6.44,0-.16,0-.32,0-.49h.2c1.22,0,2.43-.1,3.65-.14a3.41,3.41,0,0,1,.71.06,13.49,13.49,0,0,0,5.22-.08l1-.18a2.78,2.78,0,0,1,.82,0,2.06,2.06,0,0,0,.64.07c0,.12,0,.23,0,.34,0,1.7.08,3.4.14,5.1,0,.63.14,1.25.13,1.88C622.73,453,622.81,455.56,622.71,458.12Zm2.7-17.83v-.1c.12-2.5.3-5,.42-7.51a36.61,36.61,0,0,0-.16-6.62c0-.24,0-.48-.07-.72h.07c1.19,0,2.37.11,3.56.15.81,0,1.62,0,2.42,0,1.46,0,2.93.15,4.39.11s3.06-.2,4.6-.23c0,1.22,0,2.44,0,3.65.05,1.94.25,3.86.29,5.8,0,1.66,0,3.32-.11,5-1.1,0-2.21.07-3.32.09-2.65.07-5.3.13-8,.21C628.17,440.16,626.79,440.26,625.41,440.29Zm18-12.17c0-.92,0-1.83-.05-2.75,1.18-.09,2.35-.23,3.53-.29,2-.09,4-.16,6-.19,1,0,2,.11,2.95.1l1.9,0a2.43,2.43,0,0,0,0,.27c.09,1.21.23,2.43.29,3.65.09,2,.16,4,.2,6,0,1-.11,2-.11,3,0,.7,0,1.41,0,2.11a112.23,112.23,0,0,0-12-.23c-1,0-2,0-2.92.05C643.52,435.88,643.37,432,643.36,428.12Zm18-2.06c0-.39-.09-.78-.13-1.17h.16c1.7,0,3.4-.08,5.1-.14.62,0,1.25-.13,1.87-.13,2.65,0,5.31-.09,8,0,0,1.46,0,2.92,0,4.37,0,1.94.26,3.86.29,5.8,0,1.76-.06,3.53-.11,5.29-2.77,0-5.53-.08-8.3-.09-2.14,0-4.29,0-6.43.06h-.67c.12-2.47.29-4.93.42-7.4A38.52,38.52,0,0,0,661.4,426.06ZM706,371.39c-2.65.07-5.31.12-8,.21-1.38,0-2.75.14-4.13.18v-.1c.12-2.5.29-5,.42-7.51a38.52,38.52,0,0,0-.16-6.62c0-.24-.05-.48-.08-.72h.07c1.19,0,2.38.12,3.57.16.8,0,1.61,0,2.42,0,1.46,0,2.92.15,4.38.11s3.07-.21,4.6-.23c0,1.22,0,2.43,0,3.65.06,1.93.26,3.86.29,5.79,0,1.67-.05,3.33-.1,5Zm2.59-17.92c-3.13.1-6.27.12-9.41.19l-5.32.15c0-.06,0-.13,0-.19-.09-3.13-.12-6.27-.19-9.41,0-1.86-.11-3.72-.15-5.59h0a7.5,7.5,0,0,0,1.34,0c1.22-.07,2.43-.18,3.65-.24s2.15,0,3.22-.11a68.12,68.12,0,0,1,7-.1c0,.13,0,.25,0,.37a7.5,7.5,0,0,0,0,1.34c.07,1.22.19,2.43.25,3.65s0,2.15.1,3.22a62.23,62.23,0,0,1,.1,6.69C709,353.45,708.8,353.47,708.61,353.47Zm-.38-29.37c0,1.15.09,2.31.13,3.46a4.17,4.17,0,0,1-.06.71,13.49,13.49,0,0,0,.08,5.22q.11.51.18,1a2.78,2.78,0,0,1,0,.82c0,.09,0,.18,0,.27l-2.48.07c-2.65.07-5.31.12-8,.21-1.54.05-3.07.18-4.61.2,0-.1,0-.19,0-.28a13.65,13.65,0,0,0,.08-2.93c-.06-.77-.11-1.55-.1-2.32,0-2.12.08-4.24.14-6.35,0-.06,0-.11,0-.16h.62c1.19,0,2.38.12,3.57.15.8,0,1.61,0,2.42,0,1.46,0,2.92.15,4.38.11C705.78,324.26,707,324.16,708.23,324.1ZM690.32,306a2.12,2.12,0,0,0,.65.07v.35c0,1.7.09,3.4.15,5.09,0,.63.13,1.25.13,1.88,0,2.56.08,5.12,0,7.69l-.43,0a14.32,14.32,0,0,0-2.93-.08,22.5,22.5,0,0,1-2.32.1q-3.18,0-6.35-.14a4.38,4.38,0,0,1-.51,0c0-2.57.07-5.14.09-7.71,0-2.14,0-4.29-.06-6.44v-.48h.19c1.22,0,2.44-.09,3.65-.14a4.17,4.17,0,0,1,.71.06,13.49,13.49,0,0,0,5.22-.07l1-.19A3.11,3.11,0,0,1,690.32,306Zm-14-.54.11.12c0,.82-.07,1.64-.08,2.45,0,2.21-.06,4.42-.08,6.62q0,3,0,6.08c-.34,0-.68-.06-1-.07-.78,0-1.56,0-2.34,0l-6.27-.09-5.28,0-.32,0c0-.1,0-.2,0-.29,0-.78,0-1.56,0-2.34,0-2.09.07-4.18.09-6.27,0-1.76,0-3.52,0-5.28,0-.3,0-.6,0-.9a1,1,0,0,1,0-.17c.63,0,1.25.05,1.88.06,2.2,0,4.41.06,6.61.08ZM639.71,324.1c0,1.15.09,2.31.13,3.46a3.35,3.35,0,0,1-.05.71,13.49,13.49,0,0,0,.07,5.22c.07.34.13.68.19,1a3.17,3.17,0,0,1,0,.82,1.24,1.24,0,0,0,0,.27l-2.49.07c-2.65.07-5.3.12-8,.21-1.54.05-3.08.18-4.61.2,0-.1,0-.19,0-.28a15.07,15.07,0,0,0,.08-2.93c-.06-.77-.12-1.55-.11-2.32q0-3.18.15-6.35c0-.06,0-.11,0-.16h.62c1.19,0,2.37.12,3.56.15.81,0,1.62,0,2.42,0,1.46,0,2.93.15,4.39.11C637.26,324.26,638.49,324.16,639.71,324.1ZM621.81,306a2.06,2.06,0,0,0,.64.07c0,.12,0,.23,0,.35,0,1.7.08,3.4.14,5.09,0,.63.14,1.25.13,1.88,0,2.56.08,5.12,0,7.69l-.43,0a14.34,14.34,0,0,0-2.93-.08,22.5,22.5,0,0,1-2.32.1q-3.18,0-6.36-.14a4.38,4.38,0,0,1-.5,0c0-2.57.07-5.14.08-7.71,0-2.14,0-4.29,0-6.44,0-.16,0-.32,0-.48h.2c1.22,0,2.43-.09,3.65-.14a4.25,4.25,0,0,1,.71.06,13.49,13.49,0,0,0,5.22-.07l1-.19A3.17,3.17,0,0,1,621.81,306Zm-14.76,21.54a3.35,3.35,0,0,1-.06.71,13.49,13.49,0,0,0,.08,5.22q.1.51.18,1a2.79,2.79,0,0,1,0,.82,2.58,2.58,0,0,0-.07.54q-3.7-.06-7.43-.09c-2.15,0-4.29.05-6.44.06h-1.16v-.05a15.07,15.07,0,0,0,.08-2.93c-.06-.77-.12-1.55-.11-2.32q0-3.18.15-6.35a6,6,0,0,1,0-.61h.62l5.1-.14c.63,0,1.25-.14,1.88-.14,2.35,0,4.7-.07,7.05,0a6.08,6.08,0,0,0,0,.61C606.94,325.13,607,326.34,607.05,327.56Zm-17.78-.51a14.62,14.62,0,0,0-.25,1.57c0,2.18.08,4.36.13,6.54,0,.17,0,.34,0,.51-3.86-.35-7.73-.21-11.59-.2-1.07,0-2.13,0-3.2.06,0-.31,0-.63.06-1-.06-.58-.13-1.37-.22-2.21a14.64,14.64,0,0,0,.17-1.74c0-2.18,0-4.35,0-6.53h.27c1.22-.09,2.43-.23,3.65-.29q3-.13,6-.2c1,0,2,.11,3,.11l2.34-.05C589.5,324.78,589.4,325.91,589.27,327.05Zm-17.13-19q-.06,3.31-.07,6.62c0,2,0,4,0,6l-.45,0c-3.14.09-6.28.12-9.42.19l-5.38.15c0-.25.05-.5.06-.74,0-.78,0-1.56,0-2.34,0-2.09.06-4.18.09-6.27,0-1.76,0-3.52,0-5.28,0-.18,0-.36,0-.54a8.75,8.75,0,0,0,.89,0c1.22-.07,2.44-.18,3.66-.25s2.15,0,3.21-.1a72.56,72.56,0,0,1,7.52-.09C572.2,306.28,572.16,307.17,572.14,308.05Zm-33.6,19.51a3.35,3.35,0,0,1-.06.71,13.49,13.49,0,0,0,.08,5.22q.11.51.18,1a2.78,2.78,0,0,1,0,.82,2.55,2.55,0,0,0-.06.54c-2.48,0-4.95-.07-7.43-.09-2.15,0-4.29.05-6.44.06h-1.16v-.05a15.07,15.07,0,0,0,.08-2.93,22.52,22.52,0,0,1-.11-2.32q0-3.18.14-6.35c0-.21,0-.41,0-.61h.62l5.1-.14c.63,0,1.25-.14,1.87-.14,2.35,0,4.71-.07,7.06,0a6.08,6.08,0,0,0,0,.61C538.43,325.13,538.5,326.34,538.54,327.56Zm-34.93,32.95c.05,1.93.26,3.86.29,5.79,0,1.67,0,3.33-.1,5l-3.32.09c-2.65.07-5.31.12-8,.21-1.38,0-2.75.14-4.13.18a.34.34,0,0,1,0-.1c.12-2.5.29-5,.42-7.51a38.52,38.52,0,0,0-.16-6.62c0-.24,0-.48-.08-.72h.07c1.19,0,2.38.12,3.57.16.8,0,1.61,0,2.42,0,1.46,0,2.92.15,4.38.11s3.07-.21,4.6-.23C503.6,358.08,503.58,359.29,503.61,360.51Zm-18.38-.14c.1,2,.16,4,.2,6,0,1-.11,2-.11,2.95,0,.8,0,1.59.05,2.38l-1.37-.08-2.21.22a14.64,14.64,0,0,0-1.74-.17c-2.25-.05-4.5,0-6.74,0a117.61,117.61,0,0,0,.23-12c0-1.05,0-2.1-.05-3.15,1,.1,2,.19,3,.31a14.4,14.4,0,0,0,1.58.25c2.17,0,4.35-.09,6.53-.13H485C485,358,485.18,359.2,485.23,360.37Zm20.9,59.17c-.06-2.65-.12-5.3-.2-8-.05-1.54-.19-3.09-.2-4.63v-.25c1.41,0,2.82,0,4.23,0,1.93-.05,3.86-.25,5.79-.28,1.65,0,3.29,0,4.94.1,0,.39,0,.79,0,1.18,0,1.19-.12,2.38-.15,3.57,0,.8,0,1.61,0,2.42,0,1.46-.14,2.92-.1,4.38,0,1.28.15,2.56.2,3.83l-7-.39a38.52,38.52,0,0,0-6.62.16l-.8.08C506.18,421,506.15,420.28,506.13,419.54Zm18.24,6.52c0-.39-.08-.78-.12-1.17h.15c1.7,0,3.4-.08,5.1-.14.63,0,1.25-.13,1.87-.13,2.66,0,5.31-.09,8,0,0,1.46,0,2.92,0,4.37.06,1.94.26,3.86.29,5.8,0,1.76-.06,3.53-.11,5.29-2.76,0-5.53-.08-8.29-.09-2.15,0-4.29,0-6.44.06h-.67c.13-2.47.29-4.93.42-7.4A38.52,38.52,0,0,0,524.37,426.06Zm29.82,32.06-.43,0a15,15,0,0,0-2.92-.08,22.71,22.71,0,0,1-2.33.11c-2.12,0-4.23-.08-6.35-.14l-.51,0c0-2.57.08-5.14.09-7.71,0-2.15,0-4.29,0-6.44,0-.16,0-.32,0-.49h.19c1.22,0,2.44-.1,3.66-.14a3.31,3.31,0,0,1,.7.06,13.54,13.54,0,0,0,5.23-.08l1-.18a2.78,2.78,0,0,1,.82,0,2,2,0,0,0,.64.07c0,.12,0,.23,0,.34,0,1.7.08,3.4.14,5.1,0,.63.13,1.25.13,1.88C554.22,453,554.3,455.56,554.19,458.12Zm2.71-17.83v-.1c.12-2.5.29-5,.42-7.51a38.52,38.52,0,0,0-.16-6.62c0-.24,0-.48-.07-.72h.06c1.19,0,2.38.11,3.57.15.8,0,1.61,0,2.42,0,1.46,0,2.92.15,4.38.11s3.07-.2,4.61-.23c0,1.22,0,2.44,0,3.65,0,1.94.25,3.86.28,5.8,0,1.66,0,3.32-.1,5-1.11,0-2.21.07-3.32.09-2.65.07-5.3.13-8,.21C559.66,440.16,558.28,440.26,556.9,440.29Zm17.58,3.55c0-.47,0-.94,0-1.42,1.33,0,2.67,0,4,0,1.93-.06,3.86-.26,5.79-.29s3.58.06,5.38.11c0,.41,0,.81,0,1.21,0,1.7.08,3.4.14,5.1,0,.63.14,1.25.13,1.88,0,2.4.08,4.81,0,7.21a2.8,2.8,0,0,1-.29,0c-2.51-.12-5-.29-7.52-.42a38.52,38.52,0,0,0-6.62.16l-1.06.11c0-2.41.07-4.81.08-7.22C574.54,448.13,574.49,446,574.48,443.84Zm18.09,13.46c0-.77,0-1.55,0-2.33l.09-6.27c0-1.76,0-3.52,0-5.29,0-.29,0-.59,0-.89v-.17l1.87.06c2.21,0,4.41.06,6.62.08l6.69,0,.1.12c0,.82-.06,1.63-.08,2.45,0,2.21-.06,4.41-.07,6.62,0,2,0,4.05,0,6.08-.33,0-.67-.06-1-.07-.77,0-1.55,0-2.33,0l-6.27-.09-5.28,0h-.32C592.55,457.5,592.56,457.4,592.57,457.3ZM643,443.84c0-.47,0-.94,0-1.42,1.34,0,2.67,0,4,0,1.93-.06,3.86-.26,5.79-.29s3.59.06,5.38.11c0,.41,0,.81,0,1.21,0,1.7.09,3.4.14,5.1,0,.63.14,1.25.14,1.88,0,2.4.07,4.81,0,7.21a2.81,2.81,0,0,1-.29,0c-2.51-.12-5-.29-7.52-.42a38.41,38.41,0,0,0-6.61.16l-1.06.11c0-2.41.06-4.81.08-7.22C643.06,448.13,643,446,643,443.84Zm18.09,13.46c0-.77,0-1.55,0-2.33,0-2.09.07-4.18.09-6.27,0-1.76,0-3.52,0-5.29,0-.29,0-.59,0-.89a1,1,0,0,1,0-.17c.63,0,1.25,0,1.88.06,2.2,0,4.41.06,6.61.08l6.69,0,.11.12c0,.82-.07,1.63-.08,2.45,0,2.21-.06,4.41-.08,6.62,0,2,0,4.05,0,6.08-.34,0-.68-.06-1-.07-.78,0-1.56,0-2.34,0l-6.27-.09-5.28,0h-.32C661.06,457.5,661.08,457.4,661.08,457.3Zm28.47,15.62c-.59.06-1.38.12-2.22.21a17.07,17.07,0,0,0-1.74-.17c-2.3,0-4.59,0-6.89,0h-.12c0-.42.06-.86.08-1.35s-.12-1.37-.21-2.22a14.61,14.61,0,0,0,.16-1.74c.06-2.29,0-4.59,0-6.88v-.09c1.13.12,2.26.22,3.39.35a14.4,14.4,0,0,0,1.58.25c2.17,0,4.35-.08,6.53-.12l.73,0c-.1,1-.19,2-.3,3a14.23,14.23,0,0,0-.25,1.57c0,2.18.08,4.36.12,6.54,0,.26,0,.52,0,.78Zm1.67-14.8-.43,0a15.07,15.07,0,0,0-2.93-.08,22.52,22.52,0,0,1-2.32.11q-3.18,0-6.35-.14l-.51,0c0-2.57.07-5.14.09-7.71,0-2.15,0-4.29-.06-6.44v-.49h.19c1.22,0,2.44-.1,3.65-.14a3.35,3.35,0,0,1,.71.06,13.49,13.49,0,0,0,5.22-.08c.34-.07.68-.13,1-.18a2.73,2.73,0,0,1,.81,0,2.12,2.12,0,0,0,.65.07v.34q.06,2.55.15,5.1c0,.63.13,1.25.13,1.88C691.25,453,691.33,455.56,691.22,458.12Zm-.45-29.24c.1,2,.17,4,.2,6,0,1-.11,2-.1,3,0,.79,0,1.58,0,2.38l-1.36-.08c-.59.06-1.38.12-2.22.21a17.07,17.07,0,0,0-1.74-.17c-2.25-.05-4.5,0-6.74,0a117.55,117.55,0,0,0,.23-12c0-1.05,0-2.1-.05-3.15l3,.31a14.4,14.4,0,0,0,1.58.25c2.17,0,4.35-.08,6.53-.12h.34C690.58,426.56,690.72,427.72,690.77,428.88Zm2.68-24.29c0-.09,0-.19,0-.28a13.65,13.65,0,0,0,.08-2.93c-.06-.77-.11-1.54-.1-2.32,0-2.12.08-4.23.14-6.35,0,0,0-.11,0-.16h.62c1.19,0,2.38.11,3.57.15.8,0,1.61,0,2.42,0,1.46,0,2.92.15,4.38.11,1.23,0,2.45-.14,3.68-.2,0,1.16.09,2.31.13,3.47a4.14,4.14,0,0,1-.06.7,13.49,13.49,0,0,0,.08,5.22c.07.34.13.69.18,1a2.8,2.8,0,0,1,0,.82c0,.09,0,.17,0,.26l-2.48.07c-2.65.07-5.31.13-8,.21C696.52,404.44,695,404.57,693.45,404.59Zm17.79-3.74a17.07,17.07,0,0,0,.17-1.74c.05-2.17,0-4.35,0-6.52h.26c1.22-.09,2.44-.24,3.66-.3,2-.09,4-.16,6-.19,1,0,2,.11,3,.1.78,0,1.56,0,2.34,0-.12,1.13-.22,2.27-.35,3.4a14.4,14.4,0,0,0-.25,1.58c0,2.18.08,4.36.12,6.53,0,.17,0,.34,0,.51-3.86-.35-7.73-.21-11.59-.2-1.07,0-2.14,0-3.2.06,0-.31,0-.62.05-1C711.39,402.48,711.33,401.7,711.24,400.85Zm15-44.14c.09,1.22.24,2.44.29,3.66q.15,3,.2,6c0,1-.11,2-.1,2.95,0,.71,0,1.41,0,2.12a115,115,0,0,0-12-.24l-2.93.05c.36-3.87.22-7.75.2-11.63,0-.92,0-1.84,0-2.76,1.18-.09,2.36-.22,3.54-.28,2-.09,4-.16,6-.19,1,0,2,.11,3,.1.63,0,1.26,0,1.89,0A2.43,2.43,0,0,0,726.2,356.71Zm.1-29.66a14.62,14.62,0,0,0-.25,1.57c0,2.18.08,4.36.12,6.54,0,.17,0,.34,0,.51-3.86-.35-7.73-.21-11.59-.2-1.07,0-2.14,0-3.2.06,0-.31,0-.63.05-1-.06-.58-.12-1.37-.21-2.21a17.07,17.07,0,0,0,.17-1.74c.05-2.18,0-4.35,0-6.53h.26c1.22-.09,2.44-.23,3.66-.29q3-.13,6-.2c1,0,2,.11,3,.11l2.34-.05C726.53,324.78,726.43,325.91,726.3,327.05Zm-17.13-19c0,2.21-.06,4.42-.08,6.62,0,2,0,4,0,6l-.46,0c-3.13.09-6.27.12-9.41.19l-5.38.15c0-.25,0-.5,0-.74,0-.78,0-1.56,0-2.34,0-2.09.06-4.18.08-6.27,0-1.76,0-3.52,0-5.28,0-.18,0-.36,0-.54a8.75,8.75,0,0,0,.89,0c1.22-.07,2.43-.18,3.65-.25s2.15,0,3.22-.1a72.37,72.37,0,0,1,7.51-.09C709.22,306.28,709.19,307.17,709.17,308.05Zm-32.8-20.43c0,1.46,0,2.92,0,4.38,0,1.93.26,3.86.29,5.79,0,1.76-.06,3.53-.11,5.3-2.77,0-5.53-.08-8.3-.1-2.14,0-4.29.05-6.43.06h-.67c.12-2.46.29-4.93.42-7.4a38.55,38.55,0,0,0-.16-6.62c0-.39-.09-.78-.13-1.17h.16l5.1-.15c.62,0,1.25-.13,1.87-.13C671.05,287.58,673.71,287.5,676.37,287.62Zm-35.71,20.43c0,2.21-.06,4.42-.08,6.62,0,2,0,4,0,6l-.46,0c-3.14.09-6.27.12-9.41.19-1.8,0-3.59.1-5.39.15,0-.25.05-.5.06-.74,0-.78,0-1.56,0-2.34,0-2.09.07-4.18.09-6.27q0-2.64,0-5.28c0-.18,0-.36,0-.54a8.88,8.88,0,0,0,.89,0c1.22-.07,2.43-.18,3.65-.25s2.15,0,3.21-.1a72.6,72.6,0,0,1,7.52-.09C640.71,306.28,640.67,307.17,640.66,308.05Zm-32.82-2.57.1.12c0,.82-.06,1.64-.08,2.45q-.06,3.31-.07,6.62c0,2,0,4.06,0,6.08-.33,0-.67-.06-1-.07-.77,0-1.55,0-2.33,0l-6.27-.09-5.28,0-.32,0a2.64,2.64,0,0,1,0-.29c0-.78,0-1.56,0-2.34l.09-6.27c0-1.76,0-3.52,0-5.28,0-.3,0-.6,0-.9v-.17l1.87.06c2.21,0,4.41.06,6.62.08Zm-18.17,1c0,1.7.08,3.4.14,5.09,0,.63.14,1.25.13,1.88,0,2.4.08,4.81,0,7.22h-.29c-2.51-.13-5-.3-7.52-.43a38.52,38.52,0,0,0-6.62.16c-.35.05-.7.08-1.06.11,0-2.4.07-4.81.08-7.22,0-2.14,0-4.29,0-6.44,0-.47,0-.94,0-1.41,1.33,0,2.67,0,4,0,1.93,0,3.86-.26,5.79-.29s3.58.06,5.38.12C589.66,305.63,589.66,306,589.67,306.44ZM572.13,292c0,1.93.25,3.86.28,5.79,0,1.66,0,3.33-.1,5l-3.32.1c-2.65.06-5.3.12-8,.21-1.38,0-2.76.14-4.14.18v-.1c.12-2.51.29-5,.42-7.52a38.55,38.55,0,0,0-.16-6.62c0-.24,0-.48-.07-.72h.06c1.19,0,2.38.12,3.57.15.8,0,1.61,0,2.42,0,1.46,0,2.92.14,4.38.11s3.07-.21,4.61-.23C572.11,289.56,572.09,290.78,572.13,292Zm-18.38-.15c.09,2,.16,4,.19,6,0,1-.11,2-.1,2.95,0,.79,0,1.59,0,2.38l-1.36-.08-2.22.21a14.61,14.61,0,0,0-1.74-.16c-2.25-.06-4.49,0-6.74,0a112.09,112.09,0,0,0,.23-12c0-1,0-2.1,0-3.15l3,.31a12.35,12.35,0,0,0,1.58.25c2.18,0,4.36-.08,6.53-.12h.35C553.56,289.53,553.69,290.69,553.75,291.85Zm-14.42,13.63.1.12c0,.82-.06,1.64-.08,2.45,0,2.21-.06,4.42-.08,6.62,0,2,0,4.06,0,6.08-.34,0-.67-.06-1-.07-.78,0-1.55,0-2.33,0l-6.27-.09-5.29,0-.32,0c0-.1,0-.2,0-.29,0-.78,0-1.56,0-2.34,0-2.09.06-4.18.09-6.27,0-1.76,0-3.52,0-5.28,0-.3,0-.6,0-.9,0-.06,0-.11,0-.17.63,0,1.25.05,1.88.06,2.21,0,4.41.06,6.62.08ZM503.2,338.17c0,.13,0,.25,0,.37a7.5,7.5,0,0,0,0,1.34c.07,1.22.19,2.43.25,3.65s0,2.15.1,3.22a62.23,62.23,0,0,1,.1,6.69c-.19,0-.37,0-.56,0-3.13.1-6.27.12-9.41.19l-5.32.15c0-.06,0-.13,0-.19-.09-3.13-.12-6.27-.19-9.41,0-1.86-.11-3.72-.15-5.59h0a7.5,7.5,0,0,0,1.34,0c1.22-.07,2.43-.18,3.65-.24,1.07-.06,2.15,0,3.22-.11A68.12,68.12,0,0,1,503.2,338.17ZM488.39,440.29a.33.33,0,0,1,0-.1c.12-2.5.29-5,.42-7.51a38.52,38.52,0,0,0-.16-6.62c0-.24,0-.48-.08-.72h.07c1.19,0,2.38.11,3.57.15.8,0,1.61,0,2.42,0,1.46,0,2.92.15,4.38.11s3.07-.2,4.6-.23c0,1.22,0,2.44,0,3.65.05,1.94.26,3.86.29,5.8,0,1.66,0,3.32-.1,5l-3.32.09c-2.65.07-5.31.13-8,.21C491.14,440.16,489.77,440.26,488.39,440.29Zm17.94-12.17c0-.92,0-1.83-.05-2.75,1.18-.09,2.36-.23,3.54-.29,2-.09,4-.16,6-.19,1,0,2,.11,3,.1.64,0,1.27,0,1.9,0a2.43,2.43,0,0,0,0,.27c.09,1.21.24,2.43.29,3.65.1,2,.17,4,.2,6,0,1-.11,2-.1,3,0,.7,0,1.41,0,2.11a112.33,112.33,0,0,0-12-.23c-1,0-1.95,0-2.93.05C506.49,435.88,506.35,432,506.33,428.12Zm17.72,29.18c0-.77,0-1.55,0-2.33,0-2.09.06-4.18.09-6.27,0-1.76,0-3.52,0-5.29,0-.29,0-.59,0-.89,0-.06,0-.11,0-.17.63,0,1.25,0,1.88.06,2.21,0,4.41.06,6.62.08l6.69,0,.1.12c0,.82-.06,1.63-.08,2.45,0,2.21-.06,4.41-.08,6.62,0,2,0,4.05,0,6.08-.34,0-.67-.06-1-.07-.78,0-1.55,0-2.33,0l-6.27-.09-5.29,0H524A2.64,2.64,0,0,0,524.05,457.3Zm32.8,0c0-.77,0-1.55,0-2.33,0-2.09.06-4.18.09-6.27,0-1.76,0-3.52,0-5.29,0-.17,0-.35,0-.53.3,0,.6,0,.89,0,1.22-.08,2.44-.19,3.66-.25s2.15,0,3.21-.1c2.51-.24,5-.11,7.52-.1,0,.89-.07,1.78-.09,2.67,0,2.21-.06,4.41-.07,6.62,0,2,0,4,0,6l-.45,0c-3.14.09-6.28.12-9.42.19l-5.38.15C556.81,457.8,556.84,457.55,556.85,457.3Zm17.36,12.06a14.64,14.64,0,0,0,.17-1.74c0-2.17,0-4.34,0-6.52h.27c1.22-.09,2.43-.23,3.65-.29q3-.15,6-.2c1,0,2,.11,3,.1.78,0,1.56,0,2.34,0-.12,1.13-.22,2.27-.35,3.41a14.23,14.23,0,0,0-.25,1.57c0,2.18.08,4.36.13,6.54,0,.17,0,.34,0,.51-3.86-.36-7.73-.21-11.59-.2-1.07,0-2.13,0-3.2.05,0-.3,0-.62.06-1C574.37,471,574.3,470.21,574.21,469.36Zm17.92,3.52v-.05a15.09,15.09,0,0,0,.08-2.93c-.06-.77-.12-1.55-.11-2.32q0-3.18.15-6.36c0-.2,0-.4,0-.6h.62l5.1-.15c.63,0,1.25-.13,1.88-.13,2.35,0,4.7-.07,7.05,0a6.08,6.08,0,0,0,0,.61c0,1.21.1,2.43.14,3.65a3.46,3.46,0,0,1-.06.71,13.49,13.49,0,0,0,.08,5.22q.1.51.18,1a2.79,2.79,0,0,1,0,.82,2.58,2.58,0,0,0-.07.53l-7.43-.08c-2.15,0-4.29.05-6.44.06Zm32.81.22c0-.09,0-.18,0-.27a15.09,15.09,0,0,0,.08-2.93c-.06-.77-.12-1.55-.11-2.32q0-3.18.15-6.36c0-.05,0-.1,0-.16h.62c1.19,0,2.37.12,3.56.15.81,0,1.62,0,2.42,0,1.46,0,2.93.14,4.39.1,1.22,0,2.45-.14,3.67-.19,0,1.15.09,2.3.13,3.46a3.44,3.44,0,0,1-.05.71,13.49,13.49,0,0,0,.07,5.22c.07.34.13.68.19,1a3.17,3.17,0,0,1,0,.82,1.24,1.24,0,0,0,0,.27l-2.49.07c-2.65.06-5.3.12-8,.2C628,473,626.47,473.08,624.94,473.1Zm17.79-3.74a14.61,14.61,0,0,0,.16-1.74c.05-2.17,0-4.34,0-6.52h.27c1.22-.09,2.43-.23,3.65-.29q3-.15,6-.2c1,0,2,.11,2.95.1.78,0,1.56,0,2.35,0-.12,1.13-.23,2.27-.35,3.41a12.2,12.2,0,0,0-.25,1.57c0,2.18.08,4.36.12,6.54,0,.17,0,.34,0,.51-3.85-.36-7.72-.21-11.59-.2-1.06,0-2.13,0-3.2.05,0-.3,0-.62.06-1C642.88,471,642.81,470.21,642.73,469.36Zm17.92,3.52v-.05a14.34,14.34,0,0,0,.08-2.93c-.06-.77-.11-1.55-.1-2.32q0-3.18.14-6.36c0-.2,0-.4,0-.6h.62l5.1-.15c.62,0,1.25-.13,1.87-.13,2.35,0,4.7-.07,7.05,0a4.1,4.1,0,0,0,0,.61c0,1.21.09,2.43.14,3.65a4.34,4.34,0,0,1-.06.71,13.49,13.49,0,0,0,.07,5.22c.07.34.13.68.19,1a3.17,3.17,0,0,1,0,.82,2,2,0,0,0-.06.53l-7.44-.08c-2.14,0-4.29.05-6.43.06Zm48-50.89c-3.13.09-6.27.12-9.41.19l-5.32.14c0-.06,0-.12,0-.19-.09-3.13-.12-6.27-.19-9.41,0-1.86-.11-3.72-.15-5.58h0a8.56,8.56,0,0,0,1.34,0c1.22-.08,2.43-.19,3.65-.25s2.15,0,3.22-.1a65.4,65.4,0,0,1,7-.1c0,.12,0,.24,0,.36a7.5,7.5,0,0,0,0,1.34c.07,1.22.19,2.44.25,3.65s0,2.16.1,3.22a62.37,62.37,0,0,1,.1,6.7C709,422,708.8,422,708.61,422Zm3.06-2.45c-.06-2.65-.12-5.3-.2-8-.05-1.54-.19-3.09-.2-4.63v-.25c1.41,0,2.82,0,4.23,0,1.93-.05,3.86-.25,5.79-.28,1.65,0,3.3,0,4.94.1,0,.39,0,.79,0,1.18,0,1.19-.11,2.38-.15,3.57,0,.8,0,1.61,0,2.42,0,1.46-.14,2.92-.1,4.38,0,1.28.15,2.56.2,3.83l-7-.39a38.52,38.52,0,0,0-6.62.16l-.8.08C711.72,421,711.69,420.28,711.67,419.54Zm17.49-15.18v-.05a15.07,15.07,0,0,0,.08-2.93,22.38,22.38,0,0,1-.11-2.32c0-2.12.08-4.23.14-6.35,0-.2,0-.4.05-.61h.62c1.7,0,3.4-.08,5.1-.14.63,0,1.25-.13,1.87-.13,2.35,0,4.71-.07,7.06,0q0,.3,0,.6c0,1.22.1,2.44.14,3.66a3.31,3.31,0,0,1-.06.7,13.49,13.49,0,0,0,.08,5.22c.07.34.13.69.18,1a2.8,2.8,0,0,1,0,.82,2.46,2.46,0,0,0-.06.53c-2.48,0-5-.07-7.43-.08-2.15,0-4.29,0-6.44.05Zm29.93-8.8a14.4,14.4,0,0,0-.25,1.58c0,2.18.08,4.36.13,6.53,0,.27,0,.53,0,.79l-.93-.06-2.22.22a14.64,14.64,0,0,0-1.74-.17c-2.29-.05-4.59,0-6.88,0h-.13c0-.42.06-.86.09-1.35s-.13-1.37-.22-2.22a17.07,17.07,0,0,0,.17-1.74c0-2.29,0-4.59,0-6.88v-.09c1.13.12,2.26.22,3.39.35a14.79,14.79,0,0,0,1.58.25c2.18,0,4.36-.08,6.54-.13l.73,0C759.3,393.58,759.2,394.57,759.09,395.56Zm0-68.51a14.62,14.62,0,0,0-.25,1.57c0,2.18.08,4.36.13,6.54,0,.26,0,.52,0,.79l-.93-.06-2.22.21a14.61,14.61,0,0,0-1.74-.16c-2.29-.06-4.59,0-6.88,0h-.13c0-.41.06-.85.09-1.35s-.13-1.37-.22-2.21a17.07,17.07,0,0,0,.17-1.74c0-2.3,0-4.59,0-6.89v-.08c1.13.12,2.26.22,3.39.35a12.59,12.59,0,0,0,1.58.24c2.18,0,4.36-.08,6.54-.12l.73,0C759.3,325.07,759.2,326.06,759.09,327.05Zm-15,.51a3.35,3.35,0,0,1-.06.71,13.49,13.49,0,0,0,.08,5.22q.1.51.18,1a2.78,2.78,0,0,1,0,.82,2.55,2.55,0,0,0-.06.54c-2.48,0-5-.07-7.43-.09-2.15,0-4.29.05-6.44.06h-1.16v-.05a15.07,15.07,0,0,0,.08-2.93,22.52,22.52,0,0,1-.11-2.32q0-3.18.14-6.35c0-.21,0-.41.05-.61h.62l5.1-.14c.63,0,1.25-.14,1.87-.14,2.35,0,4.71-.07,7.06,0a6.08,6.08,0,0,0,0,.61C744,325.13,744,326.34,744.08,327.56ZM726.7,306.44c0,1.7.08,3.4.14,5.09,0,.63.13,1.25.13,1.88,0,2.4.07,4.81,0,7.22h-.29c-2.5-.13-5-.3-7.51-.43a38.52,38.52,0,0,0-6.62.16c-.35.05-.71.08-1.06.11,0-2.4.07-4.81.08-7.22,0-2.14,0-4.29-.06-6.44,0-.47,0-.94,0-1.41,1.34,0,2.68,0,4,0,1.93,0,3.86-.26,5.79-.29s3.59.06,5.38.12ZM709.15,292c.06,1.93.26,3.86.29,5.79,0,1.66-.05,3.33-.1,5l-3.32.1c-2.65.06-5.31.12-8,.21-1.38,0-2.75.14-4.13.18v-.1c.12-2.51.29-5,.42-7.52a38.55,38.55,0,0,0-.16-6.62c0-.24-.05-.48-.08-.72h.07c1.19,0,2.38.12,3.57.15.8,0,1.61,0,2.42,0,1.46,0,2.92.14,4.38.11s3.07-.21,4.6-.23C709.14,289.56,709.12,290.78,709.15,292Zm-18.38-.15q.15,3,.2,6c0,1-.11,2-.1,2.95,0,.79,0,1.59,0,2.38l-1.36-.08c-.59.06-1.38.12-2.22.21a14.61,14.61,0,0,0-1.74-.16c-2.25-.06-4.5,0-6.74,0a117.55,117.55,0,0,0,.23-12c0-1,0-2.1-.05-3.15l3,.31a12.35,12.35,0,0,0,1.58.25c2.17,0,4.35-.08,6.53-.12h.34C690.58,289.53,690.72,290.69,690.77,291.85Zm-14.83-22.09a2.44,2.44,0,0,1,0,.27,7.5,7.5,0,0,0,0,1.34c.07,1.21.18,2.43.25,3.65s0,2.15.1,3.21a64.48,64.48,0,0,1,.1,6.81c-.37,0-.74-.07-1.11-.08-.78,0-1.56,0-2.34,0l-6.27-.08-5.28,0h-.31c-.08-3-.11-6.09-.18-9.14,0-2-.12-4.08-.17-6.11.78,0,1.55.06,2.33.07,2.2,0,4.41.06,6.61.08ZM640.64,292c.05,1.93.25,3.86.29,5.79,0,1.66,0,3.33-.11,5l-3.32.1c-2.65.06-5.3.12-8,.21-1.38,0-2.76.14-4.14.18v-.1c.12-2.51.3-5,.42-7.52a36.63,36.63,0,0,0-.16-6.62c0-.24,0-.48-.07-.72h.07c1.19,0,2.37.12,3.56.15.81,0,1.62,0,2.42,0,1.46,0,2.93.14,4.39.11s3.06-.21,4.6-.23C640.63,289.56,640.61,290.78,640.64,292Zm-18.38-.15q.13,3,.2,6c0,1-.12,2-.11,2.95,0,.79,0,1.59,0,2.38L621,303.1l-2.22.21a14.42,14.42,0,0,0-1.74-.16c-2.24-.06-4.49,0-6.74,0a114.76,114.76,0,0,0,.24-12c0-1,0-2.1-.06-3.15l3,.31a12.48,12.48,0,0,0,1.57.25c2.18,0,4.36-.08,6.54-.12H622C622.07,289.53,622.2,290.69,622.26,291.85Zm-.45-21.55a1.37,1.37,0,0,0,.19,0c0,.12,0,.24,0,.36,0,1.18-.12,2.37-.15,3.56,0,.81,0,1.62,0,2.42,0,1.46-.15,2.93-.11,4.38s.19,2.88.23,4.32a14.32,14.32,0,0,0-2.62,0c-.77.06-1.55.11-2.32.1-2.12,0-4.24-.08-6.36-.14l-.22,0c0-.91-.06-1.83-.08-2.75-.07-2.65-.12-5.3-.21-7.95,0-1.32-.13-2.64-.17-4h.4c1.22,0,2.43-.09,3.65-.14a4.25,4.25,0,0,1,.71.06,13.49,13.49,0,0,0,5.22-.08l1-.18A3.17,3.17,0,0,1,621.81,270.3Zm-14,17.32c0,1.46,0,2.92,0,4.38,0,1.93.25,3.86.28,5.79,0,1.76,0,3.53-.11,5.3-2.76,0-5.52-.08-8.29-.1-2.15,0-4.29.05-6.44.06h-.66c.12-2.46.29-4.93.41-7.4a36.63,36.63,0,0,0-.16-6.62c0-.39-.08-.78-.12-1.17h.15l5.1-.15c.63,0,1.25-.13,1.88-.13C602.54,287.58,605.2,287.5,607.85,287.62Zm-18.68.31a2.43,2.43,0,0,1,0,.27c.09,1.22.24,2.43.3,3.65.09,2,.16,4,.19,6,0,1-.11,2-.1,2.95,0,.7,0,1.41,0,2.11a117.75,117.75,0,0,0-12-.23c-1,0-2,0-2.92.05.35-3.87.21-7.76.2-11.64,0-.91,0-1.83-.05-2.75,1.18-.09,2.35-.23,3.53-.28,2-.1,4-.16,6-.2,1,0,2,.11,3,.11Zm-17.46-18.27c0,.12,0,.24,0,.37a10,10,0,0,0,0,1.34c.08,1.21.19,2.43.25,3.65s0,2.15.11,3.21a62.41,62.41,0,0,1,.09,6.7l-.55,0c-3.14.09-6.28.12-9.42.19l-5.32.15c0-.07,0-.13,0-.19-.09-3.14-.12-6.28-.19-9.41,0-1.87-.1-3.73-.15-5.59h0a7.39,7.39,0,0,0,1.33,0c1.22-.07,2.44-.19,3.66-.25s2.15,0,3.21-.1A68.16,68.16,0,0,1,571.71,269.66Zm-32.37,18c0,1.46,0,2.92,0,4.38.06,1.93.26,3.86.29,5.79,0,1.76-.06,3.53-.11,5.3-2.76,0-5.53-.08-8.29-.1-2.15,0-4.29.05-6.44.06h-.67c.13-2.46.29-4.93.42-7.4a38.55,38.55,0,0,0-.16-6.62c0-.39-.08-.78-.12-1.17h.15l5.1-.15c.63,0,1.25-.13,1.87-.13C534,287.58,536.68,287.5,539.34,287.62ZM502.69,324.1c0,1.15.09,2.31.13,3.46a4.17,4.17,0,0,1-.06.71,13.49,13.49,0,0,0,.08,5.22c.07.34.12.68.18,1a2.78,2.78,0,0,1,0,.82c0,.09,0,.18,0,.27l-2.48.07c-2.65.07-5.31.12-8,.21-1.54.05-3.07.18-4.61.2,0-.1,0-.19,0-.28a13.65,13.65,0,0,0,.08-2.93c-.06-.77-.11-1.55-.1-2.32,0-2.12.08-4.24.14-6.35,0-.06,0-.11,0-.16h.62c1.19,0,2.38.12,3.57.15.8,0,1.61,0,2.42,0,1.46,0,2.92.15,4.38.11C500.24,324.26,501.46,324.16,502.69,324.1ZM470.4,338.27a2.44,2.44,0,0,1,0,.27,7.5,7.5,0,0,0,0,1.34c.07,1.22.18,2.43.25,3.65s0,2.15.1,3.22a64.29,64.29,0,0,1,.1,6.8c-.37,0-.74-.07-1.11-.08-.78,0-1.56,0-2.34,0l-6.27-.09-5.28,0h-.31c-.08-3.05-.11-6.1-.18-9.15-.05-2-.12-4.07-.17-6.11.78,0,1.55.06,2.33.07,2.2,0,4.41.07,6.61.08Zm-18.21.92c0,1.19-.12,2.38-.15,3.56,0,.81,0,1.62,0,2.43,0,1.46-.15,2.92-.11,4.38,0,1.28.15,2.55.21,3.83-2.34-.12-4.68-.27-7-.39a36.5,36.5,0,0,0-6.61.16l-.81.08-.06-2.21c-.07-2.65-.12-5.31-.21-8-.05-1.55-.18-3.09-.2-4.64,0-.08,0-.16,0-.24,1.41,0,2.82,0,4.23,0,1.93-.05,3.86-.25,5.79-.29,1.64,0,3.29.05,4.94.1C452.18,338.4,452.19,338.79,452.19,339.19Zm-14.37,20.42c0-.92,0-1.84-.05-2.76,1.18-.09,2.35-.22,3.53-.28,2-.09,4-.16,6-.19,1,0,2,.11,2.95.1.63,0,1.26,0,1.9,0a2.43,2.43,0,0,0,0,.27c.09,1.22.23,2.44.29,3.66q.13,3,.2,6c0,1-.11,2-.11,2.95,0,.71,0,1.41,0,2.12a114.9,114.9,0,0,0-12-.24l-2.92.05C438,367.37,437.83,363.49,437.82,359.61Zm19.69,14.29c2.2,0,4.41.06,6.61.07l6.69,0,.11.11c0,.82-.07,1.64-.08,2.46,0,2.2-.06,4.41-.08,6.62q0,3,0,6.08c-.34,0-.68-.07-1-.08-.78,0-1.56,0-2.34,0l-6.27-.09c-1.76,0-3.52,0-5.28,0h-.32c0-.1,0-.19,0-.29,0-.78,0-1.56,0-2.33,0-2.09.07-4.18.09-6.28,0-1.76,0-3.52,0-5.28,0-.3,0-.6,0-.9v-.16ZM506,443.84c0-.47,0-.94,0-1.42,1.34,0,2.68,0,4,0,1.93-.06,3.86-.26,5.79-.29s3.59.06,5.38.11l0,1.21c0,1.7.08,3.4.14,5.1,0,.63.13,1.25.13,1.88,0,2.4.07,4.81,0,7.21a2.8,2.8,0,0,1-.29,0c-2.5-.12-5-.29-7.51-.42a38.52,38.52,0,0,0-6.62.16l-1.06.11c0-2.41.07-4.81.08-7.22C506,448.13,506,446,506,443.84Zm17.66,29v-.05a15.09,15.09,0,0,0,.08-2.93,22.52,22.52,0,0,1-.11-2.32q0-3.18.14-6.36c0-.2,0-.4,0-.6h.62l5.1-.15c.63,0,1.25-.13,1.87-.13,2.35,0,4.71-.07,7.06,0a6.08,6.08,0,0,0,0,.61c0,1.21.1,2.43.14,3.65a3.46,3.46,0,0,1-.06.71,13.49,13.49,0,0,0,.08,5.22q.11.51.18,1a2.78,2.78,0,0,1,0,.82,2.53,2.53,0,0,0-.06.53l-7.43-.08c-2.15,0-4.29.05-6.44.06Zm32.8.22c0-.09,0-.18,0-.27a15.09,15.09,0,0,0,.08-2.93,22.52,22.52,0,0,1-.11-2.32q0-3.18.14-6.36c0-.05,0-.1,0-.16h.61c1.19,0,2.38.12,3.57.15.8,0,1.61,0,2.42,0,1.46,0,2.92.14,4.38.1,1.23,0,2.45-.14,3.68-.19,0,1.15.09,2.3.13,3.46a3.46,3.46,0,0,1-.06.71,13.49,13.49,0,0,0,.08,5.22q.1.51.18,1a3.18,3.18,0,0,1,0,.82,1.24,1.24,0,0,0,0,.27l-2.49.07c-2.65.06-5.3.12-8,.2C559.5,473,558,473.08,556.42,473.1Zm18.23,14.95c-.07-2.65-.13-5.3-.21-7.95-.05-1.55-.18-3.09-.2-4.64v-.25c1.41,0,2.83.05,4.24,0,1.93-.05,3.86-.26,5.79-.29,1.64,0,3.29.05,4.93.1,0,.4,0,.79,0,1.19,0,1.18-.11,2.37-.15,3.56,0,.81,0,1.62,0,2.42,0,1.46-.15,2.93-.11,4.38,0,1.28.15,2.56.21,3.84-2.35-.12-4.69-.28-7-.4a38.52,38.52,0,0,0-6.62.16c-.26,0-.53.06-.8.09Zm17.91,2.33c-.09-3-.12-6.09-.18-9.14,0-2-.13-4.08-.17-6.11.77,0,1.55.06,2.32.07,2.21,0,4.41.06,6.62.08l6.28,0a2.44,2.44,0,0,0,0,.27,7.5,7.5,0,0,0,0,1.34c.07,1.21.18,2.43.24,3.65.06,1.07,0,2.15.11,3.21a64.47,64.47,0,0,1,.09,6.81c-.37,0-.74-.07-1.11-.08-.77,0-1.55,0-2.33,0l-6.27-.08-5.28,0Zm47.54.12c-3.14.09-6.27.12-9.41.19-1.78,0-3.55.1-5.32.15a1.21,1.21,0,0,1,0-.19c-.1-3.14-.12-6.28-.19-9.41,0-1.87-.11-3.73-.16-5.59h0a7.5,7.5,0,0,0,1.34,0c1.22-.07,2.43-.19,3.65-.25s2.15,0,3.21-.1a68.32,68.32,0,0,1,7-.1c0,.12,0,.25,0,.37a7.5,7.5,0,0,0,0,1.34c.07,1.21.18,2.43.25,3.65,0,1.07,0,2.15.1,3.21a62.45,62.45,0,0,1,.1,6.7C640.47,490.48,640.29,490.5,640.1,490.5Zm3.06-2.45c-.07-2.65-.12-5.3-.21-7.95,0-1.55-.18-3.09-.2-4.64,0-.08,0-.16,0-.25,1.41,0,2.82.05,4.23,0,1.93-.05,3.86-.26,5.79-.29,1.64,0,3.29.05,4.94.1,0,.4,0,.79,0,1.19,0,1.18-.12,2.37-.15,3.56,0,.81,0,1.62,0,2.42,0,1.46-.15,2.93-.11,4.38,0,1.28.15,2.56.21,3.84-2.34-.12-4.68-.28-7-.4a38.41,38.41,0,0,0-6.61.16c-.27,0-.54.06-.81.09Zm17.91,2.33c-.08-3-.11-6.09-.18-9.14,0-2-.12-4.08-.17-6.11.78,0,1.55.06,2.33.07,2.2,0,4.41.06,6.61.08l6.28,0a2.44,2.44,0,0,1,0,.27,7.5,7.5,0,0,0,0,1.34c.07,1.21.18,2.43.25,3.65.05,1.07,0,2.15.1,3.21a64.48,64.48,0,0,1,.1,6.81c-.37,0-.74-.07-1.11-.08-.78,0-1.56,0-2.34,0l-6.27-.08-5.28,0Zm32.38-17.28c0-.09,0-.18,0-.27a13.66,13.66,0,0,0,.08-2.93c-.06-.77-.11-1.55-.1-2.32,0-2.12.08-4.24.14-6.36,0-.05,0-.1,0-.16h.62c1.19,0,2.38.12,3.57.15.8,0,1.61,0,2.42,0,1.46,0,2.92.14,4.38.1,1.23,0,2.45-.14,3.68-.19,0,1.15.09,2.3.13,3.46a4.34,4.34,0,0,1-.06.71,13.49,13.49,0,0,0,.08,5.22q.11.51.18,1a2.78,2.78,0,0,1,0,.82c0,.09,0,.18,0,.27l-2.48.07c-2.65.06-5.31.12-8,.2C696.52,473,695,473.08,693.45,473.1Zm15.16-15.39c-3.13.09-6.27.12-9.41.19l-5.38.15c0-.25,0-.5,0-.75,0-.77,0-1.55,0-2.33,0-2.09.06-4.18.08-6.27,0-1.76,0-3.52,0-5.29,0-.17,0-.35,0-.53.3,0,.6,0,.89,0,1.22-.08,2.43-.19,3.65-.25s2.15,0,3.22-.1c2.5-.24,5-.11,7.51-.1,0,.89-.06,1.78-.08,2.67,0,2.21-.06,4.41-.08,6.62,0,2,0,4,0,6C708.92,457.69,708.77,457.71,708.61,457.71Zm21-35.84c-.09-3.05-.12-6.1-.19-9.15,0-2-.12-4.07-.16-6.11l2.32.08c2.21,0,4.41.06,6.62.08l6.28,0c0,.09,0,.17,0,.26a7.5,7.5,0,0,0,0,1.34c.08,1.22.19,2.44.25,3.65s0,2.16.1,3.22a61.9,61.9,0,0,1,.1,6.81c-.37,0-.74-.07-1.11-.08-.78,0-1.55,0-2.33,0l-6.27-.09-5.29,0Zm30.14-32.26-.43,0a15,15,0,0,0-2.92-.08c-.78.06-1.55.12-2.33.11q-3.16,0-6.35-.15a4.38,4.38,0,0,1-.51,0c0-2.56.08-5.13.09-7.7,0-2.15,0-4.3,0-6.44,0-.16,0-.33,0-.49h.2c1.21,0,2.43-.1,3.65-.14a3.31,3.31,0,0,1,.7.06,13.54,13.54,0,0,0,5.23-.08l1-.18a3.18,3.18,0,0,1,.82,0,2,2,0,0,0,.64.08c0,.11,0,.23,0,.34,0,1.7.08,3.4.14,5.1,0,.62.13,1.25.13,1.87C759.76,384.48,759.84,387.05,759.73,389.61Zm-14.86-84.13.1.12c0,.82-.06,1.64-.08,2.45,0,2.21-.06,4.42-.08,6.62,0,2,0,4.06,0,6.08-.34,0-.67-.06-1-.07-.78,0-1.55,0-2.33,0l-6.27-.09-5.29,0-.32,0c0-.1,0-.2,0-.29,0-.78,0-1.56,0-2.34,0-2.09.06-4.18.09-6.27,0-1.76,0-3.52,0-5.28,0-.3,0-.6,0-.9,0-.06,0-.11,0-.17.63,0,1.25.05,1.88.06,2.21,0,4.41.06,6.62.08ZM726.2,287.93a2.43,2.43,0,0,0,0,.27c.09,1.22.24,2.43.29,3.65q.15,3,.2,6c0,1-.11,2-.1,2.95,0,.7,0,1.41,0,2.11a117.75,117.75,0,0,0-12-.23c-1,0-2,0-2.93.05.36-3.87.22-7.76.2-11.64,0-.91,0-1.83,0-2.75,1.18-.09,2.36-.23,3.54-.28,2-.1,4-.16,6-.2,1,0,2,.11,3,.11Zm-17.46-18.27c0,.12,0,.24,0,.37a7.5,7.5,0,0,0,0,1.34c.07,1.21.19,2.43.25,3.65s0,2.15.1,3.21a62.41,62.41,0,0,1,.1,6.7c-.19,0-.37,0-.56,0-3.13.09-6.27.12-9.41.19l-5.32.15c0-.07,0-.13,0-.19-.09-3.14-.12-6.28-.19-9.41,0-1.87-.11-3.73-.15-5.59h0a7.5,7.5,0,0,0,1.34,0c1.22-.07,2.43-.19,3.65-.25s2.15,0,3.22-.1A68.12,68.12,0,0,1,708.74,269.66Zm-33.17-10.61a4.14,4.14,0,0,1-.06.7,13.54,13.54,0,0,0,.07,5.23c.07.34.13.68.19,1a3.17,3.17,0,0,1,0,.82,2,2,0,0,0-.06.53c-2.48,0-5-.07-7.44-.08-2.14,0-4.29.05-6.43.06h-1.16v0a14.34,14.34,0,0,0,.08-2.93c-.06-.77-.11-1.55-.1-2.33q0-3.16.14-6.35c0-.2,0-.4,0-.6l.62,0c1.7,0,3.4-.08,5.1-.14.62,0,1.25-.13,1.87-.13,2.35,0,4.7-.07,7.05,0a4.1,4.1,0,0,0,0,.61C675.46,256.61,675.52,257.83,675.57,259.05Zm-28.73-3.78q3-.15,6-.2c1,0,2,.11,2.95.1.78,0,1.56,0,2.35,0-.12,1.13-.23,2.27-.35,3.41a12.2,12.2,0,0,0-.25,1.57c0,2.18.08,4.36.12,6.54,0,.17,0,.34,0,.5-3.85-.35-7.72-.2-11.59-.19-1.06,0-2.13,0-3.2.05,0-.3,0-.62.06-1-.06-.58-.13-1.37-.21-2.22a14.61,14.61,0,0,0,.16-1.74c.05-2.17,0-4.35,0-6.52h.27C644.41,255.47,645.62,255.32,646.84,255.27Zm-20.48,14.84c1.22-.07,2.43-.19,3.65-.25s2.15,0,3.21-.1a68.32,68.32,0,0,1,7-.1c0,.12,0,.24,0,.37a7.5,7.5,0,0,0,0,1.34c.07,1.21.18,2.43.25,3.65s0,2.15.1,3.21a62.41,62.41,0,0,1,.1,6.7c-.19,0-.37,0-.56,0-3.14.09-6.27.12-9.41.19-1.78,0-3.55.1-5.32.15a1.28,1.28,0,0,1,0-.19c-.1-3.14-.12-6.28-.19-9.41,0-1.87-.11-3.73-.16-5.59h0A7.5,7.5,0,0,0,626.36,270.11Zm-31.83-.45c2.21,0,4.41.06,6.62.08l6.28,0a2.44,2.44,0,0,0,0,.27,7.5,7.5,0,0,0,0,1.34c.07,1.21.18,2.43.24,3.65s0,2.15.11,3.21a64.47,64.47,0,0,1,.09,6.81c-.37,0-.74-.07-1.11-.08-.77,0-1.55,0-2.33,0l-6.27-.08-5.28,0h-.31c-.09-3-.12-6.09-.18-9.14,0-2-.13-4.08-.17-6.11C593,269.61,593.76,269.65,594.53,269.66Zm-16,0c1.93-.05,3.86-.26,5.79-.29,1.64,0,3.29.05,4.93.1,0,.4,0,.79,0,1.19,0,1.18-.11,2.37-.15,3.56,0,.81,0,1.62,0,2.42,0,1.46-.15,2.93-.11,4.38,0,1.28.15,2.56.21,3.84-2.35-.12-4.69-.28-7-.4a38.52,38.52,0,0,0-6.62.16c-.26,0-.53.06-.8.09l-.06-2.22c-.07-2.65-.13-5.3-.21-7.95-.05-1.55-.18-3.09-.2-4.64v-.25C575.65,269.68,577.07,269.72,578.48,269.68Zm-17.76-14c.8,0,1.61,0,2.42,0,1.46,0,2.92.14,4.38.1,1.23,0,2.45-.14,3.68-.19,0,1.15.09,2.3.13,3.46a3.31,3.31,0,0,1-.06.7,13.54,13.54,0,0,0,.08,5.23q.1.51.18,1a3.18,3.18,0,0,1,0,.82,1.22,1.22,0,0,0,0,.26l-2.49.08c-2.65.06-5.3.12-8,.2-1.54.05-3.08.18-4.62.2,0-.09,0-.18,0-.27a15.09,15.09,0,0,0,.08-2.93,22.58,22.58,0,0,1-.11-2.33q0-3.16.14-6.35c0-.05,0-.1,0-.16h.61C558.34,255.53,559.53,255.63,560.72,255.67Zm-34.7,14c2.21,0,4.41.06,6.62.08l6.28,0c0,.09,0,.18,0,.27a7.5,7.5,0,0,0,0,1.34c.08,1.21.19,2.43.25,3.65s0,2.15.1,3.21a61.9,61.9,0,0,1,.1,6.81c-.37,0-.74-.07-1.11-.08-.78,0-1.55,0-2.33,0l-6.27-.08-5.29,0H524c-.08-3-.11-6.09-.18-9.14,0-2-.12-4.08-.17-6.11C524.47,269.61,525.24,269.65,526,269.66Zm-19.69,21.43c0-.91,0-1.83-.05-2.75,1.18-.09,2.36-.23,3.54-.28,2-.1,4-.16,6-.2,1,0,2,.11,3,.11l1.9,0a2.43,2.43,0,0,0,0,.27c.09,1.22.24,2.43.29,3.65q.15,3,.2,6c0,1-.11,2-.1,2.95,0,.7,0,1.41,0,2.11a117.8,117.8,0,0,0-12-.23c-1,0-1.95,0-2.93.05C506.49,298.86,506.35,295,506.33,291.09Zm-17,14.74c1.22-.07,2.43-.18,3.65-.25,1.07-.05,2.15,0,3.22-.1a72.37,72.37,0,0,1,7.51-.09c0,.89-.06,1.78-.08,2.66,0,2.21-.06,4.42-.08,6.62,0,2,0,4,0,6l-.46,0c-3.13.09-6.27.12-9.41.19l-5.38.15c0-.25,0-.5.05-.74,0-.78,0-1.56,0-2.34,0-2.09.06-4.18.08-6.27,0-1.76,0-3.52,0-5.28,0-.18,0-.36,0-.54A8.75,8.75,0,0,0,489.33,305.83Zm-33.44,17.75,5.1-.14c.62,0,1.25-.14,1.87-.14,2.35,0,4.7-.07,7.05,0a4.1,4.1,0,0,0,0,.61c0,1.22.09,2.43.13,3.65a3.35,3.35,0,0,1,0,.71,13.49,13.49,0,0,0,.07,5.22c.07.34.13.68.19,1a3.17,3.17,0,0,1,0,.82,2,2,0,0,0-.06.54l-7.44-.09c-2.14,0-4.29.05-6.43.06H455.1v-.05a14.32,14.32,0,0,0,.08-2.93,22.5,22.5,0,0,1-.1-2.32q0-3.18.14-6.35c0-.21,0-.41,0-.61Zm-14.59.2q3-.13,6-.2c1,0,2,.11,2.95.11l2.35-.05c-.12,1.14-.23,2.27-.36,3.41a12.43,12.43,0,0,0-.24,1.57c0,2.18.08,4.36.12,6.54,0,.17,0,.34,0,.51-3.85-.35-7.72-.21-11.59-.2-1.06,0-2.13,0-3.2.06,0-.31,0-.63.06-1-.06-.58-.13-1.37-.21-2.21a14.61,14.61,0,0,0,.16-1.74c0-2.18,0-4.35,0-6.53h.27C438.87,324,440.08,323.84,441.3,323.78Zm-21.8.42c0-.06,0-.11,0-.16h.62c1.19,0,2.37.12,3.56.15.81,0,1.62,0,2.42,0,1.46,0,2.93.15,4.39.11,1.22,0,2.45-.14,3.67-.2,0,1.15.09,2.31.13,3.46a2.8,2.8,0,0,1-.06.71,13.49,13.49,0,0,0,.08,5.22c.07.34.13.68.19,1a3.17,3.17,0,0,1,0,.82,1.24,1.24,0,0,0,0,.27l-2.49.07c-2.65.07-5.3.12-7.95.21-1.54.05-3.08.18-4.62.2a2.53,2.53,0,0,0,0-.28,15.07,15.07,0,0,0,.08-2.93c-.06-.77-.12-1.55-.11-2.32Q419.4,327.37,419.5,324.2ZM424,371.6c-1.38,0-2.76.14-4.14.18v-.1c.12-2.5.29-5,.42-7.51a36.61,36.61,0,0,0-.16-6.62c0-.24,0-.48-.07-.72h.07c1.19,0,2.37.12,3.56.16.81,0,1.62,0,2.42,0,1.46,0,2.93.15,4.39.11s3.06-.21,4.6-.23c0,1.22,0,2.43,0,3.65,0,1.93.25,3.86.29,5.79,0,1.67-.05,3.33-.11,5l-3.32.09C429.31,371.46,426.66,371.51,424,371.6Zm13.44,3.73c0-.47,0-.95,0-1.42,1.34,0,2.67,0,4,0,1.93-.05,3.86-.25,5.79-.28s3.59.06,5.38.11c0,.4,0,.81,0,1.21,0,1.7.09,3.4.14,5.1,0,.62.14,1.25.14,1.87,0,2.41.07,4.81,0,7.22h-.29c-2.51-.12-5-.29-7.52-.42a38.41,38.41,0,0,0-6.61.16l-1.06.11q0-3.62.08-7.22C437.52,379.62,437.46,377.47,437.45,375.33Zm7.65,46.18a38.41,38.41,0,0,0-6.61.16l-.81.08-.06-2.21c-.07-2.65-.12-5.3-.21-8-.05-1.54-.18-3.09-.2-4.63,0-.08,0-.17,0-.25,1.41,0,2.82,0,4.23,0,1.93-.05,3.86-.25,5.79-.28,1.64,0,3.29,0,4.94.1,0,.39,0,.79,0,1.18,0,1.19-.12,2.38-.15,3.57,0,.8,0,1.61,0,2.42,0,1.46-.15,2.92-.11,4.38,0,1.28.15,2.56.21,3.83C449.79,421.78,447.45,421.63,445.1,421.51ZM462.7,440c-2.14,0-4.29,0-6.43.06h-.67c.12-2.47.29-4.93.41-7.4a37.54,37.54,0,0,0-.15-6.62c-.05-.39-.09-.78-.13-1.17h.16c1.7,0,3.4-.08,5.1-.14.62,0,1.25-.13,1.87-.13,2.65,0,5.31-.09,8,0,0,1.46,0,2.92,0,4.37.05,1.94.26,3.86.29,5.8,0,1.76-.06,3.53-.11,5.29C468.23,440.08,465.47,440,462.7,440Zm29.82,32.88c-1.54.05-3.07.18-4.61.2,0-.09,0-.18,0-.27a13.66,13.66,0,0,0,.08-2.93c-.06-.77-.11-1.55-.1-2.32,0-2.12.08-4.24.14-6.36,0-.05,0-.1,0-.16h.62c1.19,0,2.38.12,3.57.15.8,0,1.61,0,2.42,0,1.46,0,2.92.14,4.38.1,1.23,0,2.45-.14,3.68-.19,0,1.15.09,2.3.13,3.46a4.34,4.34,0,0,1-.06.71,13.49,13.49,0,0,0,.08,5.22c.07.34.12.68.18,1a2.78,2.78,0,0,1,0,.82c0,.09,0,.18,0,.27l-2.48.07C497.83,472.76,495.17,472.82,492.52,472.9Zm16.54-.4c-1.07,0-2.14,0-3.2.05,0-.3,0-.62.05-1-.06-.58-.12-1.37-.21-2.22a17.07,17.07,0,0,0,.17-1.74c.05-2.17,0-4.34,0-6.52h.26c1.22-.09,2.44-.23,3.66-.29q3-.15,6-.2c1,0,2,.11,3,.1.79,0,1.57,0,2.35,0-.12,1.13-.22,2.27-.35,3.41a14.23,14.23,0,0,0-.25,1.57c0,2.18.08,4.36.12,6.54,0,.17,0,.34,0,.51C516.79,472.34,512.92,472.49,509.06,472.5Zm26.85,18-6.27-.08-5.29,0H524c-.08-3-.11-6.09-.18-9.14,0-2-.12-4.08-.17-6.11.78,0,1.55.06,2.33.07,2.21,0,4.41.06,6.62.08l6.28,0c0,.09,0,.18,0,.27a7.5,7.5,0,0,0,0,1.34c.08,1.21.19,2.43.25,3.65.05,1.07,0,2.15.1,3.21a61.9,61.9,0,0,1,.1,6.81c-.37,0-.74-.07-1.11-.08C537.46,490.48,536.69,490.5,535.91,490.49Zm35.68,0c-3.14.09-6.28.12-9.42.19l-5.32.15c0-.06,0-.13,0-.19-.09-3.14-.12-6.28-.19-9.41,0-1.87-.1-3.73-.15-5.59h0a7.39,7.39,0,0,0,1.33,0c1.22-.07,2.44-.19,3.66-.25s2.15,0,3.21-.1a68.16,68.16,0,0,1,7-.1c0,.12,0,.25,0,.37a10,10,0,0,0,0,1.34c.08,1.21.19,2.43.25,3.65.06,1.07,0,2.15.11,3.21a62.44,62.44,0,0,1,.09,6.7Zm6,17.72c-1,0-2,0-2.92,0,.35-3.87.21-7.76.2-11.64,0-.91,0-1.83-.05-2.75,1.18-.09,2.35-.22,3.53-.28,2-.1,4-.16,6-.2,1,0,2,.11,3,.11l1.89,0a2.43,2.43,0,0,1,0,.27c.09,1.22.24,2.43.3,3.65.09,2,.16,4,.19,6,0,1-.11,2-.1,2.95,0,.7,0,1.41,0,2.11A117.75,117.75,0,0,0,577.57,508.22Zm22.16.31c-2.15,0-4.29.05-6.44.06h-.66c.12-2.46.29-4.93.41-7.4a36.63,36.63,0,0,0-.16-6.62c0-.39-.08-.78-.12-1.17h.15q2.55-.06,5.1-.15c.63,0,1.25-.13,1.88-.13,2.65,0,5.31-.08,8,0,0,1.46,0,2.92,0,4.38,0,1.93.25,3.86.28,5.79,0,1.76,0,3.53-.11,5.3C605.26,508.59,602.5,508.55,599.73,508.53Zm10.44,18c0-2.57.07-5.14.08-7.71,0-2.14,0-4.29,0-6.43,0-.17,0-.33,0-.49h.2c1.22,0,2.43-.09,3.65-.13a3.4,3.4,0,0,1,.71.05,13.49,13.49,0,0,0,5.22-.07l1-.19a3.17,3.17,0,0,1,.82,0,2.06,2.06,0,0,0,.64.07c0,.12,0,.23,0,.35,0,1.7.08,3.4.14,5.1,0,.62.14,1.24.13,1.87,0,2.56.08,5.12,0,7.69l-.43,0a14.34,14.34,0,0,0-2.93-.08,22.5,22.5,0,0,1-2.32.1q-3.18,0-6.36-.14A4.38,4.38,0,0,1,610.17,526.5Zm29.93-.28c-3.14.1-6.27.12-9.41.19-1.8,0-3.59.1-5.39.15,0-.25.05-.5.06-.74,0-.78,0-1.56,0-2.34,0-2.09.07-4.18.09-6.27q0-2.64,0-5.28c0-.18,0-.36,0-.54a8.88,8.88,0,0,0,.89,0c1.22-.07,2.43-.18,3.65-.25s2.15,0,3.21-.1c2.51-.23,5-.11,7.52-.09,0,.89-.07,1.78-.08,2.67,0,2.2-.06,4.41-.08,6.61,0,2,0,4,0,6Zm6-18c-1,0-2,0-2.92,0,.36-3.87.21-7.76.2-11.64,0-.91,0-1.83-.05-2.75,1.18-.09,2.35-.22,3.53-.28,2-.1,4-.16,6-.2,1,0,2,.11,2.95.11l1.9,0a2.43,2.43,0,0,0,0,.27c.09,1.22.23,2.43.29,3.65q.13,3,.2,6c0,1-.11,2-.11,2.95,0,.7,0,1.41,0,2.11A117.69,117.69,0,0,0,646.08,508.22Zm22.16.31c-2.14,0-4.29.05-6.43.06h-.67c.12-2.46.29-4.93.42-7.4a38.55,38.55,0,0,0-.16-6.62c0-.39-.09-.78-.13-1.17h.16q2.55-.06,5.1-.15c.62,0,1.25-.13,1.87-.13,2.65,0,5.31-.08,8,0,0,1.46,0,2.92,0,4.38,0,1.93.26,3.86.29,5.79,0,1.76-.06,3.53-.11,5.3C673.77,508.59,671,508.55,668.24,508.53Zm40.37-18c-3.13.09-6.27.12-9.41.19l-5.32.15c0-.06,0-.13,0-.19-.09-3.14-.12-6.28-.19-9.41,0-1.87-.11-3.73-.15-5.59h0a7.5,7.5,0,0,0,1.34,0c1.22-.07,2.43-.19,3.65-.25s2.15,0,3.22-.1a68.12,68.12,0,0,1,7-.1c0,.12,0,.25,0,.37a7.5,7.5,0,0,0,0,1.34c.07,1.21.19,2.43.25,3.65,0,1.07,0,2.15.1,3.21a62.45,62.45,0,0,1,.1,6.7C709,490.48,708.8,490.5,708.61,490.5Zm6-18c-1.07,0-2.14,0-3.2.05,0-.3,0-.62.05-1-.06-.58-.12-1.37-.21-2.22a17.07,17.07,0,0,0,.17-1.74c.05-2.17,0-4.34,0-6.52h.26c1.22-.09,2.44-.23,3.66-.29q3-.15,6-.2c1,0,2,.11,3,.1.78,0,1.56,0,2.34,0-.12,1.13-.22,2.27-.35,3.41a14.23,14.23,0,0,0-.25,1.57c0,2.18.08,4.36.12,6.54,0,.17,0,.34,0,.51C722.33,472.34,718.46,472.49,714.6,472.5ZM736.76,440c-2.15,0-4.29,0-6.44.06h-.67c.13-2.47.29-4.93.42-7.4a38.52,38.52,0,0,0-.16-6.62c0-.39-.08-.78-.12-1.17h.15c1.7,0,3.4-.08,5.1-.14.63,0,1.25-.13,1.87-.13,2.66,0,5.31-.09,8,0,0,1.46,0,2.92,0,4.37,0,1.94.25,3.86.28,5.8,0,1.76-.06,3.53-.11,5.29C742.29,440.08,739.52,440,736.76,440Zm22.53-79.65c.09,2,.16,4,.19,6,0,1-.11,2-.1,2.95,0,.8,0,1.59,0,2.38l-1.36-.08-2.22.22a14.64,14.64,0,0,0-1.74-.17c-2.24-.05-4.49,0-6.74,0a112.14,112.14,0,0,0,.23-12c0-1.05,0-2.1-.05-3.15,1,.1,2,.19,3,.31a14.79,14.79,0,0,0,1.58.25c2.18,0,4.36-.09,6.54-.13H759C759.1,358,759.23,359.2,759.29,360.37Zm-29.35-72.51,5.1-.15c.63,0,1.25-.13,1.87-.13,2.66,0,5.31-.08,8,0,0,1.46,0,2.92,0,4.38,0,1.93.25,3.86.28,5.79,0,1.76-.06,3.53-.11,5.3-2.76,0-5.53-.08-8.29-.1-2.15,0-4.29.05-6.44.06h-.67c.13-2.46.29-4.93.42-7.4a38.55,38.55,0,0,0-.16-6.62c0-.39-.08-.78-.12-1.17ZM715.5,269.68c1.93-.05,3.86-.26,5.79-.29,1.65,0,3.3.05,4.94.1,0,.4,0,.79,0,1.19,0,1.18-.11,2.37-.15,3.56,0,.81,0,1.62,0,2.42,0,1.46-.14,2.93-.1,4.38,0,1.28.15,2.56.2,3.84-2.34-.12-4.68-.28-7-.4a38.52,38.52,0,0,0-6.62.16l-.8.09c0-.74,0-1.48-.07-2.22-.06-2.65-.12-5.3-.2-7.95-.05-1.55-.19-3.09-.2-4.64v-.25C712.68,269.68,714.09,269.72,715.5,269.68Zm-17.75-14c.8,0,1.61,0,2.42,0,1.46,0,2.92.14,4.38.1,1.23,0,2.45-.14,3.68-.19,0,1.15.09,2.3.13,3.46a4.14,4.14,0,0,1-.06.7,13.54,13.54,0,0,0,.08,5.23q.11.51.18,1a2.78,2.78,0,0,1,0,.82c0,.09,0,.18,0,.26l-2.48.08c-2.65.06-5.31.12-8,.2-1.54.05-3.07.18-4.61.2,0-.09,0-.18,0-.27a13.66,13.66,0,0,0,.08-2.93c-.06-.77-.11-1.55-.1-2.33,0-2.11.08-4.23.14-6.35,0-.05,0-.1,0-.16h.62C695.37,255.53,696.56,255.63,697.75,255.67ZM669.66,237l6.69,0,.11.12c0,.82-.07,1.63-.08,2.45,0,2.21-.06,4.41-.08,6.62,0,2,0,4.05,0,6.08-.34,0-.68-.06-1-.07-.78,0-1.56,0-2.34,0l-6.27-.09-5.28,0h-.32c0-.1,0-.19,0-.29,0-.78,0-1.55,0-2.33,0-2.09.07-4.18.09-6.27,0-1.76,0-3.53,0-5.29,0-.29,0-.59,0-.89a1,1,0,0,1,0-.17c.63,0,1.25.05,1.88.06C665.25,236.91,667.46,236.93,669.66,237Z" transform="translate(-102.28 -94.76)"/><path class="cls-3" d="M446.77,208.33,422.3,307.94l72.37,7.25-14.58-76.51a79.74,79.74,0,0,0-6.22-19.11L462.7,195.89Z" transform="translate(-102.28 -94.76)"/><path class="cls-3" d="M534.81,146.16s1.45,54.6,17.56,64.82c0,0,5,4.17,14.71,4.94,0,0,11.34,15.42,4.95,37.2,0,0,8.32,18.59,32.19,16.78a46.11,46.11,0,0,0,26-10.86c7.12-6,16.75-15.22,19.7-23.5L619.5,187.59l-5.57-16.75s14.46-7.15,8.26-20.91S561.31,86.94,534.81,146.16Z" transform="translate(-102.28 -94.76)"/><path class="cls-4" d="M600.74,156.33s8.89-4.44,13.81,2.92c0,0,2.76,7.61-5.43,11.61l-6.82,1.37s13.09,11.17,11.56,23.09c0,0,18.32-18.4,21.63-27.88,4.2-12.07,15-55.85-31.15-68.56,0,0-29.92-9.25-42.08,8.38,0,0-34-5.55-32.08,30.25a19.45,19.45,0,0,0,4.63,8.65s11.33-9.28,28.8-3.39,24.12-6.16,24.12-6.16S606,140.83,600.74,156.33Z" transform="translate(-102.28 -94.76)"/><path class="cls-5" d="M563,192.86a2.32,2.32,0,0,1-.92-.18,2,2,0,0,1-1.12-1.23.48.48,0,0,1,0-.39c2.07-3.38,2.11-14,2.11-14.14a.5.5,0,0,1,.5-.5h0a.5.5,0,0,1,.5.5c0,.44,0,10.61-2.12,14.43a1.05,1.05,0,0,0,.49.42,3,3,0,0,0,2.31-.48.5.5,0,0,1,.47.89A5,5,0,0,1,563,192.86Z" transform="translate(-102.28 -94.76)"/><path class="cls-6" d="M555.07,160.78h0c-3.79-6.81-10-5.1-17.74-5.91L440.93,147,450,209.73Z" transform="translate(-102.28 -94.76)"/><path class="cls-7" d="M461.48,169.21,564.05,160a12.58,12.58,0,0,1,13.41,9.79h0a12.6,12.6,0,0,1-6.54,14L470.48,233.57Z" transform="translate(-102.28 -94.76)"/><ellipse class="cls-1" cx="443.85" cy="178.93" rx="16.17" ry="32.07" transform="translate(-116.72 -53.61) rotate(-5.22)"/><path class="cls-8" d="M456.74,177.64c1.34,14.61-1.84,26.85-7.1,27.33s-10.59-11-11.93-25.59,1.84-26.85,7.1-27.33S455.4,163,456.74,177.64Z" transform="translate(-102.28 -94.76)"/><ellipse class="cls-1" cx="466.73" cy="200.31" rx="16.17" ry="33.7" transform="translate(-118.57 -51.44) rotate(-5.22)"/><path class="cls-8" d="M478.17,199.14c1.49,16.34-1.12,29.93-5.82,30.36s-9.74-12.46-11.23-28.8,1.11-29.93,5.82-30.36S476.67,182.81,478.17,199.14Z" transform="translate(-102.28 -94.76)"/><path class="cls-5" d="M565.84,203a.5.5,0,0,1-.5-.42.51.51,0,0,1,.42-.57c.11,0,10.62-1.74,12-8.72a.51.51,0,0,1,.59-.4.5.5,0,0,1,.39.59c-1.49,7.67-12.34,9.44-12.81,9.52Z" transform="translate(-102.28 -94.76)"/><path class="cls-8" d="M610.08,428.15a75.9,75.9,0,0,0,11.61-6.67l2.75-1.9,2.65-2c1.8-1.32,3.48-2.78,5.18-4.22a147.84,147.84,0,0,0,18.41-19.28l4-5.31,1-1.34.93-1.39,1.85-2.77,1.88-2.77.93-1.38.85-1.44,3.42-5.76c1.2-1.88,2.17-3.89,3.21-5.87l3.11-5.94c2-4,3.72-8.13,5.68-12.17-.76,2.1-1.54,4.21-2.35,6.3s-1.55,4.22-2.44,6.28L670,366.61c-1,2-1.88,4.09-3,6l-3.28,5.9-.83,1.48-.91,1.42-1.84,2.83-1.85,2.83-.93,1.42-1,1.35-4.06,5.41a126.89,126.89,0,0,1-19,19.23C626.24,420.14,618.55,425.12,610.08,428.15Z" transform="translate(-102.28 -94.76)"/><path class="cls-8" d="M497.32,348q-.56,9.78-.42,19.55c0,6.51.25,13,.69,19.52a272.58,272.58,0,0,0,5.06,38.64,191.63,191.63,0,0,0,4.75,18.88,168.91,168.91,0,0,0,6.79,18.22,124.88,124.88,0,0,0,9.21,17.13,109.53,109.53,0,0,0,12.06,15.32,99.58,99.58,0,0,1-12.87-14.77,125,125,0,0,1-9.8-17,170,170,0,0,1-12.1-37.35c-1.32-6.42-2.29-12.9-3.06-19.4s-1.34-13-1.57-19.56A250.82,250.82,0,0,1,497.32,348Z" transform="translate(-102.28 -94.76)"/><path class="cls-2" d="M497.88,341a1,1,0,0,1-1-.87l-3.21-24.81a1,1,0,0,1,.87-1.12,1,1,0,0,1,1.12.86l3.2,24.81A1,1,0,0,1,498,341Z" transform="translate(-102.28 -94.76)"/><path class="cls-3" d="M493.51,158.12l-2.28-5.67a16.81,16.81,0,0,0-9.86-9.61l-.12,0c-8.64-3-20.91,5.78-20.91,5.78l4.1,1.69,5.13,12.41a3.46,3.46,0,0,0,6.66-.34,3.42,3.42,0,0,0,5.35-.45s1.07.5,1.2.54a5.57,5.57,0,0,0,1.86.25,6,6,0,0,0,3.5-1.22c.48-.37.83.16,1.35.34a3.11,3.11,0,0,0,4-3.68Z" transform="translate(-102.28 -94.76)"/><path class="cls-3" d="M568.17,329.57,497.32,348l-1.24-118.32S491.33,214.18,489,207l-3.53-11.64a3.44,3.44,0,0,1,5.85-3.1l0-.1a4.12,4.12,0,0,1,0-.76l-.27-1.31a3.45,3.45,0,0,1,6.35-2.45l-.23-1.14a3.45,3.45,0,0,1,6.7-1.67l.49,1.66a3.45,3.45,0,0,1,6.76-.79s3.5,12,3.49,12c.78,2.61,1.58,4.89,2.67,5.89a6.52,6.52,0,0,0,5.4,1.62,28.52,28.52,0,0,0,4.43-1.42c2.5-.76,6.61.49,5.5,3.94a4.06,4.06,0,0,1-1.62,1.82c-.79.6-1.59,1.19-2.39,1.78a10.07,10.07,0,0,0-1.49,1.28,5.77,5.77,0,0,0-1.28,4.24c.33,3.85,1.53,9.09,3.51,12.31C530.64,231.2,568.17,329.57,568.17,329.57Z" transform="translate(-102.28 -94.76)"/><path class="cls-9" d="M476,162.28a.51.51,0,0,1-.47-.32l-2.73-7a.49.49,0,0,1,.28-.65.51.51,0,0,1,.65.28l2.74,7a.5.5,0,0,1-.29.65A.57.57,0,0,1,476,162.28Z" transform="translate(-102.28 -94.76)"/><path class="cls-9" d="M481.42,161.42a.49.49,0,0,1-.46-.32l-3.5-8.9a.5.5,0,1,1,.94-.36l3.49,8.9a.51.51,0,0,1-.28.65A.63.63,0,0,1,481.42,161.42Z" transform="translate(-102.28 -94.76)"/><path class="cls-9" d="M488.16,160.76a.53.53,0,0,1-.46-.3l-4.65-10.57a.49.49,0,0,1,.25-.66.51.51,0,0,1,.66.26l4.66,10.56a.49.49,0,0,1-.26.66A.46.46,0,0,1,488.16,160.76Z" transform="translate(-102.28 -94.76)"/><path class="cls-9" d="M508,203.68a.5.5,0,0,1-.49-.39l-3.51-16a.5.5,0,1,1,1-.22l3.51,16a.49.49,0,0,1-.38.59Z" transform="translate(-102.28 -94.76)"/><path class="cls-9" d="M501.14,204.19a.5.5,0,0,1-.49-.39l-3.28-15.3a.49.49,0,0,1,.38-.59.51.51,0,0,1,.6.39l3.28,15.29a.49.49,0,0,1-.39.59Z" transform="translate(-102.28 -94.76)"/><path class="cls-9" d="M494.94,206.45a.5.5,0,0,1-.49-.37l-3.36-13.16a.49.49,0,0,1,.36-.6.5.5,0,0,1,.61.36l3.36,13.15a.5.5,0,0,1-.36.61Z" transform="translate(-102.28 -94.76)"/><path class="cls-10" d="M624.76,180.89a55.1,55.1,0,0,0,6.23-7.57,65.45,65.45,0,0,0,5-8.44,60,60,0,0,0,5.75-18.59,57.08,57.08,0,0,0-.76-19.38,33.59,33.59,0,0,0-9.88-16.36,53.36,53.36,0,0,0-16.33-10.39,62.52,62.52,0,0,0-18.9-4.51A46.08,46.08,0,0,0,576.61,98a29,29,0,0,0-15.13,11.82,29.21,29.21,0,0,1,14.95-12.29,46.81,46.81,0,0,1,19.46-2.65,61.32,61.32,0,0,1,19.19,4.44,53.52,53.52,0,0,1,16.67,10.53,34.58,34.58,0,0,1,10.06,16.86,55.48,55.48,0,0,1,.61,19.69A61.62,61.62,0,0,1,624.76,180.89Z" transform="translate(-102.28 -94.76)"/><path class="cls-2" d="M577.77,260.87,572,338.66l33,77.66,15.81-151.1S595.79,278.25,577.77,260.87Z" transform="translate(-102.28 -94.76)"/><path class="cls-8" d="M566.11,324.73q6.81,14.52,13.25,29.18c4.32,9.76,8.54,19.57,12.74,29.39s8.3,19.67,12.33,29.56,8,19.81,11.81,29.78q-6.81-14.5-13.25-29.17t-12.73-29.39c-4.16-9.83-8.3-19.68-12.33-29.56S569.94,334.71,566.11,324.73Z" transform="translate(-102.28 -94.76)"/></svg>